Geomini-200.ufo
<glyph name=".notdef" format="2">
  <advance width="727"/>
  <unicode hex="0000"/>
  <outline>
    <contour>
      <point x="91" y="0" type="line"/>
      <point x="636" y="0" type="line"/>
      <point x="636" y="727" type="line"/>
      <point x="91" y="727" type="line"/>
    </contour>
  </outline>
</glyph>
<glyph name="uni0021" format="2">
  <advance width="222"/>
  <unicode hex="0021"/>
  <outline>
    <contour>
      <point x="86.47114391379742" y="727.3047239705434" type="line"/>
      <point x="135.7822762559804" y="727.3047239705434" type="line"/>
      <point x="135.7822762559804" y="193.5813943224004" type="line"/>
      <point x="86.47114391379742" y="193.5813943224004" type="line"/>
    </contour>
    <contour>
      <point x="111.12671008488891" y="91.79988921875263" type="curve" smooth="yes"/>
      <point x="138.04142041746857" y="91.79988921875263"/>
      <point x="160.17810478595112" y="73.79124860469511"/>
      <point x="160.17810478595115" y="45.65083275893787" type="curve" smooth="yes"/>
      <point x="160.17810478595115" y="17.510416913180457"/>
      <point x="138.04142041746857" y="-0.49822370087705536"/>
      <point x="111.12671008488891" y="-0.4982237008770549" type="curve" smooth="yes"/>
      <point x="84.21199975230925" y="-0.4982237008770549"/>
      <point x="62.07531538382669" y="17.510416913180457"/>
      <point x="62.0753153838267" y="45.65083275893787" type="curve" smooth="yes"/>
      <point x="62.0753153838267" y="73.79124860469511"/>
      <point x="84.21199975230927" y="91.79988921875261"/>
    </contour>
  </outline>
</glyph>
<glyph name="uni0022" format="2">
  <advance width="333"/>
  <unicode hex="0022"/>
  <outline>
    <contour>
      <point x="68.19532704270564" y="736.7627532128251" type="line"/>
      <point x="125.7662599899456" y="736.7627532128251" type="line"/>
      <point x="118.62475610787344" y="487.81153249049174" type="line"/>
      <point x="75.3368309247778" y="487.81153249049174" type="line"/>
    </contour>
    <contour>
      <point x="207.33736596071347" y="736.7627532128251" type="line"/>
      <point x="264.90829890795345" y="736.7627532128251" type="line"/>
      <point x="257.76679502588127" y="487.81153249049174" type="line"/>
      <point x="214.47886984278563" y="487.81153249049174" type="line"/>
    </contour>
  </outline>
</glyph>
<glyph name="uni0024" format="2">
  <advance width="548"/>
  <unicode hex="0024"/>
  <outline>
    <contour>
      <point x="488.79495225232455" y="654.1774739226968" type="curve"/>
      <point x="458.370058623635" y="614.8599630070208" type="line"/>
      <point x="403.3879068977113" y="664.1903965295677"/>
      <point x="337.8078278514008" y="689.6803835824065"/>
      <point x="264.5127527942159" y="689.6803835824065" type="curve" smooth="yes"/>
      <point x="151.62481689993024" y="689.6803835824065"/>
      <point x="96.06411858700002" y="619.5229266326326"/>
      <point x="96.06411858700005" y="562.0414233184932" type="curve" smooth="yes"/>
      <point x="96.06411858700005" y="508.13356438437006"/>
      <point x="120.77938803942412" y="450.8295008761513"/>
      <point x="277.7895959081688" y="402.8871955527924" type="curve" smooth="yes"/>
      <point x="442.96398597497057" y="352.45199679933245"/>
      <point x="500.19763362835647" y="294.56885691174216"/>
      <point x="500.1976336283565" y="197.88433513278073" type="curve" smooth="yes"/>
      <point x="500.1976336283565" y="88.98622385071808"/>
      <point x="423.70363026201665" y="-3.0345104200734454"/>
      <point x="269.7056509175002" y="-3.0345104200734285" type="curve" smooth="yes"/>
      <point x="174.0739662178212" y="-3.0345104200734285"/>
      <point x="90.64336114821265" y="27.341383642294943"/>
      <point x="20.838037566714412" y="103.79789059355764" type="curve"/>
      <point x="55.86399084557613" y="142.67353398719365" type="line"/>
      <point x="108.96659394699535" y="81.30039321137781"/>
      <point x="191.01012878063352" y="45.68388344218327"/>
      <point x="274.3999400767898" y="45.683883442183266" type="curve" smooth="yes"/>
      <point x="379.22676778158336" y="45.683883442183266"/>
      <point x="449.49388372529336" y="109.7743156475965"/>
      <point x="449.49388372529336" y="189.8215911762526" type="curve" smooth="yes"/>
      <point x="449.49388372529336" y="260.88262210394873"/>
      <point x="417.767237408883" y="308.2455532829763"/>
      <point x="251.3072570463852" y="359.0733007968869" type="curve" smooth="yes"/>
      <point x="110.84982203089444" y="401.96129722625113"/>
      <point x="44.29748385349441" y="464.324189586106"/>
      <point x="44.297483853494434" y="559.2046032182686" type="curve" smooth="yes"/>
      <point x="44.297483853494434" y="652.5533447723463"/>
      <point x="120.50293135306441" y="736.1772984797534"/>
      <point x="267.2242821049739" y="736.1772984797534" type="curve" smooth="yes"/>
      <point x="350.97849938714046" y="736.1772984797534"/>
      <point x="432.0042737337502" y="711.153878739681"/>
    </contour>
    <contour>
      <point x="247.08604911965205" y="26.732391831696813" type="line"/>
      <point x="295.4100453820329" y="26.732391831696813" type="line"/>
      <point x="295.4100453820329" y="-118.6450384315695" type="line"/>
      <point x="247.08604911965205" y="-118.6450384315695" type="line"/>
    </contour>
    <contour>
      <point x="251.12919186371212" y="853.3085011181778" type="line"/>
      <point x="299.4531881260931" y="853.3085011181778" type="line"/>
      <point x="299.4531881260931" y="705.4180027673871" type="line"/>
      <point x="251.12919186371212" y="705.4180027673871" type="line"/>
    </contour>
  </outline>
</glyph>
<glyph name="uni0025" format="2">
  <advance width="841"/>
  <unicode hex="0025"/>
  <outline>
    <contour>
      <point x="609.1249270665238" y="736.762753212825" type="line"/>
      <point x="664.7476584040053" y="736.762753212825" type="line"/>
      <point x="238.51661306209587" y="1.706162954975218" type="line"/>
      <point x="178.5138051414606" y="1.706162954975218" type="line"/>
    </contour>
    <contour>
      <point x="638.9013612710706" y="377.03705088431724" type="curve" smooth="yes"/>
      <point x="734.8616292125665" y="377.03705088431724"/>
      <point x="798.8351411735639" y="300.06315718500764"/>
      <point x="798.8351411735639" y="184.60231663604327" type="curve" smooth="yes"/>
      <point x="798.8351411735639" y="69.1414760870796"/>
      <point x="734.8616292125665" y="-7.832417612230017"/>
      <point x="638.9013612710706" y="-7.832417612230009" type="curve" smooth="yes"/>
      <point x="542.941093329575" y="-7.832417612230009"/>
      <point x="478.9675813685777" y="69.14147608707961"/>
      <point x="478.9675813685777" y="184.60231663604327" type="curve" smooth="yes"/>
      <point x="478.9675813685777" y="300.06315718500764"/>
      <point x="542.941093329575" y="377.0370508843172"/>
    </contour>
    <contour>
      <point x="206.55735570568578" y="736.1253705786773" type="curve" smooth="yes"/>
      <point x="302.51762364718167" y="736.1253705786773"/>
      <point x="366.4911356081791" y="659.1514768793677"/>
      <point x="366.49113560817904" y="543.6906363304034" type="curve" smooth="yes"/>
      <point x="366.49113560817904" y="428.22979578143975"/>
      <point x="302.5176236471816" y="351.25590208213015"/>
      <point x="206.55735570568578" y="351.25590208213015" type="curve" smooth="yes"/>
      <point x="110.59708776419008" y="351.25590208213015"/>
      <point x="46.623575803192836" y="428.22979578143975"/>
      <point x="46.62357580319283" y="543.6906363304034" type="curve" smooth="yes"/>
      <point x="46.62357580319283" y="659.1514768793678"/>
      <point x="110.59708776419006" y="736.1253705786773"/>
    </contour>
    <contour>
      <point x="529.9342292739302" y="184.60231663604327" type="curve" smooth="yes"/>
      <point x="529.9342292739302" y="99.15125720239753"/>
      <point x="571.8817907243952" y="40.082753499077285"/>
      <point x="638.9013612710705" y="40.08275349907728" type="curve" smooth="yes"/>
      <point x="705.9209318177467" y="40.08275349907728"/>
      <point x="747.8684932682116" y="99.15125720239755"/>
      <point x="747.8684932682116" y="184.60231663604327" type="curve" smooth="yes"/>
      <point x="747.8684932682116" y="270.05337606969"/>
      <point x="705.9209318177467" y="329.12187977300977"/>
      <point x="638.9013612710705" y="329.12187977300977" type="curve" smooth="yes"/>
      <point x="571.8817907243952" y="329.12187977300977"/>
      <point x="529.9342292739302" y="270.05337606969"/>
    </contour>
    <contour>
      <point x="97.5902237085454" y="543.6906363304034" type="curve" smooth="yes"/>
      <point x="97.5902237085454" y="458.2395768967576"/>
      <point x="139.53778515901024" y="399.17107319343745"/>
      <point x="206.5573557056856" y="399.17107319343745" type="curve" smooth="yes"/>
      <point x="273.57692625236183" y="399.17107319343745"/>
      <point x="315.52448770282666" y="458.23957689675774"/>
      <point x="315.52448770282666" y="543.6906363304034" type="curve" smooth="yes"/>
      <point x="315.52448770282666" y="629.1416957640502"/>
      <point x="273.57692625236183" y="688.2101994673699"/>
      <point x="206.5573557056856" y="688.2101994673699" type="curve" smooth="yes"/>
      <point x="139.53778515901024" y="688.2101994673699"/>
      <point x="97.59022370854541" y="629.1416957640502"/>
    </contour>
  </outline>
</glyph>
<glyph name="uni0026" format="2">
  <advance width="719"/>
  <unicode hex="0026"/>
  <outline>
    <contour>
      <point x="266.2614408851291" y="356.5082173468483" type="line" smooth="yes"/>
      <point x="167.7465358559433" y="454.5335070351284"/>
      <point x="143.09144638789556" y="506.9977201375701"/>
      <point x="143.09144638789556" y="572.0307386015854" type="curve"/>
      <point x="197.4972763166813" y="571.1043505054579" type="line"/>
      <point x="197.4972763166813" y="498.70786941874115"/>
      <point x="243.27367330325268" y="456.71357561354665"/>
      <point x="306.79564193150605" y="392.8144976001058" type="curve" smooth="yes"/>
      <point x="697.2918895929904" y="0.0" type="line"/>
      <point x="624.5503404714996" y="0.0" type="line"/>
    </contour>
    <contour>
      <point x="287.08296257515667" y="432.3768241747231" type="curve" smooth="yes"/>
      <point x="408.8718026413125" y="481.14146186491075"/>
      <point x="445.17796964844274" y="532.642548247268"/>
      <point x="445.17796964844274" y="575.9731916599447" type="curve"/>
      <point x="471.5017858728719" y="591.2657297350548" type="line"/>
      <point x="498.4188816272196" y="581.231233798709" type="line"/>
      <point x="498.4188816272196" y="502.80000667614456"/>
      <point x="444.0089062587042" y="443.9093971936359"/>
      <point x="296.451410525342" y="379.820147200001" type="curve" smooth="yes"/>
      <point x="136.73516088487912" y="310.4499359451953"/>
      <point x="91.71941196782697" y="257.9370464779799"/>
      <point x="91.71941196782699" y="180.68838526275533" type="curve"/>
      <point x="36.972959534117706" y="173.67071749824538" type="line"/>
      <point x="36.97295953411773" y="273.6046541903497"/>
      <point x="89.86905946147614" y="353.41175210750896"/>
    </contour>
    <contour>
      <point x="454.37692511451297" y="196.25901136566958" type="curve" smooth="yes"/>
      <point x="672.4272115193216" y="496.1325303799189" type="line"/>
      <point x="719.3370749656505" y="467.77498137320106" type="line"/>
      <point x="470.38446958329007" y="133.7906431898352" type="line" smooth="yes"/>
      <point x="387.13965116919604" y="22.112898172768467"/>
      <point x="311.8145089281172" y="-10.656294824040145"/>
      <point x="235.11508885221068" y="-10.656294824040152" type="curve"/>
      <point x="236.9024357704992" y="41.91723846186193" type="line"/>
      <point x="313.07505136714013" y="41.91723846186193"/>
      <point x="377.75079341974765" y="90.87897202419498"/>
    </contour>
    <contour>
      <point x="445.17796964844274" y="575.9731916599447" type="line"/>
      <point x="445.17796964844274" y="635.425667568199"/>
      <point x="400.8389536163708" y="686.0733883389269"/>
      <point x="325.3574500350167" y="686.0733883389269" type="curve" smooth="yes"/>
      <point x="249.3457941590168" y="686.0733883389269"/>
      <point x="197.49727631668128" y="635.5837551288535"/>
      <point x="197.4972763166813" y="571.1043505054579" type="curve"/>
      <point x="174.33714773561985" y="551.4962808751098" type="line"/>
      <point x="143.09144638789556" y="572.0307386015854" type="line"/>
      <point x="143.09144638789556" y="667.1177964523506"/>
      <point x="231.2911604552607" y="734.4850615030663"/>
      <point x="327.44557623314336" y="734.4850615030663" type="curve" smooth="yes"/>
      <point x="424.78240643498435" y="734.4850615030663"/>
      <point x="498.4188816272196" y="670.9013764254372"/>
      <point x="498.4188816272196" y="581.2755205939934" type="curve"/>
    </contour>
    <contour>
      <point x="236.9024357704992" y="41.91723846186193" type="curve"/>
      <point x="254.06373330562076" y="15.736511953853684" type="line"/>
      <point x="235.11508885221068" y="-10.656294824040152" type="line"/>
      <point x="115.2451237977329" y="-10.656294824040152"/>
      <point x="36.97295953411768" y="70.44011354699418"/>
      <point x="36.972959534117706" y="173.67071749824538" type="curve"/>
      <point x="63.21364883158898" y="188.4960611198444" type="line"/>
      <point x="91.71941196782699" y="180.68838526275533" type="line"/>
      <point x="91.71941196782699" y="94.20445185282229"/>
      <point x="154.46335777237988" y="41.91723846186193"/>
    </contour>
  </outline>
</glyph>
<glyph name="uni0027" format="2">
  <advance width="194"/>
  <unicode hex="0027"/>
  <outline>
    <contour>
      <point x="68.19532704270581" y="736.7627532128251" type="line"/>
      <point x="125.76625998994577" y="736.7627532128251" type="line"/>
      <point x="118.62475610787361" y="487.81153249049174" type="line"/>
      <point x="75.33683092477796" y="487.81153249049174" type="line"/>
    </contour>
  </outline>
</glyph>
<glyph name="uni002A" format="2">
  <advance width="488"/>
  <unicode hex="002A"/>
  <outline>
    <contour>
      <point x="264.2663364722063" y="486.95777794497127" type="line"/>
      <point x="254.43335364579863" y="502.0053007899086" type="line"/>
      <point x="471.6071126234059" y="555.0971177565373" type="line"/>
      <point x="486.6677777691054" y="511.51100893734707" type="line"/>
      <point x="271.3036959797517" y="461.91444867609863" type="line"/>
      <point x="273.46870707530417" y="464.9177177609439" type="line"/>
      <point x="426.45962606294546" y="265.3849501806299" type="line"/>
      <point x="387.16515970191915" y="235.56760060827133" type="line"/>
      <point x="236.24172851155294" y="447.6243716784171" type="line"/>
      <point x="251.98763647457486" y="447.3341755476434" type="line"/>
      <point x="107.95326173990694" y="233.6302286524787" type="line"/>
      <point x="68.11271099434717" y="264.93522126118387" type="line"/>
      <point x="215.59234708193134" y="468.95763827576366" type="line"/>
      <point x="223.13208211253018" y="459.57214134985014" type="line"/>
      <point x="0.6780231103010058" y="511.12784902686707" type="line"/>
      <point x="16.114249330624286" y="556.7182861067149" type="line"/>
      <point x="230.01414256281177" y="502.39937429828893" type="line"/>
      <point x="219.61215090201242" y="485.21958384646985" type="line"/>
      <point x="218.5124654724503" y="727.3047239705434" type="line"/>
      <point x="265.563505983774" y="727.3047239705434" type="line"/>
    </contour>
  </outline>
</glyph>
<glyph name="uni002B" format="2">
  <advance width="522"/>
  <unicode hex="002B"/>
  <outline>
    <contour>
      <point x="0.0" y="388.72654880555643" type="line"/>
      <point x="522.3466093947047" y="388.72654880555643" type="line"/>
      <point x="522.3466093947047" y="347.8620410114271" type="line"/>
      <point x="0.0" y="347.8620410114271" type="line"/>
    </contour>
    <contour>
      <point x="283.73164788413425" y="638.1052867940386" type="line"/>
      <point x="283.73164788413425" y="80.18138283235467" type="line"/>
      <point x="238.61496151057034" y="80.18138283235467" type="line"/>
      <point x="238.61496151057034" y="638.1052867940386" type="line"/>
    </contour>
  </outline>
</glyph>
<glyph name="uni002C" format="2">
  <advance width="204"/>
  <unicode hex="002C"/>
  <outline>
    <contour>
      <point x="102.57327817409384" y="122.42358218997067" type="line"/>
      <point x="158.11939013263043" y="122.42358218997067" type="line"/>
      <point x="46.464890369846465" y="-115.47576373845887" type="line"/>
      <point x="-6.36543091426468" y="-115.47576373845887" type="line"/>
    </contour>
  </outline>
</glyph>
<glyph name="uni002D" format="2">
  <advance width="360"/>
  <unicode hex="002D"/>
  <outline>
    <contour>
      <point x="68.6250524385186" y="370.74138565380616" type="line"/>
      <point x="291.3080022080121" y="370.74138565380616" type="line"/>
      <point x="291.3080022080121" y="320.3488815444245" type="line"/>
      <point x="68.6250524385186" y="320.3488815444245" type="line"/>
    </contour>
  </outline>
</glyph>
<glyph name="uni002E" format="2">
  <advance width="240"/>
  <unicode hex="002E"/>
  <outline>
    <contour>
      <point x="119.85344021697631" y="96.2880759878236" type="curve" smooth="yes"/>
      <point x="148.0075029501797" y="96.2880759878236"/>
      <point x="171.16352405217782" y="76.89310136538171"/>
      <point x="171.16352405217782" y="46.586391220508844" type="curve" smooth="yes"/>
      <point x="171.16352405217782" y="16.279681075635818"/>
      <point x="148.0075029501797" y="-3.115293546806079"/>
      <point x="119.85344021697631" y="-3.1152935468060816" type="curve"/>
      <point x="91.6993774837729" y="-3.1152935468060816"/>
      <point x="68.5433563817748" y="16.279681075635814"/>
      <point x="68.5433563817748" y="46.586391220508844" type="curve" smooth="yes"/>
      <point x="68.5433563817748" y="76.89310136538171"/>
      <point x="91.6993774837729" y="96.28807598782359"/>
    </contour>
  </outline>
</glyph>
<glyph name="uni002F" format="2">
  <advance width="486"/>
  <unicode hex="002F"/>
  <outline>
    <contour>
      <point x="438.1754652878994" y="816.7329708298482" type="line"/>
      <point x="486.43944843376136" y="816.7329708298482" type="line"/>
      <point x="47.26598537198132" y="-187.90609918982534" type="line"/>
      <point x="0.0" y="-187.90609918982534" type="line"/>
    </contour>
  </outline>
</glyph>
<glyph name="uni0030" format="2">
  <advance width="660"/>
  <unicode hex="0030"/>
  <outline>
    <contour>
      <point x="46.679390954987" y="364.4035398007608" type="curve" smooth="yes"/>
      <point x="46.679390954986914" y="585.8264411455757"/>
      <point x="169.63715267276325" y="737.8418701070007"/>
      <point x="333.11693156032453" y="737.8418701070007" type="curve" smooth="yes"/>
      <point x="499.7874710851081" y="737.8418701070008"/>
      <point x="615.7992432005276" y="584.794713508085"/>
      <point x="615.7992432005277" y="364.4035398007603" type="curve" smooth="yes"/>
      <point x="615.7992432005277" y="144.0123660934369"/>
      <point x="495.8061289227506" y="-9.034790505479577"/>
      <point x="333.1169315603245" y="-9.034790505479549" type="curve" smooth="yes"/>
      <point x="165.60006698028306" y="-9.034790505479549"/>
      <point x="46.67939095498713" y="142.9806384559458"/>
    </contour>
    <contour>
      <point x="97.52807033627145" y="364.4035398007608" type="curve" smooth="yes"/>
      <point x="97.52807033627145" y="171.9404625650314"/>
      <point x="201.11171931803256" y="37.83789407623675"/>
      <point x="333.1169315603248" y="37.83789407623675" type="curve" smooth="yes"/>
      <point x="464.40570592390463" y="37.83789407623675"/>
      <point x="564.9505623240456" y="172.98502921159294"/>
      <point x="564.9505638192435" y="364.40353980075963" type="curve" smooth="yes"/>
      <point x="564.9505638192435" y="555.8220554474557"/>
      <point x="464.405707298323" y="690.9691855252845"/>
      <point x="333.1169315603248" y="690.9691855252845" type="curve" smooth="yes"/>
      <point x="201.11172069995078" y="690.9691855252845"/>
      <point x="97.52807183962852" y="556.8666119513626"/>
    </contour>
  </outline>
</glyph>
<glyph name="uni0033" format="2">
  <advance width="539"/>
  <unicode hex="0033"/>
  <outline>
    <contour>
      <point x="223.56486808561021" y="396.214883546577" type="line" smooth="yes"/>
      <point x="345.4189201761403" y="396.214883546577"/>
      <point x="421.72203004341225" y="478.971092385064"/>
      <point x="421.7220306261596" y="548.3612208381691" type="curve" smooth="yes"/>
      <point x="421.7220311063042" y="647.0679084184749"/>
      <point x="326.0249142045354" y="689.1538575871388"/>
      <point x="229.99067773789002" y="689.1538575871388" type="curve" smooth="yes"/>
      <point x="144.96874286929094" y="689.1538575871388"/>
      <point x="91.0736678417455" y="667.2015379860061"/>
      <point x="31.331628564092515" y="635.4586294541093" type="curve"/>
      <point x="7.6674691965867225" y="677.182350770811" type="line"/>
      <point x="68.82469572739598" y="717.2877707472186"/>
      <point x="144.31261288310273" y="738.6857403426469"/>
      <point x="232.03875781259717" y="738.685740342647" type="curve" smooth="yes"/>
      <point x="358.53348389888237" y="738.685740342647"/>
      <point x="475.00161505278993" y="678.6528097048318"/>
      <point x="475.00161505278993" y="557.5981471225434" type="curve" smooth="yes"/>
      <point x="475.00161505278993" y="489.80603329828654"/>
      <point x="421.19463684829645" y="391.01455857085347"/>
      <point x="313.5485297240372" y="371.3757184416522" type="curve"/>
      <point x="313.5485297240372" y="383.0010766102119" type="line"/>
      <point x="422.52987134024437" y="368.3011561442692"/>
      <point x="496.64342618127773" y="290.0252154831934"/>
      <point x="496.64342618127773" y="203.83061768310506" type="curve" smooth="yes"/>
      <point x="496.64342618127773" y="63.36821841221047"/>
      <point x="390.7035401156243" y="-9.280710608133148"/>
      <point x="217.81536144350878" y="-9.28071060813314" type="curve" smooth="yes"/>
      <point x="130.83840118348883" y="-9.28071060813314"/>
      <point x="48.59641519139194" y="16.43724450765336"/>
      <point x="3.465589575427071" y="40.13909362923434" type="curve"/>
      <point x="23.636675628826584" y="88.55572860351205" type="line"/>
      <point x="81.24065224685862" y="58.988795991130175"/>
      <point x="153.2366455789065" y="38.95191261165339"/>
      <point x="221.95620693731942" y="38.95191261165339" type="curve" smooth="yes"/>
      <point x="343.89554682977234" y="38.95191261165339"/>
      <point x="442.63584696586395" y="92.5213666849475"/>
      <point x="442.63584641596094" y="194.4847395634224" type="curve" smooth="yes"/>
      <point x="442.6358459863519" y="274.14317098533377"/>
      <point x="375.757053260961" y="351.4441035140079"/>
      <point x="231.94288004051486" y="351.44410351400785" type="curve"/>
      <point x="169.42234343443445" y="351.44410351400785" type="line"/>
      <point x="169.42234343443445" y="396.214883546577" type="line"/>
    </contour>
  </outline>
</glyph>
<glyph name="uni0035" format="2">
  <advance width="604"/>
  <unicode hex="0035"/>
  <outline>
    <contour>
      <point x="281.85927434150705" y="444.46210159164576" type="line" smooth="yes"/>
      <point x="477.30834649404494" y="444.46210159164576"/>
      <point x="555.0487599351083" y="348.7509443371188"/>
      <point x="555.0487599351083" y="226.83569822152455" type="curve" smooth="yes"/>
      <point x="555.0487599351083" y="96.1407910156953"/>
      <point x="467.4313228006394" y="-9.750899568087505"/>
      <point x="285.9774879754503" y="-9.750899568087503" type="curve" smooth="yes"/>
      <point x="192.42143528944592" y="-9.750899568087503"/>
      <point x="95.83133884925917" y="31.869447238005897"/>
      <point x="27.037859277787355" y="81.74322612786261" type="curve"/>
      <point x="58.750366228464394" y="124.16970522433283" type="line"/>
      <point x="95.5022461519089" y="95.54347128815263"/>
      <point x="184.10670594296286" y="38.68509571736098"/>
      <point x="290.04908426907036" y="38.68509571736099" type="curve" smooth="yes"/>
      <point x="418.2781559333713" y="38.68509571736099"/>
      <point x="504.0533511757096" y="114.92348697195698"/>
      <point x="504.0533511757096" y="216.79329067424763" type="curve" smooth="yes"/>
      <point x="504.0533511757096" y="314.0558860753248"/>
      <point x="464.9051756661583" y="398.0127896216278"/>
      <point x="262.89114019248115" y="398.0127896216278" type="curve" smooth="yes"/>
      <point x="81.17447638320868" y="398.0127896216278" type="line"/>
      <point x="92.14839041025618" y="727.3047239705434" type="line"/>
      <point x="502.41248834577294" y="727.3047239705434" type="line"/>
      <point x="502.41248834577294" y="679.6808744465027" type="line"/>
      <point x="122.42661183830295" y="679.6808744465027" type="line"/>
      <point x="137.5782795903852" y="694.5456078953553" type="line"/>
      <point x="129.9583170849022" y="416.14357776829206" type="line"/>
      <point x="104.17146787076251" y="444.46210159164576" type="line"/>
    </contour>
  </outline>
</glyph>
<glyph name="uni0036" format="2">
  <advance width="680"/>
  <unicode hex="0036"/>
  <outline>
    <contour>
      <point x="357.33365253206733" y="540.16904431337" type="curve" smooth="yes"/>
      <point x="510.2159436547256" y="540.16904431337"/>
      <point x="632.5802868593569" y="425.54698202466466"/>
      <point x="632.5802868593569" y="274.4928879555653" type="curve" smooth="yes"/>
      <point x="632.5802868593569" y="110.52319088642892"/>
      <point x="507.2843552693928" y="-13.176980709021564"/>
      <point x="351.6578300201082" y="-13.176980709021585" type="curve"/>
      <point x="162.68410311276114" y="-13.176980709021585"/>
      <point x="49.89377298486869" y="123.98536357214911"/>
      <point x="49.89377298486871" y="289.2830159840904" type="curve" smooth="yes"/>
      <point x="49.89377298486871" y="485.5594736026876"/>
      <point x="214.86502946327587" y="665.8576205344091"/>
      <point x="427.6422325982293" y="727.3047239705434" type="curve"/>
      <point x="533.4021565138457" y="727.3047239705434" type="line"/>
      <point x="533.4021565138457" y="696.0503484519901" type="line"/>
      <point x="362.3866028460568" y="680.2588148463149"/>
      <point x="184.2533150011448" y="566.7917130833512"/>
      <point x="119.38970588840823" y="408.08876892221605" type="curve"/>
      <point x="111.5921002948655" y="415.43068924547885" type="line"/>
      <point x="172.12343205644547" y="498.48473947766297"/>
      <point x="247.19156348351527" y="540.16904431337"/>
    </contour>
    <contour>
      <point x="103.1271423844918" y="279.90658162026756" type="curve" smooth="yes"/>
      <point x="103.1271423844918" y="145.8373926081971"/>
      <point x="200.05279560799784" y="34.86761940748437"/>
      <point x="352.2410559638084" y="34.867619407484376" type="curve" smooth="yes"/>
      <point x="479.6859221961119" y="34.867619407484376"/>
      <point x="582.8728301790655" y="139.27617981547027"/>
      <point x="582.8728301790654" y="270.3480134362496" type="curve" smooth="yes"/>
      <point x="582.8728301790654" y="405.03287207295443"/>
      <point x="474.7800350384604" y="496.9260525318224"/>
      <point x="347.3446763824111" y="496.9260525318224" type="curve" smooth="yes"/>
      <point x="204.90908504395742" y="496.9260525318224"/>
      <point x="103.12714391153466" y="404.89654810801153"/>
    </contour>
  </outline>
</glyph>
<glyph name="uni0038" format="2">
  <advance width="636"/>
  <unicode hex="0038"/>
  <outline>
    <contour>
      <point x="39.163527425602034" y="203.66212999985413" type="curve" smooth="yes"/>
      <point x="39.163527425602034" y="300.9405931084022"/>
      <point x="148.90296671967818" y="389.4540492871242"/>
      <point x="244.19690423657565" y="394.5005149066634" type="curve"/>
      <point x="244.0812710793802" y="381.1829659293591" type="line"/>
      <point x="130.5512451764513" y="381.1829659293591"/>
      <point x="64.36061269878593" y="478.14115154706394"/>
      <point x="64.36061269878594" y="550.0801324079893" type="curve" smooth="yes"/>
      <point x="64.36061269878594" y="665.5411835084885"/>
      <point x="178.84612681522094" y="742.2099763437163"/>
      <point x="317.8960071117381" y="742.2099763437163" type="curve" smooth="yes"/>
      <point x="456.94588740825503" y="742.2099763437163"/>
      <point x="571.4314015246897" y="665.5411835084883"/>
      <point x="571.4314015246897" y="550.0801324079893" type="curve" smooth="yes"/>
      <point x="571.4314015246897" y="486.0063817587997"/>
      <point x="522.3817927043846" y="381.73056140613323"/>
      <point x="383.079011478133" y="385.29478732263425" type="curve"/>
      <point x="382.98880891010447" y="395.4819784349043" type="line"/>
      <point x="513.0736180325504" y="376.0228639112875"/>
      <point x="596.6284867978737" y="292.79329734856555"/>
      <point x="596.6284867978737" y="203.66212999985413" type="curve" smooth="yes"/>
      <point x="596.6284867978737" y="69.08023497830422"/>
      <point x="488.8180120672321" y="-13.899592964271136"/>
      <point x="317.8960071117381" y="-13.899592964271156" type="curve"/>
      <point x="146.97400215624396" y="-13.899592964271156"/>
      <point x="39.16352742560207" y="69.08023497830406"/>
    </contour>
    <contour>
      <point x="92.5055403292486" y="195.68361619966473" type="curve" smooth="yes"/>
      <point x="92.50553974992552" y="94.52498045766555"/>
      <point x="201.86365259200963" y="30.862616252633444"/>
      <point x="317.8960071117379" y="30.86261625263343" type="curve" smooth="yes"/>
      <point x="433.9283616314666" y="30.86261625263343"/>
      <point x="543.2864744735504" y="94.52498045766555"/>
      <point x="543.2864738942275" y="195.68361619966473" type="curve" smooth="yes"/>
      <point x="543.2864733084507" y="297.96932266028733"/>
      <point x="431.47848604769695" y="362.6814219747955"/>
      <point x="317.8960071117379" y="362.6814219747955" type="curve" smooth="yes"/>
      <point x="205.405942852728" y="362.6814219747955"/>
      <point x="92.50554091502494" y="297.96932266028733"/>
    </contour>
    <contour>
      <point x="114.80817825715953" y="547.132173849613" type="curve" smooth="yes"/>
      <point x="114.80817890110447" y="467.5847068807884"/>
      <point x="210.73954781509258" y="400.8919688554047"/>
      <point x="317.89600711173796" y="400.8919688554047" type="curve" smooth="yes"/>
      <point x="425.05246640838203" y="400.8919688554047"/>
      <point x="520.9838353223693" y="467.58470688078876"/>
      <point x="520.9838359663165" y="547.132173849613" type="curve" smooth="yes"/>
      <point x="520.9838366069295" y="626.268060783071"/>
      <point x="442.3321055473463" y="696.8469371669097"/>
      <point x="317.89600711173796" y="696.8469371669097" type="curve" smooth="yes"/>
      <point x="193.4599086761301" y="696.8469371669097"/>
      <point x="114.80817761654589" y="626.2680607830708"/>
    </contour>
  </outline>
</glyph>
<glyph name="uni003B" format="2">
  <advance width="221"/>
  <unicode hex="003B"/>
  <outline>
    <contour>
      <point x="102.46638119274468" y="122.42358218997067" type="line"/>
      <point x="158.01249315128126" y="122.42358218997067" type="line"/>
      <point x="46.3579933884973" y="-115.47576373845887" type="line"/>
      <point x="-6.4723278956138435" y="-115.47576373845887" type="line"/>
    </contour>
    <contour>
      <point x="115.29027603400718" y="466.9253107917601" type="curve" smooth="yes"/>
      <point x="143.44433876721058" y="466.9253107917601"/>
      <point x="166.6003598692087" y="447.5303361693182"/>
      <point x="166.6003598692087" y="417.22362602444537" type="curve" smooth="yes"/>
      <point x="166.6003598692087" y="386.91691587957234"/>
      <point x="143.44433876721058" y="367.52194125713044"/>
      <point x="115.29027603400718" y="367.52194125713044" type="curve" smooth="yes"/>
      <point x="87.13621330080377" y="367.52194125713044"/>
      <point x="63.980192198805675" y="386.91691587957234"/>
      <point x="63.980192198805675" y="417.22362602444537" type="curve" smooth="yes"/>
      <point x="63.980192198805675" y="447.5303361693182"/>
      <point x="87.13621330080377" y="466.9253107917601"/>
    </contour>
  </outline>
</glyph>
<glyph name="uni003C" format="2">
  <advance width="560"/>
  <unicode hex="003C"/>
  <outline>
    <contour>
      <point x="523.6185300709624" y="65.27480824941405" type="line"/>
      <point x="19.254876883404393" y="335.9255161130704" type="line"/>
      <point x="19.254876883404393" y="376.7900239071997" type="line"/>
      <point x="521.4230459569379" y="641.8100860203269" type="line"/>
      <point x="541.6014862781092" y="600.9237631173495" type="line"/>
      <point x="47.87054329824181" y="344.7929639844284" type="line"/>
      <point x="48.034529356675954" y="369.3778842809188" type="line"/>
      <point x="541.6014862781092" y="104.91720261124088" type="line"/>
    </contour>
  </outline>
</glyph>
<glyph name="uni003D" format="2">
  <advance width="660"/>
  <unicode hex="003D"/>
  <outline>
    <contour>
      <point x="68.62505243851848" y="281.173809172634" type="line"/>
      <point x="590.9716618332232" y="281.173809172634" type="line"/>
      <point x="590.9716618332232" y="240.3093013785047" type="line"/>
      <point x="68.62505243851848" y="240.3093013785047" type="line"/>
    </contour>
    <contour>
      <point x="68.62505243851848" y="490.1913975158606" type="line"/>
      <point x="590.9716618332232" y="490.1913975158606" type="line"/>
      <point x="590.9716618332232" y="449.3268897217313" type="line"/>
      <point x="68.62505243851848" y="449.3268897217313" type="line"/>
    </contour>
  </outline>
</glyph>
<glyph name="uni003E" format="2">
  <advance width="560"/>
  <unicode hex="003E"/>
  <outline>
    <contour>
      <point x="36.594778763919656" y="641.810086020327" type="line"/>
      <point x="540.9584319514776" y="374.6020574654859" type="line"/>
      <point x="540.9584319514776" y="333.7375496713566" type="line"/>
      <point x="38.7902628779442" y="65.27480824941422" type="line"/>
      <point x="18.611822556772864" y="106.16113115239168" type="line"/>
      <point x="506.81714800497684" y="362.8681073944764" type="line"/>
      <point x="506.691892129865" y="344.08964698329356" type="line"/>
      <point x="18.61182255677282" y="602.1676916585003" type="line"/>
    </contour>
  </outline>
</glyph>
<glyph name="uni003F" format="2">
  <advance width="453"/>
  <unicode hex="003F"/>
  <outline>
    <contour>
      <point x="176.7518842900171" y="187.63754253455295" type="line"/>
      <point x="154.83227311426552" y="247.43929441300304"/>
      <point x="179.73821425471615" y="337.99420744611507"/>
      <point x="255.15602231716227" y="403.7600257485178" type="curve" smooth="yes"/>
      <point x="336.7606540248951" y="474.92087647334307"/>
      <point x="365.58154594867045" y="517.6260778453246"/>
      <point x="365.58154594867045" y="567.1686757133906" type="curve" smooth="yes"/>
      <point x="365.58154594867045" y="638.1161969572411"/>
      <point x="301.07776868709453" y="688.5428615504653"/>
      <point x="216.54207503367556" y="688.5428615504653" type="curve" smooth="yes"/>
      <point x="128.37712546924402" y="688.5428615504653"/>
      <point x="68.4704823848939" y="641.8939550972198"/>
      <point x="33.420624046738695" y="609.4510070903435" type="curve"/>
      <point x="3.4445351492893597" y="651.541375403408" type="line"/>
      <point x="52.24134241424129" y="697.1846281436008"/>
      <point x="123.60502746549408" y="737.5110519595489"/>
      <point x="219.83428446753203" y="737.5110519595489" type="curve" smooth="yes"/>
      <point x="328.5842271585471" y="737.5110519595489"/>
      <point x="417.17441244492676" y="673.6513105027279"/>
      <point x="417.17441244492676" y="571.7042542319505" type="curve" smooth="yes"/>
      <point x="417.17441244492676" y="502.63509710817505"/>
      <point x="376.84290478408747" y="443.57956538177507"/>
      <point x="301.6486359933158" y="380.4053934796461" type="curve" smooth="yes"/>
      <point x="239.76267542083625" y="328.4121448663421"/>
      <point x="207.8608579265479" y="258.07131199919183"/>
      <point x="215.4776694862113" y="187.63754253455295" type="curve"/>
    </contour>
    <contour>
      <point x="202.91187316857264" y="91.79988921875263" type="curve" smooth="yes"/>
      <point x="229.8265835011523" y="91.79988921875263"/>
      <point x="251.96326786963488" y="73.79124860469511"/>
      <point x="251.96326786963485" y="45.65083275893787" type="curve" smooth="yes"/>
      <point x="251.96326786963485" y="17.510416913180457"/>
      <point x="229.82658350115227" y="-0.49822370087705536"/>
      <point x="202.91187316857264" y="-0.4982237008770549" type="curve" smooth="yes"/>
      <point x="175.99716283599298" y="-0.4982237008770549"/>
      <point x="153.8604784675104" y="17.510416913180457"/>
      <point x="153.8604784675104" y="45.65083275893787" type="curve" smooth="yes"/>
      <point x="153.8604784675104" y="73.79124860469511"/>
      <point x="175.99716283599298" y="91.79988921875261"/>
    </contour>
  </outline>
</glyph>
<glyph name="uni0042" format="2">
  <advance width="658"/>
  <unicode hex="0042"/>
  <anchor x="329" y="727.3047239705434" name="top"/>
  <anchor x="329" y="-145" name="bottom"/>
  <outline>
    <contour>
      <point x="68.62505243851851" y="727.3047239705434" type="line"/>
      <point x="117.82386344836357" y="727.3047239705434" type="line"/>
      <point x="117.82386344836357" y="-0.4629258721517405" type="line"/>
      <point x="68.62505243851851" y="-0.4629258721517405" type="line"/>
    </contour>
    <contour>
      <point x="85.00890366217152" y="-0.4629258721517405" type="line"/>
      <point x="85.00890366217152" y="43.357560793352654" type="line"/>
      <point x="347.72855926922387" y="43.357560793352654" type="line" smooth="yes"/>
      <point x="443.3273187867452" y="43.357560793352654"/>
      <point x="539.3269842982121" y="93.40604169400903"/>
      <point x="539.3269837538425" y="199.04064412932553" type="curve" smooth="yes"/>
      <point x="539.3269831596817" y="314.3375731796124"/>
      <point x="450.8362663851716" y="357.74641247046435"/>
      <point x="334.1523861408854" y="357.74641247046435" type="curve" smooth="yes"/>
      <point x="79.49620546193933" y="357.74641247046435" type="line"/>
      <point x="79.49620546193933" y="398.8242030987644" type="line"/>
      <point x="334.1523861408854" y="398.8242030987644" type="line" smooth="yes"/>
      <point x="451.7481431240825" y="398.8242030987644"/>
      <point x="513.4386945216402" y="459.46246990962635"/>
      <point x="513.4386949855353" y="549.4812514292793" type="curve" smooth="yes"/>
      <point x="513.4386954749468" y="644.4513317499126"/>
      <point x="422.93089159798166" y="684.2844858548991"/>
      <point x="336.9834684939726" y="684.2844858548991" type="curve" smooth="yes"/>
      <point x="85.00890366217152" y="684.2844858548991" type="line"/>
      <point x="85.00890366217152" y="727.3047239705434" type="line"/>
      <point x="340.51731891371224" y="727.3047239705434" type="line" smooth="yes"/>
      <point x="473.5231651965436" y="727.3047239705434"/>
      <point x="565.0394093977536" y="666.318930938894"/>
      <point x="565.0394093977537" y="549.633185163934" type="curve" smooth="yes"/>
      <point x="565.0394093977537" y="469.7767436934248"/>
      <point x="509.04016460392114" y="378.3970575482207"/>
      <point x="386.1545595214955" y="372.8994070289679" type="curve"/>
      <point x="385.88071656539825" y="392.8652373676289" type="line"/>
      <point x="512.2126229874327" y="380.2998489793681"/>
      <point x="595.3624081431324" y="305.3696784143241"/>
      <point x="595.3624081431324" y="206.8310838714901" type="curve" smooth="yes"/>
      <point x="595.3624081431324" y="75.52310667827862"/>
      <point x="495.6776892627611" y="-0.4629258721517431"/>
      <point x="360.9751137498893" y="-0.4629258721517405" type="curve" smooth="yes"/>
    </contour>
  </outline>
</glyph>
<glyph name="uni004A" format="2">
  <advance width="441"/>
  <unicode hex="004A"/>
  <anchor x="348" y="727" name="top"/>
  <anchor x="348" y="0" name="bottom"/>
  <outline>
    <contour>
      <point x="29.853681441378047" y="103.69978928536773" type="line"/>
      <point x="67.71380124442872" y="62.53709499025576"/>
      <point x="128.70507103779974" y="33.14729016682686"/>
      <point x="186.24926735671056" y="33.14729016682686" type="curve" smooth="yes"/>
      <point x="260.6340847302152" y="33.14729016682686"/>
      <point x="322.9147957668555" y="68.36216445263202"/>
      <point x="322.9147957668555" y="199.37790042645835" type="curve" smooth="yes"/>
      <point x="322.9147957668555" y="727.3047239705434" type="line"/>
      <point x="372.6768591135018" y="727.3047239705434" type="line"/>
      <point x="372.6768591135018" y="190.21033227208568" type="line" smooth="yes"/>
      <point x="372.6768591135018" y="57.29103559849625"/>
      <point x="308.0719906402402" y="-9.936798552203157"/>
      <point x="186.24926735671056" y="-9.93679855220314" type="curve" smooth="yes"/>
      <point x="113.50797759934993" y="-9.93679855220314"/>
      <point x="50.764650097945236" y="12.344300879150637"/>
      <point x="0.8794155514220217" y="62.8735173101514" type="curve"/>
    </contour>
  </outline>
</glyph>
<glyph name="uni004B" format="2">
  <advance width="582"/>
  <unicode hex="004B"/>
  <anchor x="302" y="1" name="bottom"/>
  <outline>
    <contour>
      <point x="580.0336024058552" y="0.0" type="line"/>
      <point x="503.3958890253781" y="0.0" type="line"/>
      <point x="116.5813544213141" y="363.5283086181136" type="line"/>
      <point x="112.7293454084559" y="394.05918221617964" type="line"/>
      <point x="499.1895076490062" y="726.3041718323435" type="line"/>
      <point x="574.1909642455055" y="726.3041718323435" type="line"/>
      <point x="155.80103045170418" y="373.65127277739725" type="line"/>
      <point x="147.21599538386548" y="401.2941594466621" type="line"/>
    </contour>
    <contour>
      <point x="68.62505243851851" y="727.3047239705434" type="line"/>
      <point x="117.08579721780517" y="727.3047239705434" type="line"/>
      <point x="117.08579721780517" y="0.0" type="line"/>
      <point x="68.62505243851851" y="0.0" type="line"/>
    </contour>
  </outline>
</glyph>
<glyph name="uni0050" format="2">
  <advance width="624"/>
  <unicode hex="0050"/>
  <anchor x="312" y="727.3047239705434" name="top"/>
  <anchor x="312" y="-145" name="bottom"/>
  <outline>
    <contour>
      <point x="68.62505243851851" y="727.3047239705434" type="line"/>
      <point x="118.46155821033466" y="727.3047239705434" type="line"/>
      <point x="118.46155821033466" y="-0.4629258721517405" type="line"/>
      <point x="68.62505243851851" y="-0.4629258721517405" type="line"/>
    </contour>
    <contour>
      <point x="336.7620013641291" y="305.83663498373033" type="curve" smooth="yes"/>
      <point x="97.66927535186677" y="305.83663498373033" type="line"/>
      <point x="97.66927535186677" y="350.9993219430512" type="line"/>
      <point x="329.7682620411094" y="350.9993219430512" type="line" smooth="yes"/>
      <point x="448.8899949517222" y="350.9993219430512"/>
      <point x="529.2938907298318" y="413.1827624634915"/>
      <point x="529.2938912897795" y="523.3350397345115" type="curve" smooth="yes"/>
      <point x="529.2938918391087" y="631.3983218987725"/>
      <point x="430.88004082815735" y="680.7099307368046"/>
      <point x="334.4102306880826" y="680.7099307368046" type="curve" smooth="yes"/>
      <point x="97.66927535186677" y="680.7099307368046" type="line"/>
      <point x="97.66927535186677" y="727.3047239705434" type="line"/>
      <point x="344.42216144100075" y="727.3047239705434" type="line" smooth="yes"/>
      <point x="479.14911486215493" y="727.3047239705434"/>
      <point x="580.2430774497052" y="649.3435249840848"/>
      <point x="580.2430774497052" y="529.5185666083912" type="curve" smooth="yes"/>
      <point x="580.2430774497052" y="376.2910021810755"/>
      <point x="466.9261202420289" y="305.8366349837303"/>
    </contour>
  </outline>
</glyph>
<glyph name="uni0055" format="2">
  <advance width="676"/>
  <unicode hex="0055"/>
  <anchor x="340" y="708" name="top"/>
  <anchor x="336" y="-1" name="bottom"/>
  <outline>
    <contour>
      <point x="560.5519625301569" y="264.6498444918361" type="curve" smooth="yes"/>
      <point x="560.5519625301569" y="727.3047239705434" type="line"/>
      <point x="607.8303471329233" y="727.3047239705434" type="line"/>
      <point x="607.8303471329233" y="261.35059484966035" type="line" smooth="yes"/>
      <point x="607.8303471329233" y="81.29047823730522"/>
      <point x="500.567214730871" y="-13.165774145114824"/>
      <point x="334.14828541276086" y="-13.165774145114831" type="curve"/>
      <point x="176.5806388346746" y="-13.165774145114831"/>
      <point x="68.62505243851848" y="96.6783038558836"/>
      <point x="68.62505243851844" y="266.915352171642" type="curve" smooth="yes"/>
      <point x="68.62505243851844" y="727.3047239705434" type="line"/>
      <point x="117.8078571938601" y="727.3047239705434" type="line"/>
      <point x="117.8078571938601" y="278.29470718185485" type="line" smooth="yes"/>
      <point x="117.8078571938601" y="108.99380042443516"/>
      <point x="226.36870296567366" y="31.62748251041208"/>
      <point x="338.2487593297943" y="31.627482510412086" type="curve" smooth="yes"/>
      <point x="453.0817741904656" y="31.627482510412086"/>
      <point x="560.5519625301569" y="107.51003201090003"/>
    </contour>
  </outline>
</glyph>
<glyph name="uni0058" format="2">
  <advance width="604"/>
  <unicode hex="0058"/>
  <anchor x="302" y="727.3047239705434" name="top"/>
  <anchor x="302" y="-145" name="bottom"/>
  <outline>
    <contour>
      <point x="596.6066575705025" y="0.0" type="line"/>
      <point x="532.5290749861563" y="0.0" type="line"/>
      <point x="292.24028674391445" y="348.9547884606874" type="line"/>
      <point x="308.80096625389785" y="348.9547884606874" type="line"/>
      <point x="71.65975166059077" y="0.0" type="line"/>
      <point x="7.309415705808287" y="0.0" type="line"/>
      <point x="281.0054396146138" y="381.26817004076395" type="line"/>
      <point x="282.9488045744527" y="357.5542179307148" type="line"/>
      <point x="13.871294407076652" y="727.3047239705434" type="line"/>
      <point x="73.41524988073873" y="727.3047239705434" type="line"/>
      <point x="313.7042723347021" y="390.2090674087345" type="line"/>
      <point x="298.3800366348555" y="390.2090674087345" type="line"/>
      <point x="534.5523812183404" y="727.3047239705434" type="line"/>
      <point x="591.6108341916524" y="727.3047239705434" type="line"/>
      <point x="324.45426487913016" y="354.0977660691416" type="line"/>
      <point x="325.115503854467" y="381.26817004076395" type="line"/>
    </contour>
  </outline>
</glyph>
<glyph name="uni0059" format="2">
  <advance width="595"/>
  <unicode hex="0059"/>
  <anchor x="299" y="708" name="top"/>
  <outline>
    <contour>
      <point x="321.0043513343174" y="-0.4629258721517405" type="line"/>
      <point x="272.12412636178874" y="-0.4629258721517405" type="line"/>
      <point x="272.12412636178874" y="296.24491914250865" type="line"/>
      <point x="283.44335064007623" y="260.84096431278505" type="line"/>
      <point x="5.615073741384243" y="727.3047239705434" type="line"/>
      <point x="59.918376936132304" y="727.3047239705434" type="line"/>
      <point x="308.9869639351524" y="312.081985280835" type="line"/>
      <point x="283.44335064007623" y="311.3109203029932" type="line"/>
      <point x="535.6964967123187" y="727.3047239705434" type="line"/>
      <point x="589.4706456500464" y="727.3047239705434" type="line"/>
      <point x="308.9869639351524" y="263.7398738239045" type="line"/>
      <point x="321.0043513343174" y="296.24491914250865" type="line"/>
    </contour>
  </outline>
</glyph>
<glyph name="uni005A" format="2">
  <advance width="548"/>
  <unicode hex="005A"/>
  <anchor x="281" y="719" name="top"/>
  <outline>
    <contour>
      <point x="472.30135413689135" y="708.7638075619551" type="line"/>
      <point x="493.9357472797706" y="684.8048007940064" type="line"/>
      <point x="36.76178634311433" y="684.8048007940064" type="line"/>
      <point x="36.76178634311433" y="727.3047239705434" type="line"/>
      <point x="514.9011691055877" y="727.3047239705434" type="line"/>
      <point x="514.9011691055877" y="691.9750556086524" type="line"/>
      <point x="70.03907005824304" y="20.101885897027415" type="line"/>
      <point x="56.64179776291079" y="42.715598034203566" type="line"/>
      <point x="547.7022246018416" y="42.715598034203566" type="line"/>
      <point x="547.7022246018416" y="0.0" type="line"/>
      <point x="26.33072239981043" y="0.0" type="line"/>
      <point x="26.33072239981043" y="36.41998680886582" type="line"/>
    </contour>
  </outline>
</glyph>
<glyph name="uni005B" format="2">
  <advance width="286"/>
  <unicode hex="005B"/>
  <outline>
    <contour>
      <point x="68.62505243851842" y="823.3426787780126" type="line"/>
      <point x="286.19908466759085" y="823.3426787780126" type="line"/>
      <point x="286.199084667591" y="779.2828486289909" type="line"/>
      <point x="116.09674579398848" y="779.2828486289909" type="line"/>
      <point x="116.09674579398869" y="-141.45054332440284" type="line"/>
      <point x="286.1990846675912" y="-141.45054332440284" type="line"/>
      <point x="286.1990846675912" y="-185.58095517559997" type="line"/>
      <point x="68.62505243851871" y="-185.58095517559997" type="line"/>
    </contour>
  </outline>
</glyph>
<glyph name="uni0067" format="2">
  <advance width="582"/>
  <unicode hex="0067"/>
  <anchor x="286" y="577" name="top"/>
  <outline>
    <contour>
      <point x="464.79765660735507" y="152.95448912654584" type="curve" smooth="yes"/>
      <point x="464.79765660735507" y="206.91082023585366" type="line"/>
      <point x="464.79765660735507" y="306.6744828479916" type="line"/>
      <point x="464.79765660735507" y="577.8261138372574" type="line"/>
      <point x="512.9779218737498" y="577.8261138372574" type="line"/>
      <point x="512.9779218737498" y="142.89337123799913" type="line" smooth="yes"/>
      <point x="512.9779218737498" y="-32.806792509871116"/>
      <point x="414.6752941050264" y="-114.17412738675915"/>
      <point x="255.78038658331678" y="-114.17412738675915" type="curve" smooth="yes"/>
      <point x="169.41998042508243" y="-114.17412738675915"/>
      <point x="85.04896147563454" y="-87.09473209832956"/>
      <point x="42.77906573801668" y="-42.35739374797549" type="curve"/>
      <point x="74.26117390323051" y="-6.5249430943415705" type="line"/>
      <point x="111.68234519671964" y="-42.94138530825812"/>
      <point x="186.41317798141063" y="-71.51420375054786"/>
      <point x="255.78038658331678" y="-71.51420375054786" type="curve" smooth="yes"/>
      <point x="380.6850772808238" y="-71.51420375054786"/>
      <point x="464.79765660735507" y="-1.4485784057251436"/>
    </contour>
    <contour>
      <point x="493.9941897265184" y="430.96025849439417" type="curve"/>
      <point x="477.42009129039536" y="258.2985289204785" type="line"/>
      <point x="459.3912093438964" y="204.76397447143611"/>
      <point x="391.2157047695742" y="126.52008809649377"/>
      <point x="289.5174092180241" y="126.52008809649378" type="curve" smooth="yes"/>
      <point x="164.30128464463235" y="126.52008809649378"/>
      <point x="52.49680647856164" y="210.8122350827616"/>
      <point x="52.496806478561666" y="355.37593316114044" type="curve" smooth="yes"/>
      <point x="52.496806478561666" y="491.7394879399677"/>
      <point x="158.3441281690604" y="586.6555878856979"/>
      <point x="285.07785172634345" y="586.6555878856979" type="curve" smooth="yes"/>
      <point x="395.0122951665215" y="586.6555878856979"/>
      <point x="470.5160617255712" y="519.453277179325"/>
    </contour>
    <contour>
      <point x="290.0694491467523" y="545.508712656739" type="curve" smooth="yes"/>
      <point x="183.245114042816" y="545.508712656739"/>
      <point x="103.4779159370994" y="463.5497095999727"/>
      <point x="103.47791484929546" y="356.55395974498805" type="curve" smooth="yes"/>
      <point x="103.47791484929546" y="233.97834645926181"/>
      <point x="183.64618753129537" y="169.17297689186347"/>
      <point x="286.7268611174336" y="169.17297689186347" type="curve" smooth="yes"/>
      <point x="368.0754911630244" y="169.17297689186347"/>
      <point x="464.7976531716925" y="227.14962296363547"/>
      <point x="464.79765660735507" y="362.15255875587934" type="curve" smooth="yes"/>
      <point x="464.79765660735507" y="482.05210249772597"/>
      <point x="377.7468133999187" y="545.5087126567389"/>
    </contour>
  </outline>
</glyph>
<glyph name="uni006B" format="2">
  <advance width="497"/>
  <unicode hex="006B"/>
  <anchor x="261" y="-2" name="bottom"/>
  <outline>
    <contour>
      <point x="68.6250524385186" y="0.07739554720163708" type="line"/>
      <point x="68.6250524385186" y="727.3047239705434" type="line"/>
      <point x="115.05003907284042" y="727.3047239705434" type="line"/>
      <point x="115.05003907284042" y="0.07739554720163708" type="line"/>
    </contour>
    <contour>
      <point x="490.20991079217043" y="0.07739554720163708" type="line"/>
      <point x="423.18904805070196" y="0.07739554720163708" type="line"/>
      <point x="104.48854579566462" y="308.71117331283335" type="line"/>
      <point x="104.48854579566462" y="326.53496602202836" type="line"/>
      <point x="416.4323624535764" y="577.903509384459" type="line"/>
      <point x="489.6069325235016" y="577.903509384459" type="line"/>
      <point x="145.14229940560088" y="304.40937160105096" type="line"/>
      <point x="146.13544765729407" y="335.23547952756104" type="line"/>
    </contour>
  </outline>
</glyph>
<glyph name="uni006F" format="2">
  <advance width="681"/>
  <unicode hex="006F"/>
  <anchor x="340" y="578" name="top"/>
  <outline>
    <contour>
      <point x="47.623792910555935" y="288.830975427733" type="curve" smooth="yes"/>
      <point x="47.623792910555935" y="451.7488375385901"/>
      <point x="182.10380758898998" y="591.2808122568877"/>
      <point x="340.3584131827758" y="591.2808122568877" type="curve" smooth="yes"/>
      <point x="517.5869178634484" y="591.2808122568877"/>
      <point x="633.0930334549955" y="451.74883753859024"/>
      <point x="633.0930334549954" y="288.8309754277325" type="curve" smooth="yes"/>
      <point x="633.0930334549954" y="125.86192822854144"/>
      <point x="498.662738775717" y="-13.80287350483826"/>
      <point x="340.3584131827757" y="-13.802873504838217" type="curve" smooth="yes"/>
      <point x="163.0742273352261" y="-13.802873504838217"/>
      <point x="47.62379291055589" y="125.86192822854146"/>
    </contour>
    <contour>
      <point x="101.14531800336837" y="288.9022425350492" type="curve" smooth="yes"/>
      <point x="101.14531800336837" y="137.7183442110228"/>
      <point x="204.52186797340283" y="31.347093282954745"/>
      <point x="340.35841318277596" y="31.34709328295477" type="curve" smooth="yes"/>
      <point x="476.19495697012155" y="31.34709328295477"/>
      <point x="579.5715068151925" y="137.71834820549918"/>
      <point x="579.5715083621831" y="288.9022425350486" type="curve" smooth="yes"/>
      <point x="579.5715083621831" y="439.98265802489834"/>
      <point x="476.1019805629037" y="546.130845469095"/>
      <point x="340.35841318277596" y="546.1308454690949" type="curve"/>
      <point x="203.5964963486491" y="546.1308454690949"/>
      <point x="101.14531942425629" y="427.7624435220986"/>
    </contour>
  </outline>
</glyph>
<glyph name="uni0073" format="2">
  <advance width="466"/>
  <unicode hex="0073"/>
  <anchor x="237" y="576" name="top"/>
  <anchor x="228" y="-2" name="bottom"/>
  <outline>
    <contour>
      <point x="411.2509738926739" y="522.6471644365117" type="curve"/>
      <point x="383.9656382264084" y="490.1483914558873" type="line"/>
      <point x="350.06336159450234" y="517.6340209753866"/>
      <point x="298.6126523727186" y="544.3423159556264"/>
      <point x="232.2001149203142" y="544.3423159556265" type="curve" smooth="yes"/>
      <point x="130.36734402549882" y="544.3423159556265"/>
      <point x="91.96032733379005" y="490.33263813531374"/>
      <point x="91.96032733379005" y="440.69711605522855" type="curve" smooth="yes"/>
      <point x="91.96032733379005" y="390.1393818884162"/>
      <point x="122.00231146792282" y="353.02911168268315"/>
      <point x="245.10056776881243" y="317.96242915059105" type="curve" smooth="yes"/>
      <point x="384.6768443726253" y="278.2016955077536"/>
      <point x="418.0367379076937" y="221.59200665398154"/>
      <point x="418.0367379076937" y="150.48076685510057" type="curve" smooth="yes"/>
      <point x="418.0367379076937" y="62.83245464454511"/>
      <point x="347.79811544874906" y="-11.114636247934243"/>
      <point x="223.2999413755343" y="-11.114636247934223" type="curve" smooth="yes"/>
      <point x="149.7866334488769" y="-11.114636247934223"/>
      <point x="76.42815695821841" y="16.241303907276603"/>
      <point x="26.57819496106373" y="63.6581144737308" type="curve"/>
      <point x="55.19838575768998" y="98.20637077269781" type="line"/>
      <point x="94.42712154272745" y="62.59884054248297"/>
      <point x="163.2930700785705" y="33.417633154690506"/>
      <point x="225.0996170233019" y="33.41763315469051" type="curve" smooth="yes"/>
      <point x="313.6070601173392" y="33.41763315469051"/>
      <point x="369.4420457653191" y="84.15714409867319"/>
      <point x="369.44204576531905" y="145.45751511577308" type="curve" smooth="yes"/>
      <point x="369.44204576531905" y="199.86046289762493"/>
      <point x="345.5367937101485" y="240.40497599567107"/>
      <point x="228.40359574381864" y="274.68498085101663" type="curve" smooth="yes"/>
      <point x="97.8860230221099" y="312.88203432764243"/>
      <point x="43.926706595755206" y="360.6491724770333"/>
      <point x="43.92670659575519" y="436.56356467432374" type="curve" smooth="yes"/>
      <point x="43.92670659575519" y="520.374213500101"/>
      <point x="105.12856664810892" y="588.3097935848035"/>
      <point x="237.46405528394195" y="588.3097935848035" type="curve" smooth="yes"/>
      <point x="314.88722380615417" y="588.3097935848035"/>
      <point x="371.6415820527896" y="558.4704733202527"/>
    </contour>
  </outline>
</glyph>
<glyph name="uni0076" format="2">
  <advance width="568"/>
  <unicode hex="0076"/>
  <anchor x="284" y="577.8261138372574" name="top"/>
  <anchor x="284" y="-145" name="bottom"/>
  <outline>
    <contour>
      <point x="502.7835639358402" y="577.8261138372574" type="line"/>
      <point x="554.3732524307568" y="577.8261138372574" type="line"/>
      <point x="306.51664680151777" y="-0.4646633229338691" type="line"/>
      <point x="269.62558151170646" y="-0.4646633229338691" type="line"/>
      <point x="13.445617099563158" y="577.8261138372574" type="line"/>
      <point x="68.65747938042655" y="577.8261138372574" type="line"/>
      <point x="305.48434724628794" y="40.97423534334167" type="line"/>
      <point x="270.318164096307" y="40.718171931761695" type="line"/>
    </contour>
  </outline>
</glyph>
<glyph name="uni0078" format="2">
  <advance width="511"/>
  <unicode hex="0078"/>
  <anchor x="255" y="577.8261138372574" name="top"/>
  <anchor x="255" y="-145" name="bottom"/>
  <outline>
    <contour>
      <point x="502.09088461136105" y="0.0" type="line"/>
      <point x="447.3117030594913" y="0.0" type="line"/>
      <point x="249.07526785924358" y="282.07408066984004" type="line"/>
      <point x="260.03451956236245" y="282.07408066984004" type="line"/>
      <point x="67.41854542562919" y="0.0" type="line"/>
      <point x="8.426694519054317" y="0.0" type="line"/>
      <point x="233.06747381112243" y="317.611829401888" type="line"/>
      <point x="233.06747381112243" y="293.0522738907579" type="line"/>
      <point x="18.96873713285496" y="577.8261138372574" type="line"/>
      <point x="81.47476285722658" y="577.8261138372574" type="line"/>
      <point x="264.2647110044505" y="323.45569873374586" type="line"/>
      <point x="245.028460729996" y="323.45569873374586" type="line"/>
      <point x="434.0252132976176" y="577.8261138372574" type="line"/>
      <point x="492.4532452515347" y="577.8261138372574" type="line"/>
      <point x="284.5185376772409" y="301.97283975779686" type="line"/>
      <point x="284.5185376772409" y="312.7167515080236" type="line"/>
    </contour>
  </outline>
</glyph>
<glyph name="uni0079" format="2">
  <advance width="531"/>
  <unicode hex="0079"/>
  <anchor x="265" y="578" name="top"/>
  <outline>
    <contour>
      <point x="465.4635751220191" y="577.8705566475887" type="line"/>
      <point x="517.2534955740172" y="577.8261138372574" type="line"/>
      <point x="181.7435874517703" y="-99.75886461632912" type="line"/>
      <point x="126.33015726294495" y="-99.75886461632912" type="line"/>
      <point x="256.5533165544483" y="159.48075500885554" type="line"/>
      <point x="258.17001507267025" y="111.94070750023691" type="line"/>
      <point x="10.004095620575967" y="577.8261138372574" type="line"/>
      <point x="64.31217812633098" y="577.7816710269259" type="line"/>
      <point x="277.0449497567474" y="181.2156107620819" type="line"/>
      <point x="262.49376261843094" y="176.2754030108865" type="line"/>
    </contour>
  </outline>
</glyph>
<glyph name="uni007A" format="2">
  <advance width="486"/>
  <unicode hex="007A"/>
  <anchor x="251" y="577" name="top"/>
  <outline>
    <contour>
      <point x="403.60069354368915" y="558.62364349497" type="line"/>
      <point x="425.7493987173259" y="534.1481144259519" type="line"/>
      <point x="31.295612348388175" y="534.1481144259519" type="line"/>
      <point x="31.295612348388175" y="577.8261138372574" type="line"/>
      <point x="448.6817091883849" y="577.8261138372574" type="line"/>
      <point x="448.6817091883849" y="536.8682613489003" type="line"/>
      <point x="83.51484968053744" y="25.91044481968787" type="line"/>
      <point x="75.73211881699618" y="42.268355877216486" type="line"/>
      <point x="457.1892257738677" y="42.268355877216486" type="line"/>
      <point x="457.1892257738677" y="0.0" type="line"/>
      <point x="27.883439265468244" y="0.0" type="line"/>
      <point x="27.883439265468244" y="28.71616686729915" type="line"/>
    </contour>
  </outline>
</glyph>
<glyph name="uni007B" format="2">
  <advance width="310"/>
  <unicode hex="007B"/>
  <outline>
    <contour>
      <point x="130.87191885798813" y="674.4552718966692" type="curve" smooth="yes"/>
      <point x="130.87191885798813" y="751.0425655150415"/>
      <point x="171.398181212169" y="817.4534337881729"/>
      <point x="309.7432392482969" y="830.5669352110078" type="curve"/>
      <point x="309.743239248297" y="794.9403390407809" type="line"/>
      <point x="117.63893215391619" y="760.5457925575015"/>
      <point x="200.95874543566055" y="621.6636368736642"/>
      <point x="200.95874543566055" y="471.16892459460166" type="curve" smooth="yes"/>
      <point x="200.95874543566057" y="404.93575639966247"/>
      <point x="172.41431523513626" y="335.8799008108808"/>
      <point x="68.2593113000472" y="296.4805174765146" type="curve"/>
      <point x="68.25931130004574" y="334.7404424096937" type="line"/>
      <point x="175.75885760293477" y="294.07589751943146"/>
      <point x="204.15762425128895" y="230.39947782364715"/>
      <point x="204.15762425128895" y="157.06510993555082" type="curve" smooth="yes"/>
      <point x="204.15762425128895" y="1.7864680926465724"/>
      <point x="118.49101790713758" y="-129.4773909531507"/>
      <point x="309.743239248297" y="-163.71937915447293" type="curve"/>
      <point x="309.7432392482969" y="-199.34597532469965" type="line"/>
      <point x="167.5204714175805" y="-185.86491214266263"/>
      <point x="131.30552465522328" y="-118.89019723618316"/>
      <point x="131.30552465522328" y="-39.46511551613539" type="curve" smooth="yes"/>
      <point x="131.30552465522325" y="116.44322516038767"/>
      <point x="224.58318177746503" y="290.34616740048324"/>
      <point x="1.7432296721274365" y="290.34616740048324" type="curve"/>
      <point x="1.7432296721274156" y="340.8747924858249" type="line"/>
      <point x="228.84699531853093" y="340.8747924858249"/>
      <point x="130.87191885798813" y="505.703929205765"/>
    </contour>
  </outline>
</glyph>
<glyph name="uni007D" format="2">
  <advance width="310"/>
  <unicode hex="007D"/>
  <outline>
    <contour>
      <point x="178.871320390309" y="-43.234312010360995" type="curve" smooth="yes"/>
      <point x="178.871320390309" y="-119.82160562873328"/>
      <point x="138.34505803612814" y="-186.23247390186464"/>
      <point x="2.0940056890959373e-13" y="-199.34597532469965" type="curve"/>
      <point x="1.2564034134575624e-13" y="-163.71937915447276" type="line"/>
      <point x="192.10430709438089" y="-129.3248326711933"/>
      <point x="108.7844938126366" y="9.557323012643991"/>
      <point x="108.78449381263651" y="160.05203529170646" type="curve" smooth="yes"/>
      <point x="108.78449381263647" y="226.28520348664568"/>
      <point x="137.32892401316082" y="295.34105907542727"/>
      <point x="241.48392794824989" y="334.74044240979356" type="curve"/>
      <point x="241.4839279482513" y="296.48051747661447" type="line"/>
      <point x="133.9843816453623" y="337.1450623668767"/>
      <point x="105.5856149970081" y="400.821482062661"/>
      <point x="105.58561499700811" y="474.15584995075733" type="curve" smooth="yes"/>
      <point x="105.58561499700807" y="629.4344917936616"/>
      <point x="191.25222134115944" y="760.6983508394588"/>
      <point x="0.0" y="794.940339040781" type="curve"/>
      <point x="8.376022756383749e-14" y="830.5669352110078" type="line"/>
      <point x="142.22276783071652" y="817.0858720289708"/>
      <point x="178.4377145930737" y="750.1111571224914"/>
      <point x="178.43771459307376" y="670.6860754024435" type="curve" smooth="yes"/>
      <point x="178.4377145930738" y="514.7777347259205"/>
      <point x="85.16005747083206" y="340.8747924858249"/>
      <point x="308.00000957616965" y="340.8747924858249" type="curve"/>
      <point x="308.00000957616965" y="290.34616740048324" type="line"/>
      <point x="80.89624392976614" y="290.34616740048324"/>
      <point x="178.871320390309" y="125.51703068054314"/>
    </contour>
  </outline>
</glyph>
<glyph name="uni007E" format="2">
  <advance width="612"/>
  <unicode hex="007E"/>
  <outline>
    <contour>
      <point x="196.2619135626953" y="499.3822822114311" type="curve" smooth="yes"/>
      <point x="239.22014783612556" y="499.3822822114311"/>
      <point x="267.54003002373133" y="472.79052264681906"/>
      <point x="314.74126551448376" y="414.57424945664565" type="curve" smooth="yes"/>
      <point x="355.26180469267985" y="364.5977021462862"/>
      <point x="376.4484915306567" y="328.22422273747634"/>
      <point x="412.66658981743615" y="328.22422273747634" type="curve" smooth="yes"/>
      <point x="450.2205920638926" y="328.22422273747634"/>
      <point x="480.24415926142365" y="379.669028909557"/>
      <point x="503.12066915063144" y="493.80797815522584" type="curve"/>
      <point x="546.8025399141926" y="486.56222179907707" type="line"/>
      <point x="526.7905090274596" y="337.63848569095353"/>
      <point x="472.9760101784575" y="273.64945013690334"/>
      <point x="412.66658981743615" y="273.64945013690334" type="curve" smooth="yes"/>
      <point x="371.60618795437745" y="273.64945013690334"/>
      <point x="337.0724054867105" y="312.44307120541896"/>
      <point x="290.17271384046353" y="368.27275983372095" type="curve" smooth="yes"/>
      <point x="253.5426558153224" y="411.87741185159666"/>
      <point x="228.94533599515017" y="446.31125965703006"/>
      <point x="196.2619135626953" y="446.31125965703" type="curve"/>
      <point x="144.21522365689154" y="446.31125965703"/>
      <point x="115.48517350423431" y="377.947151501746"/>
      <point x="96.40700619498506" y="260.0512673988107" type="curve"/>
      <point x="49.49840620976867" y="272.00105816728313" type="line"/>
      <point x="67.68768753467707" y="397.4528526007678"/>
      <point x="110.31088346264053" y="499.38228221143106"/>
    </contour>
  </outline>
</glyph>
<glyph name="uni00A1" format="2">
  <advance width="227"/>
  <unicode hex="00A1"/>
  <outline>
    <contour>
      <point x="138.19365171744698" y="-135.4731874714784" type="line"/>
      <point x="88.882519375264" y="-135.4731874714784" type="line"/>
      <point x="88.88251937526391" y="388.7838413407389" type="line"/>
      <point x="138.1936517174469" y="388.7838413407389" type="line"/>
    </contour>
    <contour>
      <point x="113.5380855463554" y="490.56534644438665" type="curve" smooth="yes"/>
      <point x="86.62337521377574" y="490.56534644438665"/>
      <point x="64.48669084529314" y="508.5739870584442"/>
      <point x="64.48669084529314" y="536.7144029042014" type="curve" smooth="yes"/>
      <point x="64.48669084529314" y="564.8548187499588"/>
      <point x="86.62337521377566" y="582.8634593640163"/>
      <point x="113.53808554635532" y="582.8634593640163" type="curve" smooth="yes"/>
      <point x="140.45279587893498" y="582.8634593640163"/>
      <point x="162.58948024741755" y="564.8548187499588"/>
      <point x="162.58948024741764" y="536.7144029042014" type="curve" smooth="yes"/>
      <point x="162.58948024741764" y="508.5739870584442"/>
      <point x="140.45279587893506" y="490.56534644438665"/>
    </contour>
  </outline>
</glyph>
<glyph name="uni00A3" format="2">
  <advance width="509"/>
  <unicode hex="00A3"/>
  <outline>
    <contour>
      <point x="105.71316671818025" y="535.2098764848593" type="line"/>
      <point x="131.52486381889597" y="552.0278328727497" type="line"/>
      <point x="154.69994496083325" y="526.906502033896" type="line"/>
      <point x="154.69994496083325" y="-0.4629258721517405" type="line"/>
      <point x="105.71316671818025" y="-0.4629258721517405" type="line"/>
    </contour>
    <contour>
      <point x="9.713359491495686" y="41.62646947453713" type="line"/>
      <point x="498.4684771496644" y="41.62646947453713" type="line"/>
      <point x="498.4684771496644" y="-0.4629258721517405" type="line"/>
      <point x="9.713359491495686" y="-0.4629258721517405" type="line"/>
    </contour>
    <contour>
      <point x="9.713359491495686" y="379.6649605410165" type="line"/>
      <point x="367.2950370698869" y="379.6649605410165" type="line"/>
      <point x="367.2950370698869" y="337.5755651943276" type="line"/>
      <point x="9.713359491495686" y="337.5755651943276" type="line"/>
    </contour>
    <contour>
      <point x="316.64867121608904" y="730.3276417953354" type="curve" smooth="yes"/>
      <point x="391.4249314309138" y="730.3276417953354"/>
      <point x="446.5253623083919" y="708.5158266162098"/>
      <point x="510.7501509384802" y="660.6826853637731" type="curve"/>
      <point x="483.2866353827993" y="620.5899380253196" type="line"/>
      <point x="426.1734494332011" y="666.2946193147694"/>
      <point x="380.7477916285176" y="682.5651926240489"/>
      <point x="316.64867121608904" y="682.5651926240489" type="curve" smooth="yes"/>
      <point x="220.02002913766" y="682.5651926240489"/>
      <point x="154.69994496083325" y="626.4805154260814"/>
      <point x="154.69994496083325" y="526.906502033896" type="curve"/>
      <point x="105.71316671818025" y="535.2098764848593" type="line"/>
      <point x="105.71316671818025" y="660.3259797640299"/>
      <point x="200.27720631154955" y="730.3276417953354"/>
    </contour>
  </outline>
</glyph>
<glyph name="uni00A7" format="2">
  <advance width="568"/>
  <unicode hex="00A7"/>
  <outline>
    <contour>
      <point x="504.19381293321084" y="662.1156715459064" type="curve"/>
      <point x="473.84437899940787" y="620.5218283063823" type="line"/>
      <point x="419.3817805394294" y="664.0495620586147"/>
      <point x="355.4919790627607" y="688.9608537791554"/>
      <point x="282.8895050484287" y="688.9608537791554" type="curve" smooth="yes"/>
      <point x="187.4676431623795" y="688.9608537791554"/>
      <point x="139.26940378415674" y="644.0816991776903"/>
      <point x="139.2694037841568" y="600.8001327676684" type="curve" smooth="yes"/>
      <point x="139.2694037841568" y="560.273849680746"/>
      <point x="155.00879115810474" y="513.2475460616416"/>
      <point x="298.16283356416176" y="479.49420255506885" type="curve" smooth="yes"/>
      <point x="475.17050677798244" y="437.75873566312964"/>
      <point x="513.2169890635112" y="378.1888791884395"/>
      <point x="513.2169890635112" y="302.94817594849724" type="curve" smooth="yes"/>
      <point x="513.2169890635112" y="235.8644581606439"/>
      <point x="468.37828906864684" y="188.31537994595004"/>
      <point x="412.0248690134377" y="151.1818405369564" type="curve"/>
      <point x="371.6324967614707" y="183.61520465457826" type="line"/>
      <point x="418.2214058325257" y="211.453499831464"/>
      <point x="462.43318133648467" y="243.65206112153373"/>
      <point x="462.43318133648467" y="297.6264321358753" type="curve" smooth="yes"/>
      <point x="462.43318133648467" y="352.0680502126118"/>
      <point x="442.72857332158793" y="396.85964091532026"/>
      <point x="274.88027254918256" y="433.7198732976992" type="curve" smooth="yes"/>
      <point x="136.92362649242315" y="464.01576553458847"/>
      <point x="85.35039803216853" y="523.0879157011645"/>
      <point x="85.35039803216858" y="599.0863527211317" type="curve" smooth="yes"/>
      <point x="85.35039803216858" y="674.915504410099"/>
      <point x="155.07704029231286" y="736.1772984797535"/>
      <point x="288.8740934513967" y="736.1772984797534" type="curve" smooth="yes"/>
      <point x="370.698634800213" y="736.1772984797534"/>
      <point x="448.7115772504966" y="711.7002283183675"/>
    </contour>
    <contour>
      <point x="220.2235381348239" y="462.69002827062866" type="line"/>
      <point x="151.09755518116958" y="437.821854755553"/>
      <point x="106.1273695661629" y="394.79096712905636"/>
      <point x="106.12736956616291" y="347.62684643981504" type="curve" smooth="yes"/>
      <point x="106.12736956616291" y="304.3800507967552"/>
      <point x="124.95859180162542" y="257.1516713626338"/>
      <point x="276.51445789534085" y="221.13247992166515" type="curve" smooth="yes"/>
      <point x="449.4779909385532" y="180.02548241925615"/>
      <point x="491.6660968259683" y="127.66609797472574"/>
      <point x="491.6660968259683" y="53.558399403342115" type="curve" smooth="yes"/>
      <point x="491.6660968259683" y="-40.80313430041442"/>
      <point x="417.35738235678537" y="-108.82350109438286"/>
      <point x="281.4393638772265" y="-108.82350109438288" type="curve"/>
      <point x="189.12915487755043" y="-108.82350109438288"/>
      <point x="108.68973989828078" y="-76.19389476976629"/>
      <point x="46.53720938878397" y="-15.070530873301895" type="curve"/>
      <point x="81.06570186672742" y="28.14474856959298" type="line"/>
      <point x="128.40190342584012" y="-20.97752592061828"/>
      <point x="206.77264606791988" y="-59.984378437460165"/>
      <point x="288.2280616333943" y="-59.98437843746015" type="curve" smooth="yes"/>
      <point x="373.53882665490664" y="-59.98437843746015"/>
      <point x="438.89709216494845" y="-19.039708519643213"/>
      <point x="438.89709216494845" y="48.19423611372427" type="curve" smooth="yes"/>
      <point x="438.89709216494845" y="101.28001165508394"/>
      <point x="415.60573823936113" y="138.9407880888724"/>
      <point x="253.23189688036166" y="174.88303396215315" type="curve" smooth="yes"/>
      <point x="109.58520938307294" y="206.6799325124242"/>
      <point x="51.263560094944296" y="263.15642374660985"/>
      <point x="51.26356009494434" y="342.92019412867637" type="curve" smooth="yes"/>
      <point x="51.26356009494434" y="408.8232505022527"/>
      <point x="96.2176004269927" y="462.97908647810283"/>
      <point x="173.4610424118732" y="494.20319671160246" type="curve"/>
    </contour>
  </outline>
</glyph>
<glyph name="uni00A8" format="2">
  <advance width="453"/>
  <unicode hex="00A8"/>
  <outline>
    <contour>
      <point x="68.58405149388362" y="700.8353532258255" type="curve" smooth="yes"/>
      <point x="68.58405149388362" y="725.8588589636383"/>
      <point x="85.28435088194814" y="740.8891672219255"/>
      <point x="111.31981324603473" y="740.8891672219255" type="curve" smooth="yes"/>
      <point x="137.3552756101214" y="740.8891672219255"/>
      <point x="154.05557499818582" y="725.8588589636383"/>
      <point x="154.05557499818585" y="700.8353532258255" type="curve" smooth="yes"/>
      <point x="154.05557499818585" y="675.8118474880124"/>
      <point x="137.35835918187365" y="660.7815392297254"/>
      <point x="111.31981324603473" y="660.7815392297254" type="curve" smooth="yes"/>
      <point x="85.28435088194814" y="660.7815392297254"/>
      <point x="68.58405149388362" y="675.8118474880124"/>
    </contour>
    <contour>
      <point x="299.078262852291" y="700.8353532258255" type="curve" smooth="yes"/>
      <point x="299.078262852291" y="725.8588589636383"/>
      <point x="315.77856224035554" y="740.8891672219255"/>
      <point x="341.81402460444207" y="740.8891672219255" type="curve" smooth="yes"/>
      <point x="367.8494869685287" y="740.8891672219255"/>
      <point x="384.5497863565932" y="725.8588589636383"/>
      <point x="384.5497863565932" y="700.8353532258255" type="curve" smooth="yes"/>
      <point x="384.5497863565932" y="675.8118474880124"/>
      <point x="367.85257054028096" y="660.7815392297254"/>
      <point x="341.81402460444207" y="660.7815392297254" type="curve" smooth="yes"/>
      <point x="315.7785622403555" y="660.7815392297254"/>
      <point x="299.07826285229095" y="675.8118474880124"/>
    </contour>
  </outline>
</glyph>
<glyph name="uni00A9" format="2">
  <advance width="830"/>
  <unicode hex="00A9"/>
  <outline>
    <contour>
      <point x="48.15156127102301" y="364.4035398007608" type="curve" smooth="yes"/>
      <point x="48.15156127102297" y="576.660418926862"/>
      <point x="207.16719253926573" y="740.2258045635838"/>
      <point x="415.21670791203564" y="740.2258045635838" type="curve" smooth="yes"/>
      <point x="627.4909929843133" y="740.2258045635839"/>
      <point x="782.2818545530486" y="576.6604189268622"/>
      <point x="782.2818545530487" y="364.4035398007603" type="curve" smooth="yes"/>
      <point x="782.2818545530487" y="152.14666067465888"/>
      <point x="623.266223284806" y="-11.418724962062925"/>
      <point x="415.2167079120356" y="-11.41872496206292" type="curve" smooth="yes"/>
      <point x="202.59787077739642" y="-11.41872496206292"/>
      <point x="48.15156127102301" y="152.14666067465888"/>
    </contour>
    <contour>
      <point x="562.447368946607" y="558.5988056531157" type="curve"/>
      <point x="540.0450833887635" y="522.5221804410355" type="line"/>
      <point x="513.2500230540529" y="546.2747115868481"/>
      <point x="464.91591855286464" y="558.3605422602567"/>
      <point x="433.51840812819074" y="558.3605422602567" type="curve" smooth="yes"/>
      <point x="317.945033534562" y="558.3605422602567"/>
      <point x="254.66265455416766" y="477.501714590303"/>
      <point x="254.66265403169717" y="374.72192845507846" type="curve" smooth="yes"/>
      <point x="254.6626534824326" y="266.6713726440524"/>
      <point x="324.66244847824726" y="187.0647686751046"/>
      <point x="433.81460345938086" y="187.0647686751046" type="curve" smooth="yes"/>
      <point x="471.3998302216424" y="187.0647686751046"/>
      <point x="509.2115202479097" y="202.49773228564177"/>
      <point x="535.612588422222" y="219.4577118928684" type="curve"/>
      <point x="557.8916711520673" y="181.23410404302" type="line"/>
      <point x="513.9484674849515" y="150.0376832663734"/>
      <point x="470.12818678640156" y="141.7564746263797"/>
      <point x="432.6906456902848" y="141.7564746263797" type="curve" smooth="yes"/>
      <point x="287.80009361175087" y="141.7564746263797"/>
      <point x="205.72184992369938" y="251.28582608393367"/>
      <point x="205.72184992369935" y="374.647077377294" type="curve" smooth="yes"/>
      <point x="205.72184992369935" y="498.95288115615836"/>
      <point x="288.39828759167426" y="604.2618250055643"/>
      <point x="438.4940589512955" y="604.2618250055643" type="curve" smooth="yes"/>
      <point x="480.900136299901" y="604.2618250055643"/>
      <point x="533.2853315959283" y="587.5031338634825"/>
    </contour>
    <contour>
      <point x="93.96643831431817" y="364.40353980076065" type="curve" smooth="yes"/>
      <point x="93.96643831431817" y="165.38623112714862"/>
      <point x="237.55079218361635" y="33.315243900836606"/>
      <point x="415.21670791203593" y="33.31524390083662" type="curve" smooth="yes"/>
      <point x="592.8826217805308" y="33.31524390083662"/>
      <point x="736.4669754863842" y="165.38623638544652"/>
      <point x="736.4669775097533" y="364.4035398007598" type="curve" smooth="yes"/>
      <point x="736.4669775097533" y="563.4208484743718"/>
      <point x="592.8826236404556" y="695.4918357006841"/>
      <point x="415.21670791203593" y="695.4918357006841" type="curve" smooth="yes"/>
      <point x="237.55079404354132" y="695.4918357006841"/>
      <point x="93.9664403376874" y="563.4208432160742"/>
    </contour>
  </outline>
</glyph>
<glyph name="uni00AE" format="2">
  <advance width="830"/>
  <unicode hex="00AE"/>
  <outline>
    <contour>
      <point x="48.15156127102301" y="364.4035398007608" type="curve" smooth="yes"/>
      <point x="48.15156127102297" y="576.660418926862"/>
      <point x="207.16719253926573" y="740.2258045635838"/>
      <point x="415.21670791203564" y="740.2258045635838" type="curve" smooth="yes"/>
      <point x="627.4909929843133" y="740.2258045635839"/>
      <point x="782.2818545530486" y="576.6604189268622"/>
      <point x="782.2818545530487" y="364.4035398007603" type="curve" smooth="yes"/>
      <point x="782.2818545530487" y="152.14666067465888"/>
      <point x="623.266223284806" y="-11.418724962062925"/>
      <point x="415.2167079120356" y="-11.41872496206292" type="curve" smooth="yes"/>
      <point x="202.59787077739642" y="-11.41872496206292"/>
      <point x="48.15156127102301" y="152.14666067465888"/>
    </contour>
    <contour>
      <point x="269.013991560095" y="597.3413923533756" type="line"/>
      <point x="312.42596279378927" y="597.3413923533756" type="line"/>
      <point x="312.42596279378927" y="149.26528830224441" type="line"/>
      <point x="269.013991560095" y="149.26528830224441" type="line"/>
    </contour>
    <contour>
      <point x="447.48954078080845" y="332.73558140885" type="curve" smooth="yes"/>
      <point x="296.88442978961865" y="332.73558140885" type="line"/>
      <point x="296.88442978961865" y="372.5630134245624" type="line"/>
      <point x="443.18359578684624" y="372.5630134245624" type="line" smooth="yes"/>
      <point x="509.56533883749233" y="372.5630134245624"/>
      <point x="555.3631725786647" y="406.0547138432038"/>
      <point x="555.3631728907009" y="467.43814059149753" type="curve" smooth="yes"/>
      <point x="555.3631732016867" y="528.614825372309"/>
      <point x="500.65498848813854" y="557.7623710935144"/>
      <point x="446.0415893056744" y="557.7623710935145" type="curve" smooth="yes"/>
      <point x="296.88442978961865" y="557.7623710935145" type="line"/>
      <point x="296.88442978961865" y="597.3413923533756" type="line"/>
      <point x="452.20579147482385" y="597.3413923533756" type="line" smooth="yes"/>
      <point x="535.6101060426929" y="597.3413923533756"/>
      <point x="597.3531957286026" y="548.0835957721821"/>
      <point x="597.3531957286026" y="473.90453755353894" type="curve" smooth="yes"/>
      <point x="597.3531957286026" y="378.49008946938636"/>
      <point x="528.5424349484639" y="332.73558140885"/>
    </contour>
    <contour>
      <point x="392.90102542228357" y="349.875634969796" type="line"/>
      <point x="444.08290228657063" y="349.875634969796" type="line"/>
      <point x="609.2490217485326" y="147.33942987762808" type="line"/>
      <point x="554.0874624037644" y="147.33942987762808" type="line"/>
    </contour>
    <contour>
      <point x="93.96643831431817" y="364.40353980076065" type="curve" smooth="yes"/>
      <point x="93.96643831431817" y="165.38623112714862"/>
      <point x="237.55079218361635" y="33.315243900836606"/>
      <point x="415.21670791203593" y="33.31524390083662" type="curve" smooth="yes"/>
      <point x="592.8826217805308" y="33.31524390083662"/>
      <point x="736.4669754863842" y="165.38623638544652"/>
      <point x="736.4669775097533" y="364.4035398007598" type="curve" smooth="yes"/>
      <point x="736.4669775097533" y="563.4208484743718"/>
      <point x="592.8826236404556" y="695.4918357006841"/>
      <point x="415.21670791203593" y="695.4918357006841" type="curve" smooth="yes"/>
      <point x="237.55079404354132" y="695.4918357006841"/>
      <point x="93.9664403376874" y="563.4208432160742"/>
    </contour>
  </outline>
</glyph>
<glyph name="uni00AF" format="2">
  <advance width="512"/>
  <unicode hex="00AF"/>
  <outline>
    <contour>
      <point x="68.6250524385186" y="727.3047239705434" type="line"/>
      <point x="443.76665574922964" y="727.3047239705434" type="line"/>
      <point x="443.76665574922964" y="682.616645415717" type="line"/>
      <point x="68.6250524385186" y="682.616645415717" type="line"/>
    </contour>
  </outline>
</glyph>
<glyph name="uni00B6" format="2">
  <advance width="592"/>
  <unicode hex="00B6"/>
  <outline>
    <contour>
      <point x="337.9728831132068" y="727.3047239705434" type="line"/>
      <point x="387.80938888502294" y="727.3047239705434" type="line"/>
      <point x="387.80938888502294" y="-99.75886461632912" type="line"/>
      <point x="337.9728831132068" y="-99.75886461632912" type="line"/>
    </contour>
    <contour>
      <point x="283.04420516907027" y="727.3047239705434" type="curve" smooth="yes"/>
      <point x="500.41632762508135" y="727.3047239705434" type="line"/>
      <point x="500.41632762508135" y="682.1420370112226" type="line"/>
      <point x="290.03794449209" y="682.1420370112226" type="line" smooth="yes"/>
      <point x="170.9162115814774" y="682.1420370112226"/>
      <point x="90.51231580336778" y="619.9585964907823"/>
      <point x="90.51231524342012" y="509.80631921976226" type="curve" smooth="yes"/>
      <point x="90.51231469409089" y="401.7430370555012"/>
      <point x="188.92616570504222" y="352.4314282174692"/>
      <point x="285.3959758451167" y="352.4314282174692" type="curve" smooth="yes"/>
      <point x="362.89113599911485" y="352.4314282174692" type="line"/>
      <point x="362.89113599911485" y="305.83663498373016" type="line"/>
      <point x="279.7482289630345" y="305.83663498373016" type="line" smooth="yes"/>
      <point x="142.32977117206372" y="305.83663498373016"/>
      <point x="39.563129083494346" y="385.76821770755674"/>
      <point x="39.56312908349436" y="507.9869762167184" type="curve" smooth="yes"/>
      <point x="39.56312908349436" y="659.8535343643069"/>
      <point x="154.0362371694417" y="727.3047239705434"/>
    </contour>
    <contour>
      <point x="473.6445312221137" y="727.3047239705434" type="line"/>
      <point x="523.4810369939298" y="727.3047239705434" type="line"/>
      <point x="523.4810369939298" y="-99.75886461632912" type="line"/>
      <point x="473.6445312221137" y="-99.75886461632912" type="line"/>
    </contour>
  </outline>
</glyph>
<glyph name="uni00B7" format="2">
  <advance width="240"/>
  <unicode hex="00B7"/>
  <outline>
    <contour>
      <point x="119.84928535359492" y="417.2989804897904" type="curve" smooth="yes"/>
      <point x="148.00334808679833" y="417.2989804897904"/>
      <point x="171.15936918879643" y="397.9040058673485"/>
      <point x="171.15936918879643" y="367.5972957224756" type="curve" smooth="yes"/>
      <point x="171.15936918879643" y="337.2905855776026"/>
      <point x="148.00334808679833" y="317.8956109551607"/>
      <point x="119.84928535359492" y="317.8956109551607" type="curve" smooth="yes"/>
      <point x="91.69522262039152" y="317.8956109551607"/>
      <point x="68.53920151839341" y="337.2905855776026"/>
      <point x="68.53920151839343" y="367.5972957224756" type="curve" smooth="yes"/>
      <point x="68.53920151839343" y="397.9040058673485"/>
      <point x="91.69522262039153" y="417.2989804897904"/>
    </contour>
  </outline>
</glyph>
<glyph name="uni00B8" format="2">
  <advance width="217"/>
  <unicode hex="00B8"/>
  <outline>
    <contour>
      <point x="47.70300509948837" y="-127.67125855574174" type="line"/>
      <point x="-4.2245400733851515" y="-127.67125855574174" type="line"/>
      <point x="83.64643445282375" y="27.078560318100156" type="line"/>
      <point x="148.73644082564567" y="27.078560318100156" type="line"/>
    </contour>
  </outline>
</glyph>
<glyph name="uni00BF" format="2">
  <advance width="337"/>
  <unicode hex="00BF"/>
  <outline>
    <contour>
      <point x="273.9546215347771" y="395.47431607850285" type="line"/>
      <point x="295.2886728892869" y="337.2701063671617"/>
      <point x="268.9535825566103" y="249.90594757429565"/>
      <point x="195.55048350763192" y="185.89699532668774" type="curve" smooth="yes"/>
      <point x="113.94585179989909" y="114.73614460186256"/>
      <point x="85.12495987612375" y="72.03094322988106"/>
      <point x="85.1249598761238" y="22.488345361814844" type="curve" smooth="yes"/>
      <point x="85.1249598761238" y="-48.4591758820355"/>
      <point x="149.62873713769966" y="-98.88584047525973"/>
      <point x="234.16443079111863" y="-98.88584047525971" type="curve" smooth="yes"/>
      <point x="322.32938035555014" y="-98.88584047525971"/>
      <point x="382.2360234399003" y="-52.23693402201427"/>
      <point x="417.2858817780554" y="-19.793986015138053" type="curve"/>
      <point x="447.26197067550487" y="-61.88435432820257" type="line"/>
      <point x="398.4651634105529" y="-107.52760706839521"/>
      <point x="327.10147835930024" y="-147.8540308843434"/>
      <point x="230.87222135726225" y="-147.8540308843434" type="curve" smooth="yes"/>
      <point x="122.1222786662472" y="-147.8540308843434"/>
      <point x="33.53209337986746" y="-83.99428942752245"/>
      <point x="33.532093379867476" y="17.952766843255027" type="curve" smooth="yes"/>
      <point x="33.53209337986743" y="87.02192396703057"/>
      <point x="73.8636010407067" y="146.07745569343035"/>
      <point x="149.0578698314784" y="209.25162759555946" type="curve" smooth="yes"/>
      <point x="209.19762997417683" y="259.77781272250235"/>
      <point x="242.63072872278218" y="327.0279356334819"/>
      <point x="235.22883633858288" y="395.47431607850285" type="curve"/>
    </contour>
    <contour>
      <point x="247.79463265622155" y="491.3119693943033" type="curve" smooth="yes"/>
      <point x="220.8799223236419" y="491.3119693943033"/>
      <point x="198.74323795515932" y="509.3206100083608"/>
      <point x="198.74323795515934" y="537.461025854118" type="curve" smooth="yes"/>
      <point x="198.74323795515926" y="565.6014416998754"/>
      <point x="220.87992232364184" y="583.6100823139329"/>
      <point x="247.79463265622147" y="583.6100823139329" type="curve" smooth="yes"/>
      <point x="274.7093429888011" y="583.6100823139329"/>
      <point x="296.8460273572837" y="565.6014416998754"/>
      <point x="296.8460273572838" y="537.461025854118" type="curve" smooth="yes"/>
      <point x="296.8460273572838" y="509.3206100083608"/>
      <point x="274.7093429888012" y="491.3119693943033"/>
    </contour>
  </outline>
</glyph>
<glyph name="uni00C0" format="2">
  <advance width="699"/>
  <unicode hex="00C0"/>
  <anchor x="349" y="727.3047239705434" name="top"/>
  <anchor x="349" y="-145" name="bottom"/>
  <outline>
    <contour>
      <point x="314.09212229787516" y="727.3047239705434" type="line"/>
      <point x="363.3866972949958" y="727.3047239705434" type="line"/>
      <point x="69.63388777544023" y="-0.4629258721517405" type="line"/>
      <point x="12.199244451715254" y="-0.4629258721517405" type="line"/>
    </contour>
    <contour>
      <point x="155.17944339191462" y="261.53266564252806" type="line"/>
      <point x="541.1522063497723" y="261.53266564252806" type="line"/>
      <point x="566.4348942566361" y="219.47209705826955" type="line"/>
      <point x="138.00935365829497" y="219.47209705826955" type="line"/>
    </contour>
    <contour>
      <point x="335.48410089683273" y="727.3047239705434" type="line"/>
      <point x="388.0339847935561" y="727.3047239705434" type="line"/>
      <point x="686.4548427477772" y="-1.014959815270424" type="line"/>
      <point x="627.5282292758918" y="-1.014959815270424" type="line"/>
    </contour>
    <contour>
      <point x="219.7460979045638" y="902.1291089057879" type="line"/>
      <point x="284.83610427738574" y="902.1291089057879" type="line"/>
      <point x="402.1496240563804" y="769.8583224516055" type="line"/>
      <point x="343.0040342742156" y="769.8583224516055" type="line"/>
    </contour>
  </outline>
</glyph>
<glyph name="uni00C3" format="2">
  <advance width="699"/>
  <unicode hex="00C3"/>
  <anchor x="349" y="727.3047239705434" name="top"/>
  <anchor x="349" y="-145" name="bottom"/>
  <outline>
    <contour>
      <point x="314.09212229787516" y="727.3047239705434" type="line"/>
      <point x="363.3866972949958" y="727.3047239705434" type="line"/>
      <point x="69.63388777544023" y="-0.4629258721517405" type="line"/>
      <point x="12.199244451715254" y="-0.4629258721517405" type="line"/>
    </contour>
    <contour>
      <point x="155.17944339191462" y="261.53266564252806" type="line"/>
      <point x="541.1522063497723" y="261.53266564252806" type="line"/>
      <point x="566.4348942566361" y="219.47209705826955" type="line"/>
      <point x="138.00935365829497" y="219.47209705826955" type="line"/>
    </contour>
    <contour>
      <point x="335.48410089683273" y="727.3047239705434" type="line"/>
      <point x="388.0339847935561" y="727.3047239705434" type="line"/>
      <point x="686.4548427477772" y="-1.014959815270424" type="line"/>
      <point x="627.5282292758918" y="-1.014959815270424" type="line"/>
    </contour>
    <contour>
      <point x="275.1974717486527" y="904.8695781441554" type="curve" smooth="yes"/>
      <point x="305.88816224497947" y="904.8695781441554"/>
      <point x="331.1748593599931" y="896.2696808387102"/>
      <point x="364.89688108626575" y="868.243086936119" type="curve" smooth="yes"/>
      <point x="390.54375295846313" y="846.9278031530632"/>
      <point x="411.24831467709953" y="835.7263094352844"/>
      <point x="434.17202065570876" y="835.7263094352844" type="curve" smooth="yes"/>
      <point x="457.10556513896046" y="835.7263094352844"/>
      <point x="481.64064692546543" y="852.9859032020337"/>
      <point x="497.75354855607657" y="896.2947758491331" type="curve"/>
      <point x="532.0482968095639" y="883.6440482895587" type="line"/>
      <point x="517.9617854083757" y="820.6674720696068"/>
      <point x="476.8149783138837" y="792.6387697888804"/>
      <point x="435.0740138815357" y="792.6387697888804" type="curve" smooth="yes"/>
      <point x="405.13704632595176" y="792.6387697888804"/>
      <point x="372.4424890979964" y="806.0508027741778"/>
      <point x="338.2481197427423" y="833.4801517709484" type="curve" smooth="yes"/>
      <point x="317.29753733287555" y="850.2858670814295"/>
      <point x="295.37055375670656" y="858.8663211628007"/>
      <point x="281.4430741707484" y="858.8663211628005" type="curve"/>
      <point x="234.31628120842169" y="858.8663211628005"/>
      <point x="213.6166506359898" y="817.7551931836016"/>
      <point x="204.01476075194284" y="779.8952012582735" type="curve"/>
      <point x="166.7707848906517" y="795.8107473468503" type="line"/>
      <point x="179.77698189857125" y="856.2581088955002"/>
      <point x="213.32811032739272" y="904.8695781441555"/>
    </contour>
  </outline>
</glyph>
<glyph name="uni00C6" format="2">
  <advance width="925"/>
  <unicode hex="00C6"/>
  <anchor x="462" y="727.3047239705434" name="top"/>
  <anchor x="462" y="-145" name="bottom"/>
  <outline>
    <contour>
      <point x="398.5810423671104" y="727.3047239705434" type="line"/>
      <point x="451.7251086859841" y="727.3047239705434" type="line"/>
      <point x="67.58476467478596" y="-0.4629258721517405" type="line"/>
      <point x="10.150121351061008" y="-0.4629258721517405" type="line"/>
    </contour>
    <contour>
      <point x="205.60661358893844" y="261.53266564252806" type="line"/>
      <point x="549.7349835028031" y="261.53266564252806" type="line"/>
      <point x="566.5931680791557" y="219.47209705826955" type="line"/>
      <point x="180.01202052480767" y="219.47209705826955" type="line"/>
    </contour>
    <contour>
      <point x="420.4207017599749" y="727.3047239705434" type="line"/>
      <point x="469.3092333952446" y="727.3047239705434" type="line"/>
      <point x="640.8439214702992" y="-1.014959815270424" type="line"/>
      <point x="587.4469435083819" y="-1.014959815270424" type="line"/>
    </contour>
    <contour>
      <point x="447.8756173642311" y="685.2153286238546" type="line"/>
      <point x="447.8756173642311" y="727.3047239705434" type="line"/>
      <point x="839.1524580504054" y="727.3047239705434" type="line"/>
      <point x="839.1524580504054" y="685.2153286238546" type="line"/>
    </contour>
    <contour>
      <point x="596.3928133630342" y="42.08282808753512" type="line"/>
      <point x="924.9550491841892" y="42.08282808753512" type="line"/>
      <point x="924.9550491841892" y="-0.006567259153755149" type="line"/>
      <point x="596.3928133630342" y="-0.006567259153755149" type="line"/>
    </contour>
    <contour>
      <point x="528.1107098256379" y="406.0113117716281" type="line"/>
      <point x="778.0513861710695" y="406.0113117716281" type="line"/>
      <point x="778.0513861710695" y="363.9219164249392" type="line"/>
      <point x="528.1107098256379" y="363.9219164249392" type="line"/>
    </contour>
  </outline>
</glyph>
<glyph name="uni00C7" format="2">
  <advance width="606"/>
  <unicode hex="00C7"/>
  <anchor x="303" y="727.3047239705434" name="top"/>
  <anchor x="303" y="-145" name="bottom"/>
  <outline>
    <contour>
      <point x="602.3161032117468" y="666.5439706011609" type="curve"/>
      <point x="572.8549318600142" y="626.554228863618" type="line"/>
      <point x="530.6242188514253" y="663.989723074727"/>
      <point x="456.33967324306843" y="688.3803527502102"/>
      <point x="406.85520724950163" y="688.3803527502102" type="curve" smooth="yes"/>
      <point x="207.78994368641395" y="688.3803527502102"/>
      <point x="103.7588542282715" y="544.344773954291"/>
      <point x="103.75885332836064" y="367.3153734725117" type="curve" smooth="yes"/>
      <point x="103.75885239243676" y="183.2016840747497"/>
      <point x="216.43928272828867" y="41.38551055988637"/>
      <point x="402.43005166463945" y="41.38551055988634" type="curve" smooth="yes"/>
      <point x="464.6255610081837" y="41.38551055988634"/>
      <point x="526.6939456776594" y="68.47612065068117"/>
      <point x="570.3820652864979" y="96.541258498585" type="curve"/>
      <point x="594.902473609293" y="52.44658114502948" type="line"/>
      <point x="527.1230444915942" y="4.328205280254437"/>
      <point x="460.6221766989679" y="-11.796600750992418"/>
      <point x="402.87729350184054" y="-11.796600750992413" type="curve" smooth="yes"/>
      <point x="171.79915249045234" y="-11.796600750992413"/>
      <point x="48.82574847947842" y="170.45134770504387"/>
      <point x="48.8257484794784" y="367.1935659709904" type="curve" smooth="yes"/>
      <point x="48.8257484794784" y="563.6153050533574"/>
      <point x="168.45579694217707" y="740.8528311262157"/>
      <point x="405.62953737197853" y="740.8528311262157" type="curve" smooth="yes"/>
      <point x="473.12642148675025" y="740.8528311262157"/>
      <point x="555.8994860974511" y="712.5503973591078"/>
    </contour>
    <contour>
      <point x="362.3348440810337" y="-127.67125855574174" type="line"/>
      <point x="310.40729890816016" y="-127.67125855574174" type="line"/>
      <point x="398.2782734343691" y="27.078560318100156" type="line"/>
      <point x="463.368279807191" y="27.078560318100156" type="line"/>
    </contour>
  </outline>
</glyph>
<glyph name="uni00C8" format="2">
  <advance width="527"/>
  <unicode hex="00C8"/>
  <anchor x="263" y="727.3047239705434" name="top"/>
  <anchor x="263" y="-145" name="bottom"/>
  <outline>
    <contour>
      <point x="68.6250524385186" y="726.8483653575454" type="line"/>
      <point x="117.6118306811716" y="726.8483653575454" type="line"/>
      <point x="117.6118306811716" y="-0.4629258721517405" type="line"/>
      <point x="68.6250524385186" y="-0.4629258721517405" type="line"/>
    </contour>
    <contour>
      <point x="97.07680350755746" y="684.7589700108565" type="line"/>
      <point x="97.07680350755746" y="726.8483653575454" type="line"/>
      <point x="526.6129810584886" y="726.8483653575454" type="line"/>
      <point x="526.6129810584886" y="684.7589700108565" type="line"/>
    </contour>
    <contour>
      <point x="97.0768035075573" y="41.62646947453713" type="line"/>
      <point x="526.6129810584883" y="41.62646947453713" type="line"/>
      <point x="526.6129810584883" y="-0.4629258721517405" type="line"/>
      <point x="97.0768035075573" y="-0.4629258721517405" type="line"/>
    </contour>
    <contour>
      <point x="97.07680350755746" y="405.55495315863027" type="line"/>
      <point x="370.8926102648908" y="405.55495315863027" type="line"/>
      <point x="370.8926102648908" y="363.4655578119414" type="line"/>
      <point x="97.07680350755746" y="363.4655578119414" type="line"/>
    </contour>
    <contour>
      <point x="187.28101933419316" y="894.9730159032938" type="line"/>
      <point x="252.37102570701506" y="894.9730159032938" type="line"/>
      <point x="369.6845454860097" y="762.7022294491113" type="line"/>
      <point x="310.53895570384503" y="762.7022294491113" type="line"/>
    </contour>
  </outline>
</glyph>
<glyph name="uni00CE" format="2">
  <advance width="186"/>
  <unicode hex="00CE"/>
  <anchor x="93" y="727.3047239705434" name="top"/>
  <anchor x="93" y="-145" name="bottom"/>
  <outline>
    <contour>
      <point x="68.62505243851851" y="727.3047239705434" type="line"/>
      <point x="117.61183068117151" y="727.3047239705434" type="line"/>
      <point x="117.61183068117151" y="-0.4629258721517405" type="line"/>
      <point x="68.62505243851851" y="-0.4629258721517405" type="line"/>
    </contour>
    <contour>
      <point x="110.19137151779819" y="861.6935106629794" type="line"/>
      <point x="-19.068363803143033" y="762.3039136508614" type="line"/>
      <point x="-75.49837553574413" y="762.3039136508614" type="line"/>
      <point x="80.5138224612954" y="894.5747001050438" type="line"/>
      <point x="112.53175394109408" y="894.5747001050438" type="line"/>
      <point x="267.4498235645787" y="762.3039136508614" type="line"/>
      <point x="209.62815446425873" y="762.3039136508614" type="line"/>
      <point x="82.85420488459131" y="861.6935106629794" type="line"/>
    </contour>
  </outline>
</glyph>
<glyph name="uni00CF" format="2">
  <advance width="186"/>
  <unicode hex="00CF"/>
  <anchor x="93" y="727.3047239705434" name="top"/>
  <anchor x="93" y="-145" name="bottom"/>
  <outline>
    <contour>
      <point x="68.62505243851851" y="727.3047239705434" type="line"/>
      <point x="117.61183068117151" y="727.3047239705434" type="line"/>
      <point x="117.61183068117151" y="-0.4629258721517405" type="line"/>
      <point x="68.62505243851851" y="-0.4629258721517405" type="line"/>
    </contour>
    <contour>
      <point x="-61.03109962976799" y="834.2555616156745" type="curve" smooth="yes"/>
      <point x="-61.03109962976799" y="859.2790673534873"/>
      <point x="-44.33080024170347" y="874.3093756117745"/>
      <point x="-18.295337877616888" y="874.3093756117745" type="curve" smooth="yes"/>
      <point x="7.740124486469782" y="874.3093756117745"/>
      <point x="24.44042387453422" y="859.2790673534873"/>
      <point x="24.44042387453422" y="834.2555616156745" type="curve" smooth="yes"/>
      <point x="24.44042387453422" y="809.2320558778614"/>
      <point x="7.743208058222017" y="794.2017476195743"/>
      <point x="-18.295337877616888" y="794.2017476195745" type="curve" smooth="yes"/>
      <point x="-44.33080024170347" y="794.2017476195745"/>
      <point x="-61.03109962976799" y="809.2320558778615"/>
    </contour>
    <contour>
      <point x="169.46311172863935" y="834.2555616156745" type="curve" smooth="yes"/>
      <point x="169.46311172863935" y="859.2790673534873"/>
      <point x="186.16341111670386" y="874.3093756117745"/>
      <point x="212.19887348079047" y="874.3093756117745" type="curve" smooth="yes"/>
      <point x="238.23433584487714" y="874.3093756117745"/>
      <point x="254.93463523294156" y="859.2790673534873"/>
      <point x="254.93463523294156" y="834.2555616156745" type="curve" smooth="yes"/>
      <point x="254.93463523294156" y="809.2320558778614"/>
      <point x="238.23741941662936" y="794.2017476195743"/>
      <point x="212.19887348079047" y="794.2017476195745" type="curve" smooth="yes"/>
      <point x="186.16341111670388" y="794.2017476195745"/>
      <point x="169.46311172863938" y="809.2320558778615"/>
    </contour>
  </outline>
</glyph>
<glyph name="uni00D1" format="2">
  <advance width="677"/>
  <unicode hex="00D1"/>
  <anchor x="338" y="727.3047239705434" name="top"/>
  <anchor x="338" y="-145" name="bottom"/>
  <outline>
    <contour>
      <point x="68.62505243851851" y="727.3047239705434" type="line"/>
      <point x="112.51360905149623" y="727.3047239705434" type="line"/>
      <point x="112.51360905149623" y="0.0" type="line"/>
      <point x="68.62505243851851" y="0.0" type="line"/>
    </contour>
    <contour>
      <point x="563.4176243955573" y="727.3047239705434" type="line"/>
      <point x="608.0677139026327" y="727.3047239705434" type="line"/>
      <point x="608.0677139026327" y="0.0" type="line"/>
      <point x="563.4176243955573" y="0.0" type="line"/>
    </contour>
    <contour>
      <point x="94.67137727981238" y="727.3047239705434" type="line"/>
      <point x="130.35584082318007" y="727.3047239705434" type="line"/>
      <point x="563.4176243955573" y="57.149539177942934" type="line"/>
      <point x="585.5934362205718" y="57.149539177942934" type="line"/>
      <point x="585.5934362205718" y="0.0" type="line"/>
      <point x="548.9947681087309" y="0.0" type="line"/>
      <point x="112.51360905149623" y="672.7085007440338" type="line"/>
      <point x="94.67137727981238" y="672.7085007440338" type="line"/>
    </contour>
    <contour>
      <point x="266.9098849782262" y="899.5782613283453" type="curve" smooth="yes"/>
      <point x="297.600575474553" y="899.5782613283453"/>
      <point x="322.8872725895666" y="890.9783640229001"/>
      <point x="356.6092943158392" y="862.9517701203089" type="curve" smooth="yes"/>
      <point x="382.2561661880367" y="841.6364863372531"/>
      <point x="402.960727906673" y="830.4349926194743"/>
      <point x="425.8844338852823" y="830.4349926194743" type="curve" smooth="yes"/>
      <point x="448.817978368534" y="830.4349926194743"/>
      <point x="473.353060155039" y="847.6945863862236"/>
      <point x="489.4659617856501" y="891.0034590333231" type="curve"/>
      <point x="523.7607100391374" y="878.3527314737486" type="line"/>
      <point x="509.6741986379492" y="815.3761552537967"/>
      <point x="468.5273915434572" y="787.3474529730703"/>
      <point x="426.7864271111092" y="787.3474529730703" type="curve" smooth="yes"/>
      <point x="396.84945955552524" y="787.3474529730703"/>
      <point x="364.1549023275698" y="800.7594859583677"/>
      <point x="329.9605329723157" y="828.1888349551383" type="curve" smooth="yes"/>
      <point x="309.00995056244903" y="844.9945502656194"/>
      <point x="287.08296698628004" y="853.5750043469906"/>
      <point x="273.15548740032193" y="853.5750043469905" type="curve"/>
      <point x="226.02869443799523" y="853.5750043469905"/>
      <point x="205.32906386556334" y="812.4638763677915"/>
      <point x="195.72717398151636" y="774.6038844424635" type="curve"/>
      <point x="158.4831981202252" y="790.5194305310404" type="line"/>
      <point x="171.48939512814476" y="850.9667920796902"/>
      <point x="205.04052355696624" y="899.5782613283455"/>
    </contour>
  </outline>
</glyph>
<glyph name="uni00D5" format="2">
  <advance width="788"/>
  <unicode hex="00D5"/>
  <anchor x="394" y="727.3047239705434" name="top"/>
  <anchor x="394" y="-145" name="bottom"/>
  <outline>
    <contour>
      <point x="47.52770549579365" y="364.4035398007608" type="curve" smooth="yes"/>
      <point x="47.52770549579365" y="562.3059612050619"/>
      <point x="191.71622285502883" y="740.2258045635838"/>
      <point x="394.207059076124" y="740.2258045635838" type="curve" smooth="yes"/>
      <point x="609.4931533308023" y="740.2258045635839"/>
      <point x="740.8864126564547" y="562.305961205062"/>
      <point x="740.8864126564547" y="364.4035398007603" type="curve" smooth="yes"/>
      <point x="740.8864126564547" y="166.50111839645916"/>
      <point x="596.6978952972194" y="-11.418724962062925"/>
      <point x="394.207059076124" y="-11.41872496206292" type="curve" smooth="yes"/>
      <point x="178.92096482144558" y="-11.41872496206292"/>
      <point x="47.52770549579367" y="166.50111839645916"/>
    </contour>
    <contour>
      <point x="319.47527390280464" y="899.0281326671558" type="curve" smooth="yes"/>
      <point x="350.16596439913144" y="899.0281326671558"/>
      <point x="375.452661514145" y="890.4282353617106"/>
      <point x="409.1746832404176" y="862.4016414591191" type="curve" smooth="yes"/>
      <point x="434.8215551126151" y="841.0863576760634"/>
      <point x="455.52611683125144" y="829.8848639582845"/>
      <point x="478.4498228098608" y="829.8848639582845" type="curve" smooth="yes"/>
      <point x="501.3833672931126" y="829.8848639582845"/>
      <point x="525.9184490796175" y="847.1444577250338"/>
      <point x="542.0313507102286" y="890.4533303721333" type="curve"/>
      <point x="576.3260989637157" y="877.8026028125588" type="line"/>
      <point x="562.2395875625275" y="814.8260265926069"/>
      <point x="521.0927804680355" y="786.7973243118805"/>
      <point x="479.3518160356877" y="786.7973243118805" type="curve" smooth="yes"/>
      <point x="449.41484848010373" y="786.7973243118805"/>
      <point x="416.7202912521483" y="800.2093572971779"/>
      <point x="382.52592189689415" y="827.6387062939485" type="curve" smooth="yes"/>
      <point x="361.57533948702746" y="844.4444216044296"/>
      <point x="339.64835591085847" y="853.0248756858008"/>
      <point x="325.72087632490036" y="853.0248756858008" type="curve" smooth="yes"/>
      <point x="278.59408336257366" y="853.0248756858008"/>
      <point x="257.89445279014177" y="811.9137477066018"/>
      <point x="248.29256290609482" y="774.0537557812736" type="curve"/>
      <point x="211.04858704480364" y="789.9693018698506" type="line"/>
      <point x="224.0547840527232" y="850.4166634185004"/>
      <point x="257.60591248154464" y="899.0281326671558"/>
    </contour>
    <contour>
      <point x="103.1551970955012" y="364.40353980076065" type="curve" smooth="yes"/>
      <point x="103.1551970955012" y="175.75155908290682"/>
      <point x="225.79443641733076" y="38.031410192078454"/>
      <point x="394.2070590761243" y="38.03141019207844" type="curve" smooth="yes"/>
      <point x="562.6196799718626" y="38.03141019207844"/>
      <point x="685.2589191387603" y="175.75156406733896"/>
      <point x="685.258921056747" y="364.4035398007598" type="curve" smooth="yes"/>
      <point x="685.258921056747" y="553.0555205186137"/>
      <point x="562.6196817349181" y="690.7756694094421"/>
      <point x="394.2070590761243" y="690.7756694094422" type="curve" smooth="yes"/>
      <point x="225.79443818038618" y="690.7756694094422"/>
      <point x="103.15519901348819" y="553.0555155341815"/>
    </contour>
  </outline>
</glyph>
<glyph name="uni00D7" format="2">
  <advance width="510"/>
  <unicode hex="00D7"/>
  <anchor x="255" y="577.8261138372574" name="top"/>
  <anchor x="255" y="-145" name="bottom"/>
  <outline>
    <contour>
      <point x="48.533787382158444" y="616.4387480776013" type="line"/>
      <point x="493.1459813118195" y="145.77433676075344" type="line"/>
      <point x="461.2436664324058" y="113.87202188133955" type="line"/>
      <point x="16.631472502744728" y="584.5364331981875" type="line"/>
    </contour>
    <contour>
      <point x="16.631472502744685" y="145.77433676075327" type="line"/>
      <point x="461.2436664324058" y="616.4387480776012" type="line"/>
      <point x="493.14598131181936" y="584.5364331981875" type="line"/>
      <point x="48.53378738215832" y="113.87202188133955" type="line"/>
    </contour>
  </outline>
</glyph>
<glyph name="uni00D8" format="2">
  <advance width="791"/>
  <unicode hex="00D8"/>
  <anchor x="395" y="727.3047239705434" name="top"/>
  <anchor x="395" y="-145" name="bottom"/>
  <outline>
    <contour>
      <point x="47.92711644360584" y="364.4035398007608" type="curve" smooth="yes"/>
      <point x="47.92711644360584" y="562.3059612050619"/>
      <point x="192.11563380284105" y="740.2258045635838"/>
      <point x="394.60647002393625" y="740.2258045635838" type="curve" smooth="yes"/>
      <point x="609.8925642786146" y="740.2258045635839"/>
      <point x="741.285823604267" y="562.305961205062"/>
      <point x="741.285823604267" y="364.4035398007603" type="curve" smooth="yes"/>
      <point x="741.285823604267" y="166.50111839645916"/>
      <point x="597.0973062450316" y="-11.418724962062925"/>
      <point x="394.6064700239361" y="-11.41872496206292" type="curve" smooth="yes"/>
      <point x="179.32037576925768" y="-11.41872496206292"/>
      <point x="47.92711644360577" y="166.50111839645916"/>
    </contour>
    <contour>
      <point x="666.0238715618921" y="727.3047239705434" type="line"/>
      <point x="717.2528114613159" y="727.3047239705434" type="line"/>
      <point x="99.93591995139147" y="0.0" type="line"/>
      <point x="49.7049778258485" y="0.0" type="line"/>
    </contour>
    <contour>
      <point x="103.5546080433134" y="364.40353980076065" type="curve" smooth="yes"/>
      <point x="103.5546080433134" y="175.75155908290682"/>
      <point x="226.19384736514297" y="38.031410192078454"/>
      <point x="394.6064700239364" y="38.03141019207844" type="curve" smooth="yes"/>
      <point x="563.0190909196747" y="38.03141019207844"/>
      <point x="685.6583300865725" y="175.75156406733896"/>
      <point x="685.6583320045593" y="364.4035398007598" type="curve" smooth="yes"/>
      <point x="685.6583320045593" y="553.0555205186137"/>
      <point x="563.0190926827304" y="690.7756694094421"/>
      <point x="394.6064700239364" y="690.7756694094422" type="curve" smooth="yes"/>
      <point x="226.19384912819828" y="690.7756694094422"/>
      <point x="103.55460996130029" y="553.0555155341815"/>
    </contour>
  </outline>
</glyph>
<glyph name="uni00DC" format="2">
  <advance width="676"/>
  <unicode hex="00DC"/>
  <anchor x="338" y="727.3047239705434" name="top"/>
  <anchor x="338" y="-145" name="bottom"/>
  <outline>
    <contour>
      <point x="560.5519625301569" y="264.6498444918361" type="curve" smooth="yes"/>
      <point x="560.5519625301569" y="727.3047239705434" type="line"/>
      <point x="607.8303471329233" y="727.3047239705434" type="line"/>
      <point x="607.8303471329233" y="261.35059484966035" type="line" smooth="yes"/>
      <point x="607.8303471329233" y="81.29047823730522"/>
      <point x="500.567214730871" y="-13.165774145114824"/>
      <point x="334.14828541276086" y="-13.165774145114831" type="curve"/>
      <point x="176.5806388346746" y="-13.165774145114831"/>
      <point x="68.62505243851848" y="96.6783038558836"/>
      <point x="68.62505243851844" y="266.915352171642" type="curve" smooth="yes"/>
      <point x="68.62505243851844" y="727.3047239705434" type="line"/>
      <point x="117.8078571938601" y="727.3047239705434" type="line"/>
      <point x="117.8078571938601" y="278.29470718185485" type="line" smooth="yes"/>
      <point x="117.8078571938601" y="108.99380042443516"/>
      <point x="226.36870296567366" y="31.62748251041208"/>
      <point x="338.2487593297943" y="31.627482510412086" type="curve" smooth="yes"/>
      <point x="453.0817741904656" y="31.627482510412086"/>
      <point x="560.5519625301569" y="107.51003201090003"/>
    </contour>
    <contour>
      <point x="185.30000182396185" y="831.34793956866" type="curve" smooth="yes"/>
      <point x="185.30000182396185" y="856.3714453064728"/>
      <point x="202.0003012120264" y="871.4017535647599"/>
      <point x="228.03576357611297" y="871.4017535647598" type="curve" smooth="yes"/>
      <point x="254.07122594019964" y="871.4017535647598"/>
      <point x="270.7715253282641" y="856.3714453064727"/>
      <point x="270.7715253282641" y="831.34793956866" type="curve" smooth="yes"/>
      <point x="270.7715253282641" y="806.3244338308468"/>
      <point x="254.0743095119519" y="791.2941255725598"/>
      <point x="228.03576357611297" y="791.2941255725599" type="curve" smooth="yes"/>
      <point x="202.0003012120264" y="791.2941255725599"/>
      <point x="185.30000182396185" y="806.3244338308469"/>
    </contour>
    <contour>
      <point x="415.7942131823693" y="831.34793956866" type="curve" smooth="yes"/>
      <point x="415.7942131823693" y="856.3714453064728"/>
      <point x="432.4945125704338" y="871.4017535647599"/>
      <point x="458.5299749345204" y="871.4017535647598" type="curve" smooth="yes"/>
      <point x="484.565437298607" y="871.4017535647598"/>
      <point x="501.2657366866715" y="856.3714453064727"/>
      <point x="501.2657366866715" y="831.34793956866" type="curve" smooth="yes"/>
      <point x="501.2657366866715" y="806.3244338308468"/>
      <point x="484.56852087035924" y="791.2941255725598"/>
      <point x="458.5299749345204" y="791.2941255725599" type="curve" smooth="yes"/>
      <point x="432.4945125704338" y="791.2941255725599"/>
      <point x="415.7942131823693" y="806.3244338308469"/>
    </contour>
  </outline>
</glyph>
<glyph name="uni00DF" format="2">
  <advance width="570"/>
  <unicode hex="00DF"/>
  <anchor x="285" y="577.8261138372574" name="top"/>
  <anchor x="285" y="-145" name="bottom"/>
  <outline>
    <contour>
      <point x="68.62505243851851" y="-2.0502570012633026" type="line"/>
      <point x="68.62505243851851" y="562.380343451423" type="line" smooth="yes"/>
      <point x="68.62505243851851" y="646.0276898613523"/>
      <point x="91.36305829372705" y="731.8857748821681"/>
      <point x="255.96512154535716" y="731.885774882168" type="curve" smooth="yes"/>
      <point x="368.02840384058265" y="731.885774882168"/>
      <point x="437.12812439098025" y="674.8391322710318"/>
      <point x="437.1281243909802" y="602.5977746346097" type="curve" smooth="yes"/>
      <point x="437.1281243909802" y="539.7601125904832"/>
      <point x="398.08387494753697" y="506.5914295271593"/>
      <point x="366.11122308783035" y="480.93708113555084" type="curve" smooth="yes"/>
      <point x="305.6315461818692" y="432.4091483020286"/>
      <point x="289.9186413691612" y="423.8331125905475"/>
      <point x="289.9186413691612" y="400.1320894451651" type="curve" smooth="yes"/>
      <point x="289.9186413691612" y="365.19968936429126"/>
      <point x="319.12795467365476" y="351.177554083467"/>
      <point x="404.58278399570753" y="310.83176596576084" type="curve" smooth="yes"/>
      <point x="474.9464899686238" y="277.61094983539346"/>
      <point x="536.6812027034904" y="227.0471716236235"/>
      <point x="536.6812027034904" y="147.5332725152323" type="curve" smooth="yes"/>
      <point x="536.6812027034904" y="70.62976148903128"/>
      <point x="473.746231642602" y="-7.333235009836585"/>
      <point x="359.8620783078858" y="-7.333235009836586" type="curve"/>
      <point x="304.08630618622976" y="-7.333235009836586"/>
      <point x="241.97912807523562" y="10.619538603231955"/>
      <point x="196.4770324660857" y="39.4187396418228" type="curve"/>
      <point x="216.86577814409446" y="80.47326520976637" type="line"/>
      <point x="266.4143722755053" y="56.61645564407917"/>
      <point x="312.54811362253486" y="37.84491551415957"/>
      <point x="367.38051288895247" y="37.844915514159574" type="curve" smooth="yes"/>
      <point x="439.23249425229193" y="37.844915514159574"/>
      <point x="483.22143221685144" y="89.00478950601145"/>
      <point x="483.22143221685144" y="149.8282483189477" type="curve" smooth="yes"/>
      <point x="483.22143221685144" y="210.21036144923082"/>
      <point x="437.87682577366104" y="241.97730342729045"/>
      <point x="383.1422410600349" y="267.3402250670872" type="curve" smooth="yes"/>
      <point x="294.2676823536929" y="308.52293395277854"/>
      <point x="239.2471069683845" y="336.3699706960293"/>
      <point x="239.2471069683845" y="396.28490654499893" type="curve" smooth="yes"/>
      <point x="239.2471069683845" y="448.5128171883403"/>
      <point x="272.50798162775175" y="468.6711680118162"/>
      <point x="333.73230827443155" y="516.1855580653047" type="curve" smooth="yes"/>
      <point x="362.1706769447125" y="538.2557353215199"/>
      <point x="388.103098847008" y="561.3385254573917"/>
      <point x="388.1030988470081" y="599.8005241579373" type="curve" smooth="yes"/>
      <point x="388.1030988470081" y="643.5943112769875"/>
      <point x="342.1894663247051" y="688.1176023150699"/>
      <point x="253.65894795381615" y="688.1176023150699" type="curve" smooth="yes"/>
      <point x="146.06847469086907" y="688.1176023150699"/>
      <point x="118.6880560960299" y="632.0736604699371"/>
      <point x="118.6880560960299" y="563.4014155321419" type="curve" smooth="yes"/>
      <point x="118.6880560960299" y="-2.0502570012633026" type="line"/>
    </contour>
  </outline>
</glyph>
<glyph name="uni00E6" format="2">
  <advance width="980"/>
  <unicode hex="00E6"/>
  <anchor x="490" y="577.8261138372574" name="top"/>
  <anchor x="490" y="-145" name="bottom"/>
  <outline>
    <contour>
      <point x="421.3137523179241" y="117.80469326057776" type="line"/>
      <point x="421.3137523179241" y="339.4818055971202" type="line" smooth="yes"/>
      <point x="421.3137523179241" y="483.4712231740625"/>
      <point x="350.3013359929333" y="542.178326025579"/>
      <point x="243.28158991503082" y="542.178326025579" type="curve" smooth="yes"/>
      <point x="179.8464616181601" y="542.178326025579"/>
      <point x="119.66959459402113" y="515.80551990311"/>
      <point x="64.73541604469042" y="475.08781316642074" type="curve"/>
      <point x="37.741564026705085" y="512.7769871623852" type="line"/>
      <point x="94.07070994438973" y="555.350770964984"/>
      <point x="159.30571332486434" y="584.2153698100965"/>
      <point x="247.02317411000186" y="584.2153698100965" type="curve" smooth="yes"/>
      <point x="376.3841251408369" y="584.2153698100965"/>
      <point x="465.15973369084935" y="510.87171789545505"/>
      <point x="465.15973369084935" y="350.9262137351684" type="curve" smooth="yes"/>
      <point x="465.15973369084935" y="170.43587131186638" type="line"/>
    </contour>
    <contour>
      <point x="439.61839551040856" y="225.1745819865766" type="curve"/>
      <point x="467.9612021686171" y="170.43587131186638" type="line"/>
      <point x="457.5641033169153" y="89.5895129812008"/>
      <point x="397.51164030435876" y="-13.535047596084013"/>
      <point x="245.55185015607535" y="-13.535047596084027" type="curve"/>
      <point x="132.97174092231853" y="-13.535047596084027"/>
      <point x="56.56877198351353" y="49.45276764104943"/>
      <point x="56.56877198351353" y="152.078908391147" type="curve" smooth="yes"/>
      <point x="56.56877198351353" y="263.53921724265865"/>
      <point x="151.08120554104627" y="326.4763041102408"/>
      <point x="269.86682065878574" y="326.4763041102408" type="curve" smooth="yes"/>
      <point x="359.36106834355604" y="326.4763041102408"/>
      <point x="427.7291507169234" y="276.27899621282205"/>
    </contour>
    <contour>
      <point x="438.15107897659436" y="326.18012017832297" type="line"/>
      <point x="909.3161180018267" y="326.18012017832297" type="line"/>
      <point x="909.3161180018267" y="284.5956079973161" type="line"/>
      <point x="438.15107897659436" y="284.5956079973161" type="line"/>
    </contour>
    <contour>
      <point x="733.0471927198813" y="36.43488784254485" type="curve" smooth="yes"/>
      <point x="783.4286311019927" y="36.43488784254485"/>
      <point x="833.4759992944366" y="52.44562869327008"/>
      <point x="867.4905934212071" y="73.92448936528254" type="curve"/>
      <point x="890.2108791810507" y="33.20420679195731" type="line"/>
      <point x="865.5687072330262" y="11.856499171364682"/>
      <point x="800.7751558897248" y="-12.74166874448585"/>
      <point x="730.5202677787993" y="-12.741668744485855" type="curve"/>
      <point x="532.712314082474" y="-12.741668744485855"/>
      <point x="423.05249929750414" y="121.57529007315605"/>
      <point x="423.05249929750414" y="289.1833382947973" type="curve" smooth="yes"/>
      <point x="423.05249929750414" y="450.38725769163545"/>
      <point x="525.9778869117354" y="593.1405737310258"/>
      <point x="695.041410322765" y="593.1405737310259" type="curve" smooth="yes"/>
      <point x="837.4388893001357" y="593.1405737310259"/>
      <point x="934.8722152114369" y="468.2824824464292"/>
      <point x="934.8722152114369" y="321.68900570100413" type="curve" smooth="yes"/>
      <point x="934.8722152114369" y="311.8795055030916"/>
      <point x="933.8475333565146" y="293.2077170944896"/>
      <point x="932.3001006149956" y="284.5956079973161" type="curve"/>
      <point x="888.2045924380323" y="284.5956079973161" type="line"/>
      <point x="888.2045924380323" y="315.42281007371673" type="line" smooth="yes"/>
      <point x="888.2045924380323" y="454.34841422769784"/>
      <point x="812.401401521736" y="546.3429744331111"/>
      <point x="688.3803058459833" y="546.3429744331112" type="curve" smooth="yes"/>
      <point x="540.9283483782744" y="546.3429744331112"/>
      <point x="469.12759932965747" y="421.7478362810441"/>
      <point x="469.12759932965747" y="289.1828451649485" type="curve" smooth="yes"/>
      <point x="469.12759932965747" y="148.65152733900436"/>
      <point x="553.3605021037549" y="36.43488784254487"/>
    </contour>
    <contour>
      <point x="267.150688875424" y="288.55641595695516" type="curve" smooth="yes"/>
      <point x="172.1381457192271" y="288.55641595695516"/>
      <point x="107.19053407547267" y="238.82068195557528"/>
      <point x="107.19053373976804" y="155.4934666066872" type="curve" smooth="yes"/>
      <point x="107.19053373976804" y="75.22419987556472"/>
      <point x="162.31390790969886" y="22.61814823968041"/>
      <point x="251.3291626579375" y="22.618148239680398" type="curve" smooth="yes"/>
      <point x="344.79371921111226" y="22.618148239680398"/>
      <point x="421.3137523179241" y="100.40950945535911"/>
      <point x="421.3137523179241" y="170.43587131186638" type="curve" smooth="yes"/>
      <point x="421.3137523179241" y="241.38296923305825"/>
      <point x="348.40080640141696" y="288.55641595695516"/>
    </contour>
  </outline>
</glyph>
<glyph name="uni00E7" format="2">
  <advance width="550"/>
  <unicode hex="00E7"/>
  <anchor x="275" y="577.8261138372574" name="top"/>
  <anchor x="275" y="-145" name="bottom"/>
  <outline>
    <contour>
      <point x="534.7363565178139" y="525.5215324307828" type="curve"/>
      <point x="508.6930960386492" y="488.36485825438655" type="line"/>
      <point x="464.9876014966169" y="525.4320466460118"/>
      <point x="414.0845139128848" y="548.5698275729873"/>
      <point x="351.94004221101466" y="548.5698275729872" type="curve"/>
      <point x="201.10925702005994" y="548.5698275729872"/>
      <point x="107.54764654328775" y="436.1021027675986"/>
      <point x="107.54764582969804" y="295.72559469415376" type="curve" smooth="yes"/>
      <point x="107.54764503452593" y="139.3004954164339"/>
      <point x="210.5555832844846" y="33.29728247332946"/>
      <point x="366.3315388057451" y="33.29728247332947" type="curve" smooth="yes"/>
      <point x="422.0745726801124" y="33.29728247332947"/>
      <point x="473.36864031135843" y="53.306171800996424"/>
      <point x="517.9189968659324" y="82.60854491492769" type="curve"/>
      <point x="537.8180516637232" y="45.4394721248532" type="line"/>
      <point x="493.64036591014735" y="6.003690472480898"/>
      <point x="426.15474159507403" y="-13.299081842514731"/>
      <point x="365.85817035607414" y="-13.299081842514731" type="curve" smooth="yes"/>
      <point x="172.54729560558096" y="-13.299081842514731"/>
      <point x="53.294327772693066" y="112.2646631915548"/>
      <point x="53.294327772693094" y="293.1873620653224" type="curve" smooth="yes"/>
      <point x="53.294327772693094" y="456.3837664352875"/>
      <point x="166.6322764157573" y="593.996522072666"/>
      <point x="354.6450364568398" y="593.996522072666" type="curve" smooth="yes"/>
      <point x="412.087008330416" y="593.996522072666"/>
      <point x="478.2821789558613" y="578.0561516610212"/>
    </contour>
    <contour>
      <point x="290.58832129063677" y="-127.67125855574174" type="line"/>
      <point x="238.66077611776325" y="-127.67125855574174" type="line"/>
      <point x="326.53175064397215" y="27.078560318100156" type="line"/>
      <point x="391.62175701679416" y="27.078560318100156" type="line"/>
    </contour>
  </outline>
</glyph>
<glyph name="uni00E9" format="2">
  <advance width="604"/>
  <unicode hex="00E9"/>
  <anchor x="302" y="577.8261138372574" name="top"/>
  <anchor x="302" y="-145" name="bottom"/>
  <outline>
    <contour>
      <point x="69.92520025660974" y="326.18012017832297" type="line"/>
      <point x="541.0902392818422" y="326.18012017832297" type="line"/>
      <point x="541.0902392818422" y="284.5956079973161" type="line"/>
      <point x="69.92520025660974" y="284.5956079973161" type="line"/>
    </contour>
    <contour>
      <point x="364.8213139998968" y="36.43488784254485" type="curve" smooth="yes"/>
      <point x="415.20275238200816" y="36.43488784254485"/>
      <point x="465.25012057445207" y="52.44562869327008"/>
      <point x="499.26471470122254" y="73.92448936528254" type="curve"/>
      <point x="521.9850004610662" y="33.20420679195731" type="line"/>
      <point x="497.34282851304175" y="11.856499171364682"/>
      <point x="432.5492771697403" y="-12.74166874448585"/>
      <point x="362.2943890588147" y="-12.741668744485855" type="curve"/>
      <point x="162.5644015481462" y="-12.741668744485855"/>
      <point x="48.98521895430929" y="119.94669865295162"/>
      <point x="48.98521895430928" y="289.1833382947973" type="curve" smooth="yes"/>
      <point x="48.98521895430928" y="451.93583141495617"/>
      <point x="156.12793272940527" y="593.1405737310258"/>
      <point x="326.8155316027805" y="593.1405737310259" type="curve" smooth="yes"/>
      <point x="469.21301058015104" y="593.1405737310259"/>
      <point x="566.6463364914524" y="468.2824824464292"/>
      <point x="566.6463364914523" y="321.68900570100413" type="curve" smooth="yes"/>
      <point x="566.6463364914523" y="311.8795055030916"/>
      <point x="565.62165463653" y="293.2077170944896"/>
      <point x="564.074221895011" y="284.5956079973161" type="curve"/>
      <point x="519.9787137180476" y="284.5956079973161" type="line"/>
      <point x="519.9787137180476" y="315.42281007371673" type="line" smooth="yes"/>
      <point x="519.9787137180476" y="454.34841422769784"/>
      <point x="444.17552280175147" y="546.3429744331111"/>
      <point x="320.1544271259989" y="546.3429744331112" type="curve" smooth="yes"/>
      <point x="172.70246965828983" y="546.3429744331112"/>
      <point x="100.90172060967285" y="421.7478362810441"/>
      <point x="100.90172060967285" y="289.1828451649485" type="curve" smooth="yes"/>
      <point x="100.90172060967285" y="148.65152733900436"/>
      <point x="185.1346233837703" y="36.43488784254487"/>
    </contour>
    <contour>
      <point x="343.3283602549637" y="630.1742491101026" type="line"/>
      <point x="284.18277047279895" y="630.1742491101026" type="line"/>
      <point x="401.49629025179365" y="762.4450355642849" type="line"/>
      <point x="466.5862966246154" y="762.4450355642849" type="line"/>
    </contour>
  </outline>
</glyph>
<glyph name="uni00EA" format="2">
  <advance width="599"/>
  <unicode hex="00EA"/>
  <anchor x="299" y="577.8261138372574" name="top"/>
  <anchor x="299" y="-145" name="bottom"/>
  <outline>
    <contour>
      <point x="65.32911399190883" y="326.18012017832297" type="line"/>
      <point x="536.4941530171412" y="326.18012017832297" type="line"/>
      <point x="536.4941530171412" y="284.5956079973161" type="line"/>
      <point x="65.32911399190883" y="284.5956079973161" type="line"/>
    </contour>
    <contour>
      <point x="360.22522773519586" y="36.43488784254485" type="curve" smooth="yes"/>
      <point x="410.6066661173072" y="36.43488784254485"/>
      <point x="460.6540343097511" y="52.44562869327008"/>
      <point x="494.66862843652166" y="73.92448936528254" type="curve"/>
      <point x="517.3889141963652" y="33.20420679195731" type="line"/>
      <point x="492.7467422483408" y="11.856499171364682"/>
      <point x="427.9531909050394" y="-12.74166874448585"/>
      <point x="357.69830279411383" y="-12.741668744485855" type="curve"/>
      <point x="157.96831528344532" y="-12.741668744485855"/>
      <point x="44.3891326896084" y="119.94669865295162"/>
      <point x="44.38913268960837" y="289.1833382947973" type="curve" smooth="yes"/>
      <point x="44.38913268960837" y="451.93583141495617"/>
      <point x="151.53184646470436" y="593.1405737310258"/>
      <point x="322.21944533807954" y="593.1405737310259" type="curve" smooth="yes"/>
      <point x="464.6169243154501" y="593.1405737310259"/>
      <point x="562.0502502267515" y="468.2824824464292"/>
      <point x="562.0502502267515" y="321.68900570100413" type="curve" smooth="yes"/>
      <point x="562.0502502267515" y="311.8795055030916"/>
      <point x="561.0255683718292" y="293.2077170944896"/>
      <point x="559.4781356303101" y="284.5956079973161" type="curve"/>
      <point x="515.3826274533468" y="284.5956079973161" type="line"/>
      <point x="515.3826274533468" y="315.42281007371673" type="line" smooth="yes"/>
      <point x="515.3826274533468" y="454.34841422769784"/>
      <point x="439.57943653705064" y="546.3429744331111"/>
      <point x="315.55834086129795" y="546.3429744331112" type="curve" smooth="yes"/>
      <point x="168.10638339358889" y="546.3429744331112"/>
      <point x="96.3056343449719" y="421.7478362810441"/>
      <point x="96.30563434497193" y="289.1828451649485" type="curve" smooth="yes"/>
      <point x="96.30563434497193" y="148.65152733900436"/>
      <point x="180.53853711906942" y="36.43488784254487"/>
    </contour>
    <contour>
      <point x="334.5418800558699" y="729.3541158134013" type="line"/>
      <point x="205.28214473492872" y="629.9645188012834" type="line"/>
      <point x="148.85213300232763" y="629.9645188012834" type="line"/>
      <point x="304.86433099936716" y="762.235305255466" type="line"/>
      <point x="336.88226247916583" y="762.235305255466" type="line"/>
      <point x="491.80033210265043" y="629.9645188012834" type="line"/>
      <point x="433.97866300233045" y="629.9645188012834" type="line"/>
      <point x="307.2047134226631" y="729.3541158134013" type="line"/>
    </contour>
  </outline>
</glyph>
<glyph name="uni00EC" format="2">
  <advance width="202"/>
  <unicode hex="00EC"/>
  <anchor x="101" y="577.8261138372574" name="top"/>
  <anchor x="101" y="-145" name="bottom"/>
  <outline>
    <contour>
      <point x="80.09481626756317" y="0.07739554720163708" type="line"/>
      <point x="80.09481626756317" y="577.8261138372574" type="line"/>
      <point x="126.91214306914428" y="577.8261138372574" type="line"/>
      <point x="126.91214306914428" y="0.07739554720163708" type="line"/>
    </contour>
    <contour>
      <point x="-25.706583630383406" y="761.2511401057556" type="line"/>
      <point x="39.383422742438505" y="761.2511401057556" type="line"/>
      <point x="156.69694252143316" y="628.9803536515731" type="line"/>
      <point x="97.55135273926845" y="628.9803536515731" type="line"/>
    </contour>
  </outline>
</glyph>
<glyph name="uni00F1" format="2">
  <advance width="590"/>
  <unicode hex="00F1"/>
  <anchor x="295" y="577.8261138372574" name="top"/>
  <anchor x="295" y="-145" name="bottom"/>
  <outline>
    <contour>
      <point x="68.62505243851851" y="0.07739554720163708" type="line"/>
      <point x="68.62505243851851" y="577.2885957501898" type="line"/>
      <point x="113.9686954835798" y="577.2885957501898" type="line"/>
      <point x="113.9686954835798" y="0.07739554720163708" type="line"/>
    </contour>
    <contour>
      <point x="475.9790335667747" y="0.07739554720163708" type="line"/>
      <point x="475.9790335667747" y="361.2666411589292" type="line" smooth="yes"/>
      <point x="475.9790335667747" y="484.36621200211107"/>
      <point x="407.7256793576696" y="555.0681335923547"/>
      <point x="312.8635298694888" y="555.0681335923547" type="curve" smooth="yes"/>
      <point x="214.72875452333423" y="555.0681335923547"/>
      <point x="113.96869548357981" y="484.21431089741964"/>
      <point x="113.9686954835798" y="331.1017697960621" type="curve"/>
      <point x="85.0404432512073" y="398.1372408859707" type="line"/>
      <point x="108.49092196804402" y="513.7262055782628"/>
      <point x="204.79958115144163" y="596.0389433223635"/>
      <point x="328.86702008878456" y="596.0389433223636" type="curve" smooth="yes"/>
      <point x="446.9887398398277" y="596.0389433223636"/>
      <point x="521.3226766118361" y="501.3116562269215"/>
      <point x="521.3226766118361" y="381.80335093860305" type="curve" smooth="yes"/>
      <point x="521.3226766118361" y="0.07739554720163708" type="line"/>
    </contour>
    <contour>
      <point x="211.3418958226579" y="762.891612671668" type="curve" smooth="yes"/>
      <point x="242.0325863189847" y="762.891612671668"/>
      <point x="267.3192834339983" y="754.2917153662228"/>
      <point x="301.0413051602709" y="726.2651214636313" type="curve" smooth="yes"/>
      <point x="326.6881770324684" y="704.9498376805756"/>
      <point x="347.39273875110473" y="693.7483439627968"/>
      <point x="370.31644472971396" y="693.7483439627968" type="curve" smooth="yes"/>
      <point x="393.2499892129658" y="693.7483439627968"/>
      <point x="417.7850709994707" y="711.007937729546"/>
      <point x="433.8979726300819" y="754.3168103766455" type="curve"/>
      <point x="468.19272088356905" y="741.666082817071" type="line"/>
      <point x="454.10620948238085" y="678.6895065971191"/>
      <point x="412.9594023878889" y="650.6608043163927"/>
      <point x="371.2184379555409" y="650.6608043163927" type="curve" smooth="yes"/>
      <point x="341.2814703999569" y="650.6608043163927"/>
      <point x="308.58691317200146" y="664.0728373016901"/>
      <point x="274.39254381674743" y="691.5021862984607" type="curve" smooth="yes"/>
      <point x="253.44196140688075" y="708.3079016089418"/>
      <point x="231.51497783071176" y="716.888355690313"/>
      <point x="217.58749824475362" y="716.888355690313" type="curve" smooth="yes"/>
      <point x="170.4607052824269" y="716.888355690313"/>
      <point x="149.76107470999506" y="675.777227711114"/>
      <point x="140.15918482594807" y="637.9172357857858" type="curve"/>
      <point x="102.9152089646569" y="653.8327818743628" type="line"/>
      <point x="115.92140597257645" y="714.2801434230126"/>
      <point x="149.47253440139792" y="762.891612671668"/>
    </contour>
  </outline>
</glyph>
<glyph name="uni00F2" format="2">
  <advance width="677"/>
  <unicode hex="00F2"/>
  <anchor x="338" y="577.8261138372574" name="top"/>
  <anchor x="338" y="-145" name="bottom"/>
  <outline>
    <contour>
      <point x="44.91685353863685" y="288.830975427733" type="curve" smooth="yes"/>
      <point x="44.91685353863685" y="451.7488375385901"/>
      <point x="179.39686821707087" y="591.2808122568877"/>
      <point x="337.6514738108567" y="591.2808122568877" type="curve" smooth="yes"/>
      <point x="514.8799784915294" y="591.2808122568877"/>
      <point x="630.3860940830764" y="451.74883753859024"/>
      <point x="630.3860940830765" y="288.8309754277325" type="curve" smooth="yes"/>
      <point x="630.3860940830765" y="125.86192822854144"/>
      <point x="495.9557994037981" y="-13.80287350483826"/>
      <point x="337.6514738108566" y="-13.802873504838217" type="curve" smooth="yes"/>
      <point x="160.36728796330704" y="-13.802873504838217"/>
      <point x="44.916853538636815" y="125.86192822854146"/>
    </contour>
    <contour>
      <point x="207.87600552276012" y="761.2408978152124" type="line"/>
      <point x="272.966011895582" y="761.2408978152124" type="line"/>
      <point x="390.27953167457673" y="628.9701113610299" type="line"/>
      <point x="331.133941892412" y="628.9701113610299" type="line"/>
    </contour>
    <contour>
      <point x="98.43837863144928" y="288.9022425350492" type="curve" smooth="yes"/>
      <point x="98.43837863144928" y="137.7183442110228"/>
      <point x="201.81492860148376" y="31.347093282954745"/>
      <point x="337.6514738108569" y="31.34709328295477" type="curve" smooth="yes"/>
      <point x="473.4880175982025" y="31.34709328295477"/>
      <point x="576.8645674432735" y="137.71834820549918"/>
      <point x="576.864568990264" y="288.9022425350486" type="curve" smooth="yes"/>
      <point x="576.864568990264" y="439.98265802489834"/>
      <point x="473.39504119098467" y="546.130845469095"/>
      <point x="337.6514738108569" y="546.1308454690949" type="curve"/>
      <point x="200.88955697673003" y="546.1308454690949"/>
      <point x="98.43838005233721" y="427.7624435220986"/>
    </contour>
  </outline>
</glyph>
<glyph name="uni00F3" format="2">
  <advance width="677"/>
  <unicode hex="00F3"/>
  <anchor x="338" y="577.8261138372574" name="top"/>
  <anchor x="338" y="-145" name="bottom"/>
  <outline>
    <contour>
      <point x="47.543188547037374" y="288.830975427733" type="curve" smooth="yes"/>
      <point x="47.543188547037374" y="451.7488375385901"/>
      <point x="182.0232032254714" y="591.2808122568877"/>
      <point x="340.27780881925725" y="591.2808122568877" type="curve" smooth="yes"/>
      <point x="517.5063134999299" y="591.2808122568877"/>
      <point x="633.012429091477" y="451.74883753859024"/>
      <point x="633.012429091477" y="288.8309754277325" type="curve" smooth="yes"/>
      <point x="633.012429091477" y="125.86192822854144"/>
      <point x="498.58213441219857" y="-13.80287350483826"/>
      <point x="340.27780881925713" y="-13.802873504838217" type="curve" smooth="yes"/>
      <point x="162.99362297170757" y="-13.802873504838217"/>
      <point x="47.543188547037346" y="125.86192822854146"/>
    </contour>
    <contour>
      <point x="360.66240871199665" y="629.5825159342803" type="line"/>
      <point x="301.51681892983197" y="629.5825159342803" type="line"/>
      <point x="418.8303387088266" y="761.8533023884626" type="line"/>
      <point x="483.9203450816485" y="761.8533023884626" type="line"/>
    </contour>
    <contour>
      <point x="101.06471363984981" y="288.9022425350492" type="curve" smooth="yes"/>
      <point x="101.06471363984981" y="137.7183442110228"/>
      <point x="204.4412636098843" y="31.347093282954745"/>
      <point x="340.2778088192574" y="31.34709328295477" type="curve" smooth="yes"/>
      <point x="476.114352606603" y="31.34709328295477"/>
      <point x="579.490902451674" y="137.71834820549918"/>
      <point x="579.4909039986645" y="288.9022425350486" type="curve" smooth="yes"/>
      <point x="579.4909039986645" y="439.98265802489834"/>
      <point x="476.02137619938514" y="546.130845469095"/>
      <point x="340.2778088192574" y="546.1308454690949" type="curve"/>
      <point x="203.51589198513057" y="546.1308454690949"/>
      <point x="101.06471506073774" y="427.7624435220986"/>
    </contour>
  </outline>
</glyph>
<glyph name="uni00F4" format="2">
  <advance width="673"/>
  <unicode hex="00F4"/>
  <anchor x="336" y="577.8261138372574" name="top"/>
  <anchor x="336" y="-145" name="bottom"/>
  <outline>
    <contour>
      <point x="43.60368603443656" y="288.830975427733" type="curve" smooth="yes"/>
      <point x="43.60368603443656" y="451.7488375385901"/>
      <point x="178.0837007128706" y="591.2808122568877"/>
      <point x="336.3383063066564" y="591.2808122568877" type="curve" smooth="yes"/>
      <point x="513.5668109873291" y="591.2808122568877"/>
      <point x="629.0729265788761" y="451.74883753859024"/>
      <point x="629.072926578876" y="288.8309754277325" type="curve" smooth="yes"/>
      <point x="629.072926578876" y="125.86192822854144"/>
      <point x="494.64263189959763" y="-13.80287350483826"/>
      <point x="336.3383063066563" y="-13.802873504838217" type="curve" smooth="yes"/>
      <point x="159.05412045910674" y="-13.802873504838217"/>
      <point x="43.60368603443652" y="125.86192822854146"/>
    </contour>
    <contour>
      <point x="352.53251226500305" y="728.762382637579" type="line"/>
      <point x="223.2727769440618" y="629.3727856254611" type="line"/>
      <point x="166.84276521146072" y="629.3727856254611" type="line"/>
      <point x="322.85496320850024" y="761.6435720796436" type="line"/>
      <point x="354.8728946882989" y="761.6435720796436" type="line"/>
      <point x="509.7909643117834" y="629.3727856254611" type="line"/>
      <point x="451.9692952114636" y="629.3727856254611" type="line"/>
      <point x="325.19534563179616" y="728.762382637579" type="line"/>
    </contour>
    <contour>
      <point x="97.125211127249" y="288.9022425350492" type="curve" smooth="yes"/>
      <point x="97.125211127249" y="137.7183442110228"/>
      <point x="200.50176109728346" y="31.347093282954745"/>
      <point x="336.3383063066566" y="31.34709328295477" type="curve" smooth="yes"/>
      <point x="472.1748500940022" y="31.34709328295477"/>
      <point x="575.5513999390731" y="137.71834820549918"/>
      <point x="575.5514014860637" y="288.9022425350486" type="curve" smooth="yes"/>
      <point x="575.5514014860637" y="439.98265802489834"/>
      <point x="472.0818736867843" y="546.130845469095"/>
      <point x="336.3383063066566" y="546.1308454690949" type="curve"/>
      <point x="199.57638947252974" y="546.1308454690949"/>
      <point x="97.12521254813691" y="427.7624435220986"/>
    </contour>
  </outline>
</glyph>
<glyph name="uni00F5" format="2">
  <advance width="681"/>
  <unicode hex="00F5"/>
  <anchor x="340" y="577.8261138372574" name="top"/>
  <anchor x="340" y="-145" name="bottom"/>
  <outline>
    <contour>
      <point x="43.880142351110315" y="288.830975427733" type="curve" smooth="yes"/>
      <point x="43.880142351110315" y="451.7488375385901"/>
      <point x="178.36015702954435" y="591.2808122568877"/>
      <point x="336.6147626233302" y="591.2808122568877" type="curve" smooth="yes"/>
      <point x="513.8432673040029" y="591.2808122568877"/>
      <point x="629.34938289555" y="451.74883753859024"/>
      <point x="629.3493828955499" y="288.8309754277325" type="curve" smooth="yes"/>
      <point x="629.3493828955499" y="125.86192822854144"/>
      <point x="494.91908821627146" y="-13.80287350483826"/>
      <point x="336.6147626233301" y="-13.802873504838217" type="curve" smooth="yes"/>
      <point x="159.33057677578051" y="-13.802873504838217"/>
      <point x="43.880142351110294" y="125.86192822854146"/>
    </contour>
    <contour>
      <point x="262.29066817932244" y="763.9813670535799" type="curve" smooth="yes"/>
      <point x="292.98135867564923" y="763.9813670535799"/>
      <point x="318.26805579066286" y="755.3814697481347"/>
      <point x="351.99007751693546" y="727.3548758455433" type="curve" smooth="yes"/>
      <point x="377.63694938913295" y="706.0395920624876"/>
      <point x="398.3415111077693" y="694.8380983447088"/>
      <point x="421.2652170863785" y="694.8380983447088" type="curve" smooth="yes"/>
      <point x="444.19876156963034" y="694.8380983447088"/>
      <point x="468.7338433561352" y="712.0976921114581"/>
      <point x="484.84674498674633" y="755.4065647585576" type="curve"/>
      <point x="519.1414932402337" y="742.755837198983" type="line"/>
      <point x="505.05498183904547" y="679.7792609790312"/>
      <point x="463.9081747445535" y="651.7505586983048"/>
      <point x="422.16721031220544" y="651.7505586983048" type="curve" smooth="yes"/>
      <point x="392.23024275662146" y="651.7505586983048"/>
      <point x="359.535685528666" y="665.1625916836022"/>
      <point x="325.341316173412" y="692.5919406803728" type="curve" smooth="yes"/>
      <point x="304.3907337635453" y="709.3976559908539"/>
      <point x="282.4637501873763" y="717.978110072225"/>
      <point x="268.53627060141815" y="717.978110072225" type="curve" smooth="yes"/>
      <point x="221.40947763909145" y="717.978110072225"/>
      <point x="200.70984706665956" y="676.8669820930261"/>
      <point x="191.1079571826126" y="639.0069901676978" type="curve"/>
      <point x="153.86398132132146" y="654.9225362562748" type="line"/>
      <point x="166.870178329241" y="715.3698978049247"/>
      <point x="200.42130675806249" y="763.98136705358"/>
    </contour>
    <contour>
      <point x="97.40166744392275" y="288.9022425350492" type="curve" smooth="yes"/>
      <point x="97.40166744392275" y="137.7183442110228"/>
      <point x="200.7782174139572" y="31.347093282954745"/>
      <point x="336.6147626233303" y="31.34709328295477" type="curve" smooth="yes"/>
      <point x="472.4513064106759" y="31.34709328295477"/>
      <point x="575.8278562557468" y="137.71834820549918"/>
      <point x="575.8278578027375" y="288.9022425350486" type="curve" smooth="yes"/>
      <point x="575.8278578027375" y="439.98265802489834"/>
      <point x="472.35833000345815" y="546.130845469095"/>
      <point x="336.6147626233303" y="546.1308454690949" type="curve"/>
      <point x="199.85284578920346" y="546.1308454690949"/>
      <point x="97.40166886481063" y="427.7624435220986"/>
    </contour>
  </outline>
</glyph>
<glyph name="uni00F7" format="2">
  <advance width="522"/>
  <unicode hex="00F7"/>
  <anchor x="261" y="577.8261138372574" name="top"/>
  <anchor x="261" y="-145" name="bottom"/>
  <outline>
    <contour>
      <point x="0.0" y="388.72654880555643" type="line"/>
      <point x="522.3466093947047" y="388.72654880555643" type="line"/>
      <point x="522.3466093947047" y="347.8620410114271" type="line"/>
      <point x="0.0" y="347.8620410114271" type="line"/>
    </contour>
    <contour>
      <point x="261.1733046973523" y="209.65878560561083" type="curve" smooth="yes"/>
      <point x="287.1635348133389" y="209.65878560561083"/>
      <point x="308.5398570413136" y="191.75444766661428"/>
      <point x="308.5398570413136" y="163.77701584130244" type="curve" smooth="yes"/>
      <point x="308.5398570413136" y="135.79958401599043"/>
      <point x="287.16353481333886" y="117.89524607699387"/>
      <point x="261.1733046973523" y="117.89524607699386" type="curve"/>
      <point x="235.1830745813657" y="117.89524607699386"/>
      <point x="213.806752353391" y="135.7995840159904"/>
      <point x="213.80675235339098" y="163.77701584130244" type="curve" smooth="yes"/>
      <point x="213.80675235339098" y="191.75444766661428"/>
      <point x="235.1830745813657" y="209.65878560561086"/>
    </contour>
    <contour>
      <point x="261.17330469735236" y="614.2281378440935" type="curve" smooth="yes"/>
      <point x="287.16353481333897" y="614.2281378440935"/>
      <point x="308.53985704131367" y="596.3237999050968"/>
      <point x="308.5398570413137" y="568.3463680797851" type="curve" smooth="yes"/>
      <point x="308.5398570413137" y="540.3689362544732"/>
      <point x="287.16353481333897" y="522.4645983154765"/>
      <point x="261.17330469735236" y="522.4645983154765" type="curve" smooth="yes"/>
      <point x="235.18307458136576" y="522.4645983154765"/>
      <point x="213.80675235339106" y="540.368936254473"/>
      <point x="213.80675235339106" y="568.3463680797851" type="curve" smooth="yes"/>
      <point x="213.80675235339106" y="596.323799905097"/>
      <point x="235.1830745813658" y="614.2281378440935"/>
    </contour>
  </outline>
</glyph>
<glyph name="uni00F9" format="2">
  <advance width="576"/>
  <unicode hex="00F9"/>
  <anchor x="288" y="577.8261138372574" name="top"/>
  <anchor x="288" y="-145" name="bottom"/>
  <outline>
    <contour>
      <point x="507.4590079854418" y="577.2112002029882" type="line"/>
      <point x="507.4590079854418" y="0.0" type="line"/>
      <point x="462.11536494038063" y="0.0" type="line"/>
      <point x="462.11536494038063" y="577.2112002029882" type="line"/>
    </contour>
    <contour>
      <point x="108.97977655698398" y="577.2112002029882" type="line"/>
      <point x="108.97977655698398" y="214.79697154477688" type="line" smooth="yes"/>
      <point x="108.97977655698398" y="86.4185947927541"/>
      <point x="175.12200537468456" y="22.220462157835044"/>
      <point x="279.50788247879683" y="22.220462157835037" type="curve" smooth="yes"/>
      <point x="373.6480528550536" y="22.220462157835037"/>
      <point x="462.11536494038063" y="94.82472766243265"/>
      <point x="462.11536494038063" y="241.70477762617074" type="curve"/>
      <point x="488.56991005343605" y="185.38870405330306" type="line"/>
      <point x="467.0552921862181" y="61.7862479996419"/>
      <point x="390.7109462563657" y="-18.750347572173695"/>
      <point x="273.77783477491926" y="-18.750347572173695" type="curve" smooth="yes"/>
      <point x="147.3401532517524" y="-18.750347572173695"/>
      <point x="63.63613351192262" y="65.35935623312129"/>
      <point x="63.63613351192262" y="209.46324224304578" type="curve" smooth="yes"/>
      <point x="63.63613351192262" y="577.2112002029882" type="line"/>
    </contour>
    <contour>
      <point x="154.6486535796526" y="760.996998039801" type="line"/>
      <point x="219.7386599524745" y="760.996998039801" type="line"/>
      <point x="337.05217973146915" y="628.7262115856186" type="line"/>
      <point x="277.9065899493045" y="628.7262115856186" type="line"/>
    </contour>
  </outline>
</glyph>
<glyph name="uni00FA" format="2">
  <advance width="578"/>
  <unicode hex="00FA"/>
  <anchor x="289" y="577.8261138372574" name="top"/>
  <anchor x="289" y="-145" name="bottom"/>
  <outline>
    <contour>
      <point x="509.0683366714405" y="577.2112002029882" type="line"/>
      <point x="509.0683366714405" y="0.0" type="line"/>
      <point x="463.7246936263793" y="0.0" type="line"/>
      <point x="463.7246936263793" y="577.2112002029882" type="line"/>
    </contour>
    <contour>
      <point x="110.58910524298264" y="577.2112002029882" type="line"/>
      <point x="110.58910524298264" y="214.79697154477688" type="line" smooth="yes"/>
      <point x="110.58910524298264" y="86.4185947927541"/>
      <point x="176.73133406068322" y="22.220462157835044"/>
      <point x="281.1172111647955" y="22.220462157835037" type="curve" smooth="yes"/>
      <point x="375.25738154105227" y="22.220462157835037"/>
      <point x="463.7246936263793" y="94.82472766243265"/>
      <point x="463.7246936263793" y="241.70477762617074" type="curve"/>
      <point x="490.1792387394347" y="185.38870405330306" type="line"/>
      <point x="468.66462087221674" y="61.7862479996419"/>
      <point x="392.32027494236434" y="-18.750347572173695"/>
      <point x="275.3871634609179" y="-18.750347572173695" type="curve" smooth="yes"/>
      <point x="148.94948193775107" y="-18.750347572173695"/>
      <point x="65.24546219792128" y="65.35935623312129"/>
      <point x="65.24546219792128" y="209.46324224304578" type="curve" smooth="yes"/>
      <point x="65.24546219792128" y="577.2112002029882" type="line"/>
    </contour>
    <contour>
      <point x="306.41805044648726" y="629.338616158869" type="line"/>
      <point x="247.27246066432258" y="629.338616158869" type="line"/>
      <point x="364.5859804433171" y="761.6094026130512" type="line"/>
      <point x="429.6759868161392" y="761.6094026130512" type="line"/>
    </contour>
  </outline>
</glyph>
<glyph name="uni00FB" format="2">
  <advance width="575"/>
  <unicode hex="00FB"/>
  <anchor x="287" y="577.8261138372574" name="top"/>
  <anchor x="287" y="-145" name="bottom"/>
  <outline>
    <contour>
      <point x="506.65434364244254" y="577.2112002029882" type="line"/>
      <point x="506.65434364244254" y="0.0" type="line"/>
      <point x="461.31070059738136" y="0.0" type="line"/>
      <point x="461.31070059738136" y="577.2112002029882" type="line"/>
    </contour>
    <contour>
      <point x="108.17511221398469" y="577.2112002029882" type="line"/>
      <point x="108.17511221398469" y="214.79697154477688" type="line" smooth="yes"/>
      <point x="108.17511221398469" y="86.4185947927541"/>
      <point x="174.31734103168526" y="22.220462157835044"/>
      <point x="278.70321813579756" y="22.220462157835037" type="curve" smooth="yes"/>
      <point x="372.84338851205433" y="22.220462157835037"/>
      <point x="461.31070059738136" y="94.82472766243265"/>
      <point x="461.31070059738136" y="241.70477762617074" type="curve"/>
      <point x="487.7652457104367" y="185.38870405330306" type="line"/>
      <point x="466.25062784321875" y="61.7862479996419"/>
      <point x="389.90628191336634" y="-18.750347572173695"/>
      <point x="272.97317043192" y="-18.750347572173695" type="curve" smooth="yes"/>
      <point x="146.53548890875314" y="-18.750347572173695"/>
      <point x="62.83146916892335" y="65.35935623312129"/>
      <point x="62.83146916892333" y="209.46324224304578" type="curve" smooth="yes"/>
      <point x="62.83146916892333" y="577.2112002029882" type="line"/>
    </contour>
    <contour>
      <point x="299.8136634830965" y="728.5184828621676" type="line"/>
      <point x="170.55392816215527" y="629.1288858500498" type="line"/>
      <point x="114.12391642955419" y="629.1288858500498" type="line"/>
      <point x="270.13611442659374" y="761.3996723042322" type="line"/>
      <point x="302.1540459063924" y="761.3996723042322" type="line"/>
      <point x="457.072115529877" y="629.1288858500498" type="line"/>
      <point x="399.25044642955703" y="629.1288858500498" type="line"/>
      <point x="272.4764968498896" y="728.5184828621676" type="line"/>
    </contour>
  </outline>
</glyph>
<glyph name="uni00FC" format="2">
  <advance width="578"/>
  <unicode hex="00FC"/>
  <anchor x="289" y="577.8261138372574" name="top"/>
  <anchor x="289" y="-145" name="bottom"/>
  <outline>
    <contour>
      <point x="509.0862181012849" y="577.2112002029882" type="line"/>
      <point x="509.0862181012849" y="0.0" type="line"/>
      <point x="463.74257505622364" y="0.0" type="line"/>
      <point x="463.74257505622364" y="577.2112002029882" type="line"/>
    </contour>
    <contour>
      <point x="110.60698667282702" y="577.2112002029882" type="line"/>
      <point x="110.60698667282702" y="214.79697154477688" type="line" smooth="yes"/>
      <point x="110.60698667282702" y="86.4185947927541"/>
      <point x="176.7492154905276" y="22.220462157835044"/>
      <point x="281.1350925946399" y="22.220462157835037" type="curve" smooth="yes"/>
      <point x="375.2752629708967" y="22.220462157835037"/>
      <point x="463.7425750562237" y="94.82472766243265"/>
      <point x="463.74257505622364" y="241.70477762617074" type="curve"/>
      <point x="490.19712016927906" y="185.38870405330306" type="line"/>
      <point x="468.6825023020611" y="61.7862479996419"/>
      <point x="392.3381563722087" y="-18.750347572173695"/>
      <point x="275.4050448907623" y="-18.750347572173695" type="curve" smooth="yes"/>
      <point x="148.96736336759548" y="-18.750347572173695"/>
      <point x="65.26334362776569" y="65.35935623312129"/>
      <point x="65.26334362776566" y="209.46324224304578" type="curve" smooth="yes"/>
      <point x="65.26334362776566" y="577.2112002029882" type="line"/>
    </contour>
    <contour>
      <point x="131.02306679437265" y="701.0805338148629" type="curve" smooth="yes"/>
      <point x="131.02306679437265" y="726.1040395526757"/>
      <point x="147.7233661824372" y="741.1343478109628"/>
      <point x="173.75882854652374" y="741.1343478109628" type="curve" smooth="yes"/>
      <point x="199.7942909106104" y="741.1343478109628"/>
      <point x="216.49459029867484" y="726.1040395526757"/>
      <point x="216.49459029867486" y="701.0805338148629" type="curve" smooth="yes"/>
      <point x="216.49459029867486" y="676.0570280770497"/>
      <point x="199.79737448236267" y="661.0267198187627"/>
      <point x="173.75882854652374" y="661.0267198187627" type="curve" smooth="yes"/>
      <point x="147.72336618243716" y="661.0267198187627"/>
      <point x="131.02306679437265" y="676.0570280770497"/>
    </contour>
    <contour>
      <point x="361.51727815278" y="701.0805338148629" type="curve" smooth="yes"/>
      <point x="361.51727815278" y="726.1040395526757"/>
      <point x="378.21757754084456" y="741.1343478109628"/>
      <point x="404.2530399049311" y="741.1343478109628" type="curve" smooth="yes"/>
      <point x="430.28850226901767" y="741.1343478109628"/>
      <point x="446.9888016570822" y="726.1040395526757"/>
      <point x="446.9888016570822" y="701.0805338148629" type="curve" smooth="yes"/>
      <point x="446.9888016570822" y="676.0570280770497"/>
      <point x="430.2915858407701" y="661.0267198187627"/>
      <point x="404.2530399049311" y="661.0267198187627" type="curve" smooth="yes"/>
      <point x="378.2175775408445" y="661.0267198187627"/>
      <point x="361.51727815277997" y="676.0570280770497"/>
    </contour>
  </outline>
</glyph>
<glyph name="uni00FD" format="2">
  <advance width="504"/>
  <unicode hex="00FD"/>
  <anchor x="252" y="577.8261138372574" name="top"/>
  <anchor x="252" y="-145" name="bottom"/>
  <outline>
    <contour>
      <point x="453.72541607828487" y="577.8705566475887" type="line"/>
      <point x="505.515336530283" y="577.8261138372574" type="line"/>
      <point x="170.0054284080361" y="-99.75886461632912" type="line"/>
      <point x="114.59199821921074" y="-99.75886461632912" type="line"/>
      <point x="244.8151575107141" y="159.48075500885554" type="line"/>
      <point x="246.431856028936" y="111.94070750023691" type="line"/>
      <point x="-1.7340634231582428" y="577.8261138372574" type="line"/>
      <point x="52.57401908259677" y="577.7816710269259" type="line"/>
      <point x="265.30679071301324" y="181.2156107620819" type="line"/>
      <point x="250.75560357469672" y="176.2754030108865" type="line"/>
    </contour>
    <contour>
      <point x="273.4980316324994" y="629.918644517123" type="line"/>
      <point x="214.3524418503347" y="629.918644517123" type="line"/>
      <point x="331.6659616293294" y="762.1894309713055" type="line"/>
      <point x="396.7559680021513" y="762.1894309713055" type="line"/>
    </contour>
  </outline>
</glyph>
<glyph name="uni00FE" format="2">
  <advance width="656"/>
  <unicode hex="00FE"/>
  <anchor x="328" y="577.8261138372574" name="top"/>
  <anchor x="328" y="-145" name="bottom"/>
  <outline>
    <contour>
      <point x="117.73976492635352" y="727.3047239705434" type="line"/>
      <point x="117.73976492635352" y="415.9507099069228" type="line"/>
      <point x="117.73976492635352" y="377.6871664509463" type="line"/>
      <point x="117.7397649263536" y="116.32844990106003" type="line"/>
      <point x="117.7397649263536" y="116.32844990106003" type="line"/>
      <point x="117.73976492635369" y="-99.75886461632912" type="line"/>
      <point x="68.62505243851864" y="-99.75886461632912" type="line"/>
      <point x="68.62505243851855" y="727.3047239705434" type="line"/>
    </contour>
    <contour>
      <point x="95.82044998206392" y="218.325482947927" type="curve"/>
      <point x="103.4402641642904" y="415.9507099069228" type="line"/>
      <point x="134.4281388064845" y="481.72583824717003"/>
      <point x="200.94691064286127" y="590.604494110853"/>
      <point x="351.13958284734565" y="590.6044941108531" type="curve" smooth="yes"/>
      <point x="496.4580898374875" y="590.6044941108531"/>
      <point x="605.4834464794839" y="469.0855619040136"/>
      <point x="605.4834464794839" y="319.48498380301635" type="curve" smooth="yes"/>
      <point x="605.4834464794839" y="159.03677841284681"/>
      <point x="480.3064825172564" y="38.87103848198046"/>
      <point x="335.52964786714335" y="38.87103848198048" type="curve" smooth="yes"/>
      <point x="201.5818731180002" y="38.87103848198048"/>
      <point x="109.1067472264711" y="124.06359879960605"/>
    </contour>
    <contour>
      <point x="337.3842907024188" y="80.93063656111171" type="curve" smooth="yes"/>
      <point x="460.98321073658644" y="80.93063656111171"/>
      <point x="554.7779543392552" y="191.54794769377267"/>
      <point x="554.7779543392552" y="316.8025292170469" type="curve" smooth="yes"/>
      <point x="554.7779543392552" y="446.526825239736"/>
      <point x="469.4524667560666" y="545.9256645359013"/>
      <point x="343.94569360690593" y="545.9256645359013" type="curve" smooth="yes"/>
      <point x="240.33389715693727" y="545.9256645359013"/>
      <point x="117.73976492635344" y="465.8381469344439"/>
      <point x="117.7397649263536" y="310.6263024852639" type="curve" smooth="yes"/>
      <point x="117.7397649263536" y="171.78260898236616"/>
      <point x="212.02658947129572" y="80.93063656111173"/>
    </contour>
  </outline>
</glyph>
<glyph name="uni0100" format="2">
  <advance width="699"/>
  <unicode hex="0100"/>
  <anchor x="349" y="727.3047239705434" name="top"/>
  <anchor x="349" y="-145" name="bottom"/>
  <outline>
    <contour>
      <point x="314.09212229787516" y="727.3047239705434" type="line"/>
      <point x="363.3866972949958" y="727.3047239705434" type="line"/>
      <point x="69.63388777544023" y="-0.4629258721517405" type="line"/>
      <point x="12.199244451715254" y="-0.4629258721517405" type="line"/>
    </contour>
    <contour>
      <point x="155.17944339191462" y="261.53266564252806" type="line"/>
      <point x="541.1522063497723" y="261.53266564252806" type="line"/>
      <point x="566.4348942566361" y="219.47209705826955" type="line"/>
      <point x="138.00935365829497" y="219.47209705826955" type="line"/>
    </contour>
    <contour>
      <point x="335.48410089683273" y="727.3047239705434" type="line"/>
      <point x="388.0339847935561" y="727.3047239705434" type="line"/>
      <point x="686.4548427477772" y="-1.014959815270424" type="line"/>
      <point x="627.5282292758918" y="-1.014959815270424" type="line"/>
    </contour>
    <contour>
      <point x="465.5400877860524" y="843.1236158172258" type="line"/>
      <point x="465.5400877860524" y="795.3441777697889" type="line"/>
      <point x="230.1656446986197" y="795.3441777697889" type="line"/>
      <point x="230.1656446986197" y="843.1236158172258" type="line"/>
    </contour>
  </outline>
</glyph>
<glyph name="uni0104" format="2">
  <advance width="700"/>
  <unicode hex="0104"/>
  <anchor x="350" y="727.3047239705434" name="top"/>
  <anchor x="350" y="-145" name="bottom"/>
  <outline>
    <contour>
      <point x="314.09212229787516" y="727.3047239705434" type="line"/>
      <point x="363.3866972949958" y="727.3047239705434" type="line"/>
      <point x="69.63388777544023" y="-0.4629258721517405" type="line"/>
      <point x="12.199244451715254" y="-0.4629258721517405" type="line"/>
    </contour>
    <contour>
      <point x="155.17944339191462" y="261.53266564252806" type="line"/>
      <point x="541.1522063497723" y="261.53266564252806" type="line"/>
      <point x="566.4348942566361" y="219.47209705826955" type="line"/>
      <point x="138.00935365829497" y="219.47209705826955" type="line"/>
    </contour>
    <contour>
      <point x="335.48410089683273" y="727.3047239705434" type="line"/>
      <point x="388.0339847935561" y="727.3047239705434" type="line"/>
      <point x="686.4548427477772" y="-1.014959815270424" type="line"/>
      <point x="627.5282292758918" y="-1.014959815270424" type="line"/>
    </contour>
    <contour>
      <point x="639.5728488089253" y="29.168941152086276" type="curve"/>
      <point x="687.8271309781919" y="29.168941152086276" type="line"/>
      <point x="606.0837464403024" y="-29.21602067257404"/>
      <point x="660.22384253128" y="-114.79031015024266"/>
      <point x="729.7908119501907" y="-79.58813938083682" type="curve"/>
      <point x="743.4263001302451" y="-109.28853122177748" type="line"/>
      <point x="646.8384984677853" y="-178.1614009124338"/>
      <point x="543.2036771171818" y="-56.35406136875402"/>
    </contour>
  </outline>
</glyph>
<glyph name="uni0105" format="2">
  <advance width="529"/>
  <unicode hex="0105"/>
  <anchor x="264" y="577.8261138372574" name="top"/>
  <anchor x="264" y="-145" name="bottom"/>
  <outline>
    <contour>
      <point x="413.24601807449835" y="0.0" type="line"/>
      <point x="413.24601807449835" y="339.4818055971202" type="line" smooth="yes"/>
      <point x="413.24601807449835" y="483.4712231740625"/>
      <point x="342.2336017495075" y="542.178326025579"/>
      <point x="235.21385567160505" y="542.178326025579" type="curve" smooth="yes"/>
      <point x="171.77872737473433" y="542.178326025579"/>
      <point x="111.60186035059536" y="515.80551990311"/>
      <point x="56.66768180126469" y="475.08781316642074" type="curve"/>
      <point x="29.673829783279345" y="512.7769871623852" type="line"/>
      <point x="86.002975700964" y="555.350770964984"/>
      <point x="151.2379790814386" y="584.2153698100965"/>
      <point x="238.9554398665761" y="584.2153698100965" type="curve" smooth="yes"/>
      <point x="369.09400166133355" y="584.2153698100965"/>
      <point x="459.8934679251913" y="511.83317763028947"/>
      <point x="459.8934679251913" y="350.9262137351684" type="curve" smooth="yes"/>
      <point x="459.8934679251913" y="0.0" type="line"/>
    </contour>
    <contour>
      <point x="431.5506612669828" y="225.1745819865766" type="curve"/>
      <point x="431.5506612669828" y="96.99351527426893" type="line"/>
      <point x="407.2914772740295" y="53.194300171640904"/>
      <point x="355.06403100759223" y="-13.535047596084027"/>
      <point x="237.4841159126496" y="-13.535047596084027" type="curve" smooth="yes"/>
      <point x="124.90400667889278" y="-13.535047596084027"/>
      <point x="48.50103774008778" y="49.45276764104943"/>
      <point x="48.50103774008779" y="152.078908391147" type="curve" smooth="yes"/>
      <point x="48.50103774008779" y="263.53921724265865"/>
      <point x="143.01347129762053" y="326.4763041102408"/>
      <point x="261.79908641535997" y="326.4763041102408" type="curve" smooth="yes"/>
      <point x="351.29333410013027" y="326.4763041102408"/>
      <point x="419.66141647349764" y="276.27899621282205"/>
    </contour>
    <contour>
      <point x="421.26317979750246" y="27.36442999976323" type="curve"/>
      <point x="469.51746196676936" y="27.36442999976323" type="line"/>
      <point x="387.7740774288797" y="-31.020531824897084"/>
      <point x="441.9141735198572" y="-116.5948213025657"/>
      <point x="511.48114293876813" y="-81.39265053315987" type="curve"/>
      <point x="525.1166311188225" y="-111.09304237410052" type="line"/>
      <point x="428.5288294563624" y="-179.96591206475688"/>
      <point x="324.894008105759" y="-58.15857252107706"/>
    </contour>
    <contour>
      <point x="259.0829546319983" y="288.55641595695516" type="curve" smooth="yes"/>
      <point x="164.0704114758014" y="288.55641595695516"/>
      <point x="99.12279983204695" y="238.82068195557528"/>
      <point x="99.1227994963423" y="155.4934666066872" type="curve" smooth="yes"/>
      <point x="99.1227994963423" y="75.22419987556472"/>
      <point x="154.2461736662731" y="22.61814823968041"/>
      <point x="243.26142841451176" y="22.618148239680398" type="curve" smooth="yes"/>
      <point x="336.72598496768654" y="22.618148239680398"/>
      <point x="413.24601807449835" y="100.40950945535911"/>
      <point x="413.24601807449835" y="170.43587131186638" type="curve" smooth="yes"/>
      <point x="413.24601807449835" y="241.38296923305825"/>
      <point x="340.3330721579912" y="288.55641595695516"/>
    </contour>
  </outline>
</glyph>
<glyph name="uni0107" format="2">
  <advance width="540"/>
  <unicode hex="0107"/>
  <anchor x="270" y="577.8261138372574" name="top"/>
  <anchor x="270" y="-145" name="bottom"/>
  <outline>
    <contour>
      <point x="531.0953439050039" y="525.5215324307828" type="curve"/>
      <point x="505.05208342583916" y="488.36485825438655" type="line"/>
      <point x="461.3465888838069" y="525.4320466460118"/>
      <point x="410.4435013000748" y="548.5698275729873"/>
      <point x="348.29902959820464" y="548.5698275729872" type="curve"/>
      <point x="197.46824440724993" y="548.5698275729872"/>
      <point x="103.90663393047774" y="436.1021027675986"/>
      <point x="103.90663321688801" y="295.72559469415376" type="curve" smooth="yes"/>
      <point x="103.9066324217159" y="139.3004954164339"/>
      <point x="206.91457067167457" y="33.29728247332946"/>
      <point x="362.690526192935" y="33.29728247332947" type="curve" smooth="yes"/>
      <point x="418.4335600673023" y="33.29728247332947"/>
      <point x="469.72762769854836" y="53.306171800996424"/>
      <point x="514.2779842531224" y="82.60854491492769" type="curve"/>
      <point x="534.1770390509132" y="45.4394721248532" type="line"/>
      <point x="489.9993532973374" y="6.003690472480898"/>
      <point x="422.51372898226407" y="-13.299081842514731"/>
      <point x="362.2171577432641" y="-13.299081842514731" type="curve" smooth="yes"/>
      <point x="168.90628299277094" y="-13.299081842514731"/>
      <point x="49.65331515988305" y="112.2646631915548"/>
      <point x="49.65331515988306" y="293.1873620653224" type="curve" smooth="yes"/>
      <point x="49.65331515988306" y="456.3837664352875"/>
      <point x="162.99126380294726" y="593.996522072666"/>
      <point x="351.00402384402975" y="593.996522072666" type="curve" smooth="yes"/>
      <point x="408.4459957176059" y="593.996522072666"/>
      <point x="474.6411663430512" y="578.0561516610212"/>
    </contour>
    <contour>
      <point x="358.41702519701226" y="629.4829054058135" type="line"/>
      <point x="299.27143541484753" y="629.4829054058135" type="line"/>
      <point x="416.5849551938423" y="761.7536918599959" type="line"/>
      <point x="481.674961566664" y="761.7536918599959" type="line"/>
    </contour>
  </outline>
</glyph>
<glyph name="uni010C" format="2">
  <advance width="606"/>
  <unicode hex="010C"/>
  <anchor x="303" y="727.3047239705434" name="top"/>
  <anchor x="303" y="-145" name="bottom"/>
  <outline>
    <contour>
      <point x="602.3161032117468" y="666.5439706011609" type="curve"/>
      <point x="572.8549318600142" y="626.554228863618" type="line"/>
      <point x="530.6242188514253" y="663.989723074727"/>
      <point x="456.33967324306843" y="688.3803527502102"/>
      <point x="406.85520724950163" y="688.3803527502102" type="curve" smooth="yes"/>
      <point x="207.78994368641395" y="688.3803527502102"/>
      <point x="103.7588542282715" y="544.344773954291"/>
      <point x="103.75885332836064" y="367.3153734725117" type="curve" smooth="yes"/>
      <point x="103.75885239243676" y="183.2016840747497"/>
      <point x="216.43928272828867" y="41.38551055988637"/>
      <point x="402.43005166463945" y="41.38551055988634" type="curve" smooth="yes"/>
      <point x="464.6255610081837" y="41.38551055988634"/>
      <point x="526.6939456776594" y="68.47612065068117"/>
      <point x="570.3820652864979" y="96.541258498585" type="curve"/>
      <point x="594.902473609293" y="52.44658114502948" type="line"/>
      <point x="527.1230444915942" y="4.328205280254437"/>
      <point x="460.6221766989679" y="-11.796600750992418"/>
      <point x="402.87729350184054" y="-11.796600750992413" type="curve" smooth="yes"/>
      <point x="171.79915249045234" y="-11.796600750992413"/>
      <point x="48.82574847947842" y="170.45134770504387"/>
      <point x="48.8257484794784" y="367.1935659709904" type="curve" smooth="yes"/>
      <point x="48.8257484794784" y="563.6153050533574"/>
      <point x="168.45579694217707" y="740.8528311262157"/>
      <point x="405.62953737197853" y="740.8528311262157" type="curve" smooth="yes"/>
      <point x="473.12642148675025" y="740.8528311262157"/>
      <point x="555.8994860974511" y="712.5503973591078"/>
    </contour>
    <contour>
      <point x="370.87745346213165" y="801.2076888233321" type="line"/>
      <point x="497.8446599642588" y="900.2752928475765" type="line"/>
      <point x="556.0770623019405" y="900.2752928475765" type="line"/>
      <point x="400.06486430490116" y="768.0045063933941" type="line"/>
      <point x="368.04693282510243" y="768.0045063933941" type="line"/>
      <point x="213.12886320161786" y="900.2752928475765" type="line"/>
      <point x="272.7529229070184" y="900.2752928475765" type="line"/>
      <point x="397.31605111035805" y="801.2076888233321" type="line"/>
    </contour>
  </outline>
</glyph>
<glyph name="uni0113" format="2">
  <advance width="606"/>
  <unicode hex="0113"/>
  <anchor x="303" y="577.8261138372574" name="top"/>
  <anchor x="303" y="-145" name="bottom"/>
  <outline>
    <contour>
      <point x="68.60634815171774" y="326.18012017832297" type="line"/>
      <point x="539.7713871769502" y="326.18012017832297" type="line"/>
      <point x="539.7713871769502" y="284.5956079973161" type="line"/>
      <point x="68.60634815171774" y="284.5956079973161" type="line"/>
    </contour>
    <contour>
      <point x="363.5024618950048" y="36.43488784254485" type="curve" smooth="yes"/>
      <point x="413.88390027711614" y="36.43488784254485"/>
      <point x="463.93126846956005" y="52.44562869327008"/>
      <point x="497.9458625963305" y="73.92448936528254" type="curve"/>
      <point x="520.6661483561742" y="33.20420679195731" type="line"/>
      <point x="496.02397640814974" y="11.856499171364682"/>
      <point x="431.2304250648483" y="-12.74166874448585"/>
      <point x="360.9755369539227" y="-12.741668744485855" type="curve"/>
      <point x="161.2455494432542" y="-12.741668744485855"/>
      <point x="47.66636684941727" y="119.94669865295162"/>
      <point x="47.66636684941728" y="289.1833382947973" type="curve" smooth="yes"/>
      <point x="47.66636684941728" y="451.93583141495617"/>
      <point x="154.80908062451326" y="593.1405737310258"/>
      <point x="325.49667949788846" y="593.1405737310259" type="curve" smooth="yes"/>
      <point x="467.894158475259" y="593.1405737310259"/>
      <point x="565.3274843865604" y="468.2824824464292"/>
      <point x="565.3274843865604" y="321.68900570100413" type="curve" smooth="yes"/>
      <point x="565.3274843865604" y="311.8795055030916"/>
      <point x="564.3028025316381" y="293.2077170944896"/>
      <point x="562.7553697901191" y="284.5956079973161" type="curve"/>
      <point x="518.6598616131557" y="284.5956079973161" type="line"/>
      <point x="518.6598616131557" y="315.42281007371673" type="line" smooth="yes"/>
      <point x="518.6598616131557" y="454.34841422769784"/>
      <point x="442.85667069685957" y="546.3429744331111"/>
      <point x="318.8355750211069" y="546.3429744331112" type="curve" smooth="yes"/>
      <point x="171.3836175533978" y="546.3429744331112"/>
      <point x="99.58286850478083" y="421.7478362810441"/>
      <point x="99.58286850478085" y="289.1828451649485" type="curve" smooth="yes"/>
      <point x="99.58286850478085" y="148.65152733900436"/>
      <point x="183.81577127887832" y="36.43488784254487"/>
    </contour>
    <contour>
      <point x="437.6434298507243" y="702.8271379024725" type="line"/>
      <point x="437.6434298507243" y="655.0476998550356" type="line"/>
      <point x="202.26898676329154" y="655.0476998550356" type="line"/>
      <point x="202.26898676329154" y="702.8271379024725" type="line"/>
    </contour>
  </outline>
</glyph>
<glyph name="uni0118" format="2">
  <advance width="527"/>
  <unicode hex="0118"/>
  <anchor x="263" y="727.3047239705434" name="top"/>
  <anchor x="263" y="-145" name="bottom"/>
  <outline>
    <contour>
      <point x="68.6250524385186" y="726.8483653575454" type="line"/>
      <point x="117.6118306811716" y="726.8483653575454" type="line"/>
      <point x="117.6118306811716" y="-0.4629258721517405" type="line"/>
      <point x="68.6250524385186" y="-0.4629258721517405" type="line"/>
    </contour>
    <contour>
      <point x="97.07680350755746" y="684.7589700108565" type="line"/>
      <point x="97.07680350755746" y="726.8483653575454" type="line"/>
      <point x="526.6129810584886" y="726.8483653575454" type="line"/>
      <point x="526.6129810584886" y="684.7589700108565" type="line"/>
    </contour>
    <contour>
      <point x="97.0768035075573" y="41.62646947453713" type="line"/>
      <point x="526.6129810584883" y="41.62646947453713" type="line"/>
      <point x="526.6129810584883" y="-0.4629258721517405" type="line"/>
      <point x="97.0768035075573" y="-0.4629258721517405" type="line"/>
    </contour>
    <contour>
      <point x="97.07680350755746" y="405.55495315863027" type="line"/>
      <point x="370.8926102648908" y="405.55495315863027" type="line"/>
      <point x="370.8926102648908" y="363.4655578119414" type="line"/>
      <point x="97.07680350755746" y="363.4655578119414" type="line"/>
    </contour>
    <contour>
      <point x="468.4071371265532" y="32.77796345673153" type="curve"/>
      <point x="516.6614192958201" y="32.77796345673153" type="line"/>
      <point x="434.91803475793046" y="-25.60699836792879"/>
      <point x="489.0581308489079" y="-111.18128784559741"/>
      <point x="558.6251002678189" y="-75.97911707619156" type="curve"/>
      <point x="572.2605884478733" y="-105.67950891713222" type="line"/>
      <point x="475.67278678541317" y="-174.55237860778857"/>
      <point x="372.03796543480973" y="-52.74503906410877"/>
    </contour>
  </outline>
</glyph>
<glyph name="uni011B" format="2">
  <advance width="601"/>
  <unicode hex="011B"/>
  <anchor x="300" y="577.8261138372574" name="top"/>
  <anchor x="300" y="-145" name="bottom"/>
  <outline>
    <contour>
      <point x="66.64228149610906" y="326.18012017832297" type="line"/>
      <point x="537.8073205213416" y="326.18012017832297" type="line"/>
      <point x="537.8073205213416" y="284.5956079973161" type="line"/>
      <point x="66.64228149610906" y="284.5956079973161" type="line"/>
    </contour>
    <contour>
      <point x="361.5383952393961" y="36.43488784254485" type="curve" smooth="yes"/>
      <point x="411.91983362150745" y="36.43488784254485"/>
      <point x="461.96720181395136" y="52.44562869327008"/>
      <point x="495.98179594072195" y="73.92448936528254" type="curve"/>
      <point x="518.7020817005656" y="33.20420679195731" type="line"/>
      <point x="494.05990975254116" y="11.856499171364682"/>
      <point x="429.26635840923973" y="-12.74166874448585"/>
      <point x="359.01147029831407" y="-12.741668744485855" type="curve"/>
      <point x="159.28148278764556" y="-12.741668744485855"/>
      <point x="45.70230019380864" y="119.94669865295162"/>
      <point x="45.70230019380861" y="289.1833382947973" type="curve" smooth="yes"/>
      <point x="45.70230019380861" y="451.93583141495617"/>
      <point x="152.8450139689046" y="593.1405737310258"/>
      <point x="323.5326128422798" y="593.1405737310259" type="curve" smooth="yes"/>
      <point x="465.93009181965033" y="593.1405737310259"/>
      <point x="563.3634177309517" y="468.2824824464292"/>
      <point x="563.3634177309517" y="321.68900570100413" type="curve" smooth="yes"/>
      <point x="563.3634177309517" y="311.8795055030916"/>
      <point x="562.3387358760294" y="293.2077170944896"/>
      <point x="560.7913031345104" y="284.5956079973161" type="curve"/>
      <point x="516.695794957547" y="284.5956079973161" type="line"/>
      <point x="516.695794957547" y="315.42281007371673" type="line" smooth="yes"/>
      <point x="516.695794957547" y="454.34841422769784"/>
      <point x="440.8926040412509" y="546.3429744331111"/>
      <point x="316.8715083654982" y="546.3429744331112" type="curve" smooth="yes"/>
      <point x="169.41955089778912" y="546.3429744331112"/>
      <point x="97.61880184917214" y="421.7478362810441"/>
      <point x="97.61880184917217" y="289.1828451649485" type="curve" smooth="yes"/>
      <point x="97.61880184917217" y="148.65152733900436"/>
      <point x="181.85170462326965" y="36.43488784254487"/>
    </contour>
    <contour>
      <point x="305.94649193738496" y="662.9083409025404" type="line"/>
      <point x="432.9136984395122" y="761.9759449267848" type="line"/>
      <point x="491.1461007771939" y="761.9759449267848" type="line"/>
      <point x="335.1339027801544" y="629.7051584726024" type="line"/>
      <point x="303.11597130035574" y="629.7051584726024" type="line"/>
      <point x="148.1979016768711" y="761.9759449267848" type="line"/>
      <point x="207.82196138227167" y="761.9759449267848" type="line"/>
      <point x="332.3850895856113" y="662.9083409025404" type="line"/>
    </contour>
  </outline>
</glyph>
<glyph name="uni0123" format="2">
  <advance width="576"/>
  <unicode hex="0123"/>
  <anchor x="288" y="577.8261138372574" name="top"/>
  <anchor x="288" y="-145" name="bottom"/>
  <outline>
    <contour>
      <point x="459.62165001686253" y="152.95448912654584" type="curve" smooth="yes"/>
      <point x="459.62165001686253" y="206.91082023585366" type="line"/>
      <point x="459.62165001686253" y="306.6744828479916" type="line"/>
      <point x="459.62165001686253" y="577.8261138372574" type="line"/>
      <point x="507.80191528325724" y="577.8261138372574" type="line"/>
      <point x="507.80191528325724" y="142.89337123799913" type="line" smooth="yes"/>
      <point x="507.80191528325724" y="-32.806792509871116"/>
      <point x="409.4992875145339" y="-114.17412738675915"/>
      <point x="250.60437999282422" y="-114.17412738675915" type="curve" smooth="yes"/>
      <point x="164.24397383458987" y="-114.17412738675915"/>
      <point x="79.87295488514198" y="-87.09473209832956"/>
      <point x="37.60305914752412" y="-42.35739374797549" type="curve"/>
      <point x="69.08516731273795" y="-6.5249430943415705" type="line"/>
      <point x="106.50633860622708" y="-42.94138530825812"/>
      <point x="181.2371713909181" y="-71.51420375054786"/>
      <point x="250.60437999282422" y="-71.51420375054786" type="curve" smooth="yes"/>
      <point x="375.5090706903312" y="-71.51420375054786"/>
      <point x="459.62165001686253" y="-1.4485784057251436"/>
    </contour>
    <contour>
      <point x="488.8181831360258" y="430.96025849439417" type="curve"/>
      <point x="472.24408469990277" y="258.2985289204785" type="line"/>
      <point x="454.2152027534038" y="204.76397447143611"/>
      <point x="386.0396981790816" y="126.52008809649377"/>
      <point x="284.3414026275316" y="126.52008809649378" type="curve" smooth="yes"/>
      <point x="159.1252780541398" y="126.52008809649378"/>
      <point x="47.320799888069104" y="210.8122350827616"/>
      <point x="47.320799888069104" y="355.37593316114044" type="curve" smooth="yes"/>
      <point x="47.320799888069104" y="491.7394879399677"/>
      <point x="153.16812157856788" y="586.6555878856979"/>
      <point x="279.90184513585086" y="586.6555878856979" type="curve" smooth="yes"/>
      <point x="389.8362885760289" y="586.6555878856979"/>
      <point x="465.3400551350786" y="519.453277179325"/>
    </contour>
    <contour>
      <point x="306.28688847575347" y="652.7404291080168" type="line"/>
      <point x="246.64997115566337" y="652.7404291080168" type="line"/>
      <point x="303.2583882127815" y="762.4588049871638" type="line"/>
      <point x="354.19112058517385" y="762.4588049871638" type="line"/>
    </contour>
    <contour>
      <point x="284.89344255625974" y="545.508712656739" type="curve" smooth="yes"/>
      <point x="178.06910745232346" y="545.508712656739"/>
      <point x="98.30190934660686" y="463.5497095999727"/>
      <point x="98.3019082588029" y="356.55395974498805" type="curve" smooth="yes"/>
      <point x="98.3019082588029" y="233.97834645926181"/>
      <point x="178.4701809408028" y="169.17297689186347"/>
      <point x="281.550854526941" y="169.17297689186347" type="curve" smooth="yes"/>
      <point x="362.89948457253183" y="169.17297689186347"/>
      <point x="459.6216465811999" y="227.14962296363547"/>
      <point x="459.62165001686253" y="362.15255875587934" type="curve" smooth="yes"/>
      <point x="459.62165001686253" y="482.05210249772597"/>
      <point x="372.5708068094262" y="545.5087126567389"/>
    </contour>
  </outline>
</glyph>
<glyph name="uni0126" format="2">
  <advance width="738"/>
  <unicode hex="0126"/>
  <anchor x="369" y="727.3047239705434" name="top"/>
  <anchor x="369" y="-145" name="bottom"/>
  <outline>
    <contour>
      <point x="109.30433038289691" y="726.8483653575454" type="line"/>
      <point x="158.2911086255499" y="726.8483653575454" type="line"/>
      <point x="158.2911086255499" y="-0.4629258721517405" type="line"/>
      <point x="109.30433038289691" y="-0.4629258721517405" type="line"/>
    </contour>
    <contour>
      <point x="137.75608145193576" y="405.55495315863027" type="line"/>
      <point x="637.4084254861823" y="405.55495315863027" type="line"/>
      <point x="637.4084254861823" y="363.4655578119414" type="line"/>
      <point x="137.75608145193576" y="363.4655578119414" type="line"/>
    </contour>
    <contour>
      <point x="618.2806144473997" y="727.3047239705434" type="line"/>
      <point x="667.2673926900527" y="727.3047239705434" type="line"/>
      <point x="667.2673926900527" y="-0.006567259153755149" type="line"/>
      <point x="618.2806144473997" y="-0.006567259153755149" type="line"/>
    </contour>
    <contour>
      <point x="44.2298840126813" y="524.7289200080079" type="line"/>
      <point x="738.2112179488516" y="524.7289200080079" type="line"/>
      <point x="738.2112179488516" y="483.07170036039344" type="line"/>
      <point x="44.2298840126813" y="483.07170036039344" type="line"/>
    </contour>
  </outline>
</glyph>
<glyph name="uni0127" format="2">
  <advance width="614"/>
  <unicode hex="0127"/>
  <anchor x="307" y="577.8261138372574" name="top"/>
  <anchor x="307" y="-145" name="bottom"/>
  <outline>
    <contour>
      <point x="97.32282318116268" y="0.07739554720163708" type="line"/>
      <point x="97.32282318116268" y="727.3047239705434" type="line"/>
      <point x="142.66646622622395" y="727.3047239705434" type="line"/>
      <point x="142.66646622622395" y="0.07739554720163708" type="line"/>
    </contour>
    <contour>
      <point x="504.67680430941886" y="0.07739554720163708" type="line"/>
      <point x="504.67680430941886" y="361.2666411589292" type="line" smooth="yes"/>
      <point x="504.67680430941886" y="484.36621200211107"/>
      <point x="436.42345010031374" y="555.0681335923547"/>
      <point x="341.5613006121329" y="555.0681335923547" type="curve" smooth="yes"/>
      <point x="243.42652526597837" y="555.0681335923547"/>
      <point x="142.66646622622395" y="484.21431089741964"/>
      <point x="142.66646622622395" y="331.1017697960621" type="curve"/>
      <point x="113.73821399385146" y="398.1372408859707" type="line"/>
      <point x="139.68328894922428" y="513.7890377464387"/>
      <point x="233.4973518940858" y="596.0389433223635"/>
      <point x="357.5647908314287" y="596.0389433223636" type="curve" smooth="yes"/>
      <point x="475.68651058247184" y="596.0389433223636"/>
      <point x="550.0204473544802" y="501.3116562269215"/>
      <point x="550.0204473544802" y="381.80335093860305" type="curve" smooth="yes"/>
      <point x="550.0204473544802" y="0.07739554720163708" type="line"/>
    </contour>
    <contour>
      <point x="0.0" y="681.7361244000381" type="line"/>
      <point x="302.90609605022905" y="681.7361244000381" type="line"/>
      <point x="302.90609605022905" y="638.4915474390679" type="line"/>
      <point x="0.0" y="638.4915474390679" type="line"/>
    </contour>
  </outline>
</glyph>
<glyph name="uni012B" format="2">
  <advance width="258"/>
  <unicode hex="012B"/>
  <anchor x="129" y="577.8261138372574" name="top"/>
  <anchor x="129" y="-145" name="bottom"/>
  <outline>
    <contour>
      <point x="106.66054481453794" y="0.07739554720163708" type="line"/>
      <point x="106.66054481453794" y="577.8261138372574" type="line"/>
      <point x="153.47787161611905" y="577.8261138372574" type="line"/>
      <point x="153.47787161611905" y="0.07739554720163708" type="line"/>
    </contour>
    <contour>
      <point x="246.65313479807995" y="702.2456470171933" type="line"/>
      <point x="246.65313479807995" y="654.4662089697564" type="line"/>
      <point x="11.27869171064725" y="654.4662089697564" type="line"/>
      <point x="11.27869171064725" y="702.2456470171933" type="line"/>
    </contour>
  </outline>
</glyph>
<glyph name="uni012F" format="2">
  <advance width="225"/>
  <unicode hex="012F"/>
  <anchor x="112" y="577.8261138372574" name="top"/>
  <anchor x="112" y="-145" name="bottom"/>
  <outline>
    <contour>
      <point x="88.80956139608003" y="0.07739554720163708" type="line"/>
      <point x="88.80956139608003" y="577.8261138372574" type="line"/>
      <point x="135.62688819766112" y="577.8261138372574" type="line"/>
      <point x="135.62688819766112" y="0.07739554720163708" type="line"/>
    </contour>
    <contour>
      <point x="63.63890455306761" y="722.9320118324889" type="curve" smooth="yes"/>
      <point x="63.63890455306761" y="749.4809342829944"/>
      <point x="83.41132128221986" y="764.2795124850494"/>
      <point x="112.30577305245616" y="764.2795124850494" type="curve" smooth="yes"/>
      <point x="141.20022482269255" y="764.2795124850494"/>
      <point x="160.9726415518448" y="749.4809342829946"/>
      <point x="160.9726415518448" y="722.9320118324889" type="curve" smooth="yes"/>
      <point x="160.9726415518448" y="696.3830893819832"/>
      <point x="141.20364700563792" y="681.5845111799283"/>
      <point x="112.30577305245616" y="681.5845111799283" type="curve" smooth="yes"/>
      <point x="83.41132128221986" y="681.5845111799283"/>
      <point x="63.63890455306762" y="696.3830893819832"/>
    </contour>
    <contour>
      <point x="99.37546657472429" y="20.146385390472226" type="curve"/>
      <point x="147.629748743991" y="20.146385390472226" type="line"/>
      <point x="65.88636420610142" y="-38.23857643418809"/>
      <point x="120.0264602970789" y="-123.8128659118567"/>
      <point x="189.5934297159898" y="-88.61069514245087" type="curve"/>
      <point x="203.22891789604415" y="-118.31108698339153" type="line"/>
      <point x="106.64111623358421" y="-187.18395667404786"/>
      <point x="3.0062948829807112" y="-65.37661713036807"/>
    </contour>
  </outline>
</glyph>
<glyph name="uni0136" format="2">
  <advance width="582"/>
  <unicode hex="0136"/>
  <anchor x="291" y="727.3047239705434" name="top"/>
  <anchor x="291" y="-145" name="bottom"/>
  <outline>
    <contour>
      <point x="580.0336024058552" y="0.0" type="line"/>
      <point x="503.3958890253781" y="0.0" type="line"/>
      <point x="116.5813544213141" y="363.5283086181136" type="line"/>
      <point x="112.7293454084559" y="394.05918221617964" type="line"/>
      <point x="499.1895076490062" y="726.3041718323435" type="line"/>
      <point x="574.1909642455055" y="726.3041718323435" type="line"/>
      <point x="155.80103045170418" y="373.65127277739725" type="line"/>
      <point x="147.21599538386548" y="401.2941594466621" type="line"/>
    </contour>
    <contour>
      <point x="68.62505243851851" y="727.3047239705434" type="line"/>
      <point x="117.08579721780517" y="727.3047239705434" type="line"/>
      <point x="117.08579721780517" y="0.0" type="line"/>
      <point x="68.62505243851851" y="0.0" type="line"/>
    </contour>
    <contour>
      <point x="302.9333264627125" y="-39.6707154971112" type="line"/>
      <point x="362.5702437828027" y="-39.6707154971112" type="line"/>
      <point x="305.9618267256845" y="-149.38909137625814" type="line"/>
      <point x="255.02909435329212" y="-149.38909137625814" type="line"/>
    </contour>
  </outline>
</glyph>
